<?xml version="1.0" encoding="UTF-8" standalone="no"?>
<!-- Created with Inkscape (http://www.inkscape.org/) -->

<svg
   xmlns:dc="http://purl.org/dc/elements/1.1/"
   xmlns:cc="http://creativecommons.org/ns#"
   xmlns:rdf="http://www.w3.org/1999/02/22-rdf-syntax-ns#"
   xmlns:svg="http://www.w3.org/2000/svg"
   xmlns="http://www.w3.org/2000/svg"
   xmlns:sodipodi="http://sodipodi.sourceforge.net/DTD/sodipodi-0.dtd"
   xmlns:inkscape="http://www.inkscape.org/namespaces/inkscape"
   width="512"
   height="512"
   viewBox="0 0 135.46666 135.46666"
   version="1.1"
   id="svg8"
   inkscape:version="0.92.3 (2405546, 2018-03-11)"
   sodipodi:docname="logo-itizo.svg">
  <defs
     id="defs2">
    <inkscape:perspective
       sodipodi:type="inkscape:persp3d"
       inkscape:vp_x="0 : 160.625 : 1"
       inkscape:vp_y="0 : 1000 : 0"
       inkscape:vp_z="1250 : 160.625 : 1"
       inkscape:persp3d-origin="625 : 107.08333 : 1"
       id="perspective30" />
    <inkscape:perspective
       sodipodi:type="inkscape:persp3d"
       inkscape:vp_x="0 : 160.625 : 1"
       inkscape:vp_y="0 : 1000 : 0"
       inkscape:vp_z="1250 : 160.625 : 1"
       inkscape:persp3d-origin="625 : 107.08333 : 1"
       id="perspective30-0" />
    <inkscape:perspective
       id="perspective30-7"
       inkscape:persp3d-origin="625 : 107.08333 : 1"
       inkscape:vp_z="1250 : 160.625 : 1"
       inkscape:vp_y="0 : 1000 : 0"
       inkscape:vp_x="0 : 160.625 : 1"
       sodipodi:type="inkscape:persp3d" />
    <inkscape:perspective
       id="perspective30-0-4"
       inkscape:persp3d-origin="625 : 107.08333 : 1"
       inkscape:vp_z="1250 : 160.625 : 1"
       inkscape:vp_y="0 : 1000 : 0"
       inkscape:vp_x="0 : 160.625 : 1"
       sodipodi:type="inkscape:persp3d" />
  </defs>
  <sodipodi:namedview
     id="base"
     pagecolor="#ffffff"
     bordercolor="#666666"
     borderopacity="1.0"
     inkscape:pageopacity="0.0"
     inkscape:pageshadow="2"
     inkscape:zoom="0.8005842"
     inkscape:cx="268.52209"
     inkscape:cy="235.14647"
     inkscape:document-units="px"
     inkscape:current-layer="layer1"
     showgrid="false"
     units="px"
     inkscape:window-width="1600"
     inkscape:window-height="837"
     inkscape:window-x="-8"
     inkscape:window-y="-8"
     inkscape:window-maximized="1"
     showguides="false" />
  <metadata
     id="metadata5">
    <rdf:RDF>
      <cc:Work
         rdf:about="">
        <dc:format>image/svg+xml</dc:format>
        <dc:type
           rdf:resource="http://purl.org/dc/dcmitype/StillImage" />
        <dc:title />
      </cc:Work>
    </rdf:RDF>
  </metadata>
  <g
     inkscape:label="Layer 1"
     inkscape:groupmode="layer"
     id="layer1"
     transform="translate(0,-161.53336)">
    <g
       transform="translate(134.7508,-44.104297)"
       id="g4630" />
    <g
       aria-label="m"
       style="font-style:normal;font-weight:normal;font-size:47.34103775px;line-height:29.58814812px;font-family:sans-serif;letter-spacing:0px;word-spacing:0px;fill:#000000;fill-opacity:1;stroke:none;stroke-width:0.26458335"
       id="text4834"
       transform="translate(116.52875,13.770081)" />
    <g
       aria-label="m"
       style="font-style:normal;font-weight:normal;font-size:47.34103775px;line-height:29.58814812px;font-family:sans-serif;letter-spacing:0px;word-spacing:0px;fill:#75a12e;fill-opacity:1;stroke:none;stroke-width:0.26865035"
       id="g876"
       transform="matrix(-0.98216813,0.04675065,-0.04659998,-0.98534378,192.13871,126.09277)" />
    <g
       transform="matrix(0.95912595,0.04675065,0.53225022,-0.98534378,66.979772,117.89801)"
       id="g911"
       style="font-style:normal;font-weight:normal;font-size:47.34103775px;line-height:29.58814812px;font-family:sans-serif;letter-spacing:0px;word-spacing:0px;fill:#75a12e;fill-opacity:1;stroke:none;stroke-width:0.26865035"
       aria-label="m" />
    <path
       style="opacity:0;fill:#ffffff;fill-opacity:1;stroke:none;stroke-width:0.52916652;stroke-linecap:round;stroke-linejoin:miter;stroke-miterlimit:4;stroke-dasharray:none;stroke-opacity:1;paint-order:normal"
       d="m 26.458332,161.53336 h 82.549998 c 14.65791,0 26.45833,11.80041 26.45833,26.45833 v 82.54999 c 0,14.65792 -11.80042,26.45834 -26.45833,26.45834 H 26.458332 C 11.800416,297.00002 1.5624995e-8,285.1996 1.5624995e-8,270.54168 V 187.99169 C 1.5624995e-8,173.33377 11.800416,161.53336 26.458332,161.53336 Z"
       id="rect872"
       inkscape:connector-curvature="0" />
    <g
       id="g849"
       transform="matrix(0.94971611,0,0,0.95002887,3.4208702,11.456852)"
       style="stroke-width:1.05277288">
      <path
         inkscape:connector-curvature="0"
         style="opacity:1;vector-effect:none;fill:#ffffff;fill-opacity:1;stroke:none;stroke-width:0.55709231;stroke-linecap:round;stroke-linejoin:miter;stroke-miterlimit:4;stroke-dasharray:none;stroke-dashoffset:0;stroke-opacity:1;paint-order:markers fill stroke"
         d="m 98.954669,228.04329 a 15.196737,15.18962 0 0 0 -15.196776,15.18966 15.196737,15.18962 0 0 0 9.554287,14.09091 c 0.04368,-0.75356 0.07264,-1.32878 0.122553,-2.14898 0.255024,-4.1884 0.459735,-7.84287 0.459735,-8.12089 -0.0048,-0.66618 -0.155713,-0.95267 -0.646364,-1.22746 -0.529033,-0.29624 -0.760563,-0.52375 -1.152139,-1.12921 -0.707899,-1.09465 -0.865081,-1.96328 -0.730973,-4.04178 0.05022,-0.77869 0.122219,-1.632 0.160501,-1.89591 0.03849,-0.26394 0.159702,-1.21032 0.269374,-2.1036 0.123623,-1.00609 0.242593,-1.68732 0.312297,-1.7902 0.131,-0.19377 0.353019,-0.2152 0.523812,-0.0504 0.158653,0.15373 0.153653,0.60815 -0.03359,3.13208 -0.243408,3.28047 -0.205396,3.91592 0.220223,3.69606 0.243984,-0.12624 0.31573,-0.37259 0.31603,-1.09813 0,-0.35263 0.03386,-1.17287 0.07528,-1.82253 0.0415,-0.64967 0.110663,-1.7568 0.153038,-2.4599 0.04257,-0.7031 0.112689,-1.34238 0.156147,-1.42084 0.09595,-0.17305 0.471403,-0.19262 0.609662,-0.0317 0.07038,0.0823 0.114399,0.9689 0.16797,3.41438 0.06383,2.89772 0.08824,3.31486 0.196586,3.39572 0.146556,0.10962 0.245077,0.11436 0.400014,0.0199 0.09648,-0.0587 0.122199,-0.44679 0.163613,-2.41637 0.02733,-1.29069 0.05785,-2.78476 0.05785,-3.31986 0.0087,-1.05451 0.06261,-1.20507 0.432362,-1.20507 0.40218,0 0.383722,-0.13709 0.648856,4.90984 0.09927,1.89069 0.109172,1.94448 0.358332,2.03581 0.121709,0.0455 0.226654,0.0477 0.269995,0.006 0.150455,-0.14502 0.138625,-1.03521 -0.04853,-3.66994 -0.107347,-1.51647 -0.168003,-2.83008 -0.135619,-2.9474 0.116052,-0.41874 0.470209,-0.43502 0.67685,-0.0311 0.07888,0.15409 0.408015,2.63979 0.635169,4.79169 0.11144,1.05855 0.09314,2.91186 -0.03421,3.43303 -0.257949,1.05549 -0.880265,2.01904 -1.593834,2.46736 -0.261283,0.16413 -0.533396,0.35304 -0.604062,0.4191 -0.260898,0.24196 -0.294295,0.73678 -0.176679,2.62716 0.225801,3.63146 0.425202,6.91763 0.571714,9.40555 a 15.196737,15.18962 0 0 0 2.840531,0.27546 15.196737,15.18962 0 0 0 4.319886,-0.63797 c 0.17053,-2.9042 0.38577,-6.45221 0.55119,-9.03433 0.0838,-1.31232 0.0924,-1.8832 0.033,-2.15023 -0.0807,-0.36318 -0.30171,-0.67769 -0.47653,-0.67778 -0.24483,-1.4e-4 -1.06663,-0.46635 -1.49243,-0.84691 -0.35582,-0.318 -0.55304,-0.5768 -0.78261,-1.02599 -0.43851,-0.85742 -0.56279,-1.57302 -0.50826,-2.92563 0.12089,-3.00561 1.24787,-5.37446 2.94131,-6.18207 0.51378,-0.24498 0.64795,-0.27845 1.13223,-0.27484 0.77577,0.004 1.50353,0.35416 2.18235,1.049 0.82071,0.84004 1.21896,1.72759 1.59134,3.5462 0.28122,1.37467 0.34364,2.16665 0.23578,3.00585 -0.22665,1.76369 -0.89618,2.80496 -2.18048,3.39074 -0.33654,0.15348 -0.66402,0.30281 -0.72662,0.33205 -0.23997,0.1112 -0.38178,0.53889 -0.38197,1.14973 -2e-4,0.32484 0.20835,4.03839 0.46347,8.25209 0.0341,0.5642 0.0498,0.84275 0.079,1.32757 a 15.196737,15.18962 0 0 0 8.21613,-13.48651 15.196737,15.18962 0 0 0 -15.196766,-15.18966 z"
         id="path953"
         inkscape:export-filename="D:\ITIZO\Mobile App\Options\color4.png"
         inkscape:export-xdpi="96"
         inkscape:export-ydpi="96" />
      <g
         id="text957"
         style="font-style:normal;font-weight:normal;font-size:51.59803009px;line-height:32.24876404px;font-family:sans-serif;letter-spacing:0px;word-spacing:0px;fill:#ffffff;fill-opacity:1;stroke:#ffffff;stroke-width:1.39273083;stroke-miterlimit:4;stroke-dasharray:none;stroke-opacity:1"
         transform="scale(0.99515381,1.0048698)"
         aria-label="itiz">
        <path
           inkscape:connector-curvature="0"
           id="path906"
           style="font-style:normal;font-variant:normal;font-weight:bold;font-stretch:normal;font-family:Gilroy-Bold;-inkscape-font-specification:'Gilroy-Bold Bold';letter-spacing:0.64888299px;fill:#ffffff;fill-opacity:1;stroke:#ffffff;stroke-width:1.39273083;stroke-miterlimit:4;stroke-dasharray:none;stroke-opacity:1"
           d="m 19.629747,226.91962 q -1.651136,0 -2.889489,-1.18676 -1.186755,-1.23835 -1.186755,-2.88949 0,-1.65113 1.186755,-2.88949 1.238353,-1.23835 2.889489,-1.23835 1.702735,0 2.88949,1.23835 1.238353,1.23836 1.238353,2.88949 0,1.65114 -1.238353,2.88949 -1.186755,1.18676 -2.88949,1.18676 z m -3.302273,28.89489 V 230.0155 h 6.656145 v 25.79901 z" />
        <path
           inkscape:connector-curvature="0"
           id="path908"
           style="font-style:normal;font-variant:normal;font-weight:bold;font-stretch:normal;font-family:Gilroy-Bold;-inkscape-font-specification:'Gilroy-Bold Bold';letter-spacing:0.64888299px;fill:#ffffff;fill-opacity:1;stroke:#ffffff;stroke-width:1.39273083;stroke-miterlimit:4;stroke-dasharray:none;stroke-opacity:1"
           d="m 44.431345,236.41365 h -5.830577 v 10.7324 q 0,1.34154 0.670774,1.96072 0.670775,0.61918 1.960725,0.72237 1.289951,0.0516 3.199078,-0.0516 v 6.03697 q -6.862538,0.77397 -9.700429,-1.28995 -2.786294,-2.06392 -2.786294,-7.37851 v -10.7324 h -4.489029 v -6.39815 h 4.489029 v -5.2114 l 6.656146,-2.01233 v 7.22373 h 5.830577 z" />
        <path
           inkscape:connector-curvature="0"
           id="path910"
           style="font-style:normal;font-variant:normal;font-weight:bold;font-stretch:normal;font-family:Gilroy-Bold;-inkscape-font-specification:'Gilroy-Bold Bold';letter-spacing:0.64888299px;fill:#ffffff;fill-opacity:1;stroke:#ffffff;stroke-width:1.39273083;stroke-miterlimit:4;stroke-dasharray:none;stroke-opacity:1"
           d="m 53.075506,226.91962 q -1.651137,0 -2.889489,-1.18676 -1.186755,-1.23835 -1.186755,-2.88949 0,-1.65113 1.186755,-2.88949 1.238352,-1.23835 2.889489,-1.23835 1.702735,0 2.88949,1.23835 1.238353,1.23836 1.238353,2.88949 0,1.65114 -1.238353,2.88949 -1.186755,1.18676 -2.88949,1.18676 z m -3.302274,28.89489 V 230.0155 h 6.656146 v 25.79901 z" />
        <path
           inkscape:connector-curvature="0"
           id="path912"
           style="font-style:normal;font-variant:normal;font-weight:bold;font-stretch:normal;font-family:Gilroy-Bold;-inkscape-font-specification:'Gilroy-Bold Bold';letter-spacing:0.64888299px;fill:#ffffff;fill-opacity:1;stroke:#ffffff;stroke-width:1.39273083;stroke-miterlimit:4;stroke-dasharray:none;stroke-opacity:1"
           d="m 71.220955,249.57115 h 11.454763 v 6.24336 H 62.294496 v -4.43743 L 73.181681,236.25886 H 62.810476 v -6.24336 h 19.349262 v 4.43743 z" />
      </g>
      <path
         inkscape:connector-curvature="0"
         id="path959"
         d="m 85.39616,227.52543 c 0.526791,-0.30773 4.148334,-1.39813 5.78412,-1.74161 2.656888,-0.55782 4.851741,-0.77767 7.752529,-0.77654 4.113421,0.001 6.998551,0.43735 11.218871,1.69438 0.70956,0.21135 -1.07286,-0.52015 -2.30151,-0.94455 -6.30912,-2.17918 -13.579509,-2.40857 -20.132754,-0.63519 -0.760722,0.20583 -1.401397,0.35585 -1.423909,0.33336 -0.02287,-0.0225 -0.07464,-1.11615 -0.116773,-2.43034 -0.07223,-2.27391 -0.06501,-2.39304 0.16335,-2.46383 0.131833,-0.0409 0.907098,-0.30343 1.722824,-0.58338 6.36642,-2.18486 14.496832,-1.91655 21.648042,0.71441 l 1.70176,0.62608 0.12604,2.25338 0.12604,2.25337 0.70197,-2.51671 0.70196,-2.51671 1.12584,-0.38198 c 1.58643,-0.53826 2.49461,-1.09643 3.58397,-2.20284 1.46327,-1.48628 2.21182,-2.93121 2.67518,-5.1642 0.28989,-1.39753 0.25642,-3.26469 -0.0855,-4.73108 -0.32636,-1.40185 -1.32989,-3.29821 -2.29959,-4.34498 -2.56575,-2.77009 -6.67532,-4.21091 -10.7808,-3.77979 -4.17133,0.43806 -7.917215,2.24706 -11.253795,5.43475 -0.849434,0.81153 -1.284973,1.13291 -1.705248,1.25844 -0.818976,0.24454 -4.707761,0.21061 -6.590203,-0.0575 -2.811595,-0.40045 -4.888711,-0.19791 -6.399526,0.62399 -1.015685,0.55255 -2.161626,1.58741 -2.635219,2.37983 -1.528536,2.55726 -1.008113,6.28549 1.192048,8.5393 1.048177,1.07389 2.187256,1.5134 3.764186,1.45247 l 1.056496,-0.0408 0.07945,1.88995 c 0.04334,1.03948 0.116773,2.8113 0.162748,3.9374 0.04575,1.1261 0.116773,2.04572 0.158318,2.04361 0.04093,-0.002 0.16672,-0.0573 0.27869,-0.12266 z m 23.99914,-8.80906 -0.37811,-0.086 0.50428,-0.0973 c 0.27724,-0.0536 0.92961,-0.30007 1.44955,-0.54786 2.29815,-1.09519 3.7767,-3.63456 3.97787,-6.83204 l 0.0674,-1.07776 -0.38341,1.05764 c -0.59736,1.64762 -1.19963,2.61447 -2.32764,3.73614 -1.15545,1.14914 -2.20845,1.76501 -3.79838,2.22163 -0.84799,0.24356 -1.28474,0.28657 -2.8306,0.27877 -1.00521,-0.005 -2.05472,-0.0668 -2.33197,-0.13714 l -0.5043,-0.12792 0.37826,-0.0896 c 1.70621,-0.40457 3.08269,-1.18021 4.35901,-2.45625 1.0034,-1.00329 1.58185,-1.97049 1.70789,-2.85576 l 0.0698,-0.49348 -0.25702,0.37064 c -0.70486,1.0165 -2.23747,2.30689 -3.48514,2.93439 -0.74374,0.3741 -2.26443,0.87015 -3.34043,1.0897 -0.91673,0.18704 -4.04035,0.49159 -4.129314,0.4026 -0.02408,-0.0242 0.25678,-0.11335 0.624435,-0.19803 1.528399,-0.35193 3.101229,-1.36638 3.593359,-2.3176 l 0.19767,-0.38211 -0.3006,0.21986 c -1.34072,0.98032 -3.163465,1.40689 -6.79258,1.58964 -3.785614,0.19062 -5.356152,0.55887 -8.063602,1.89074 -1.734622,0.85331 -2.493045,1.01042 -3.67125,0.7605 -1.415482,-0.30023 -2.367002,-1.19778 -2.913548,-2.74828 -0.373794,-1.0603 -0.281098,-2.84922 0.195625,-3.77387 0.709186,-1.37565 2.101073,-2.29869 3.835695,-2.54358 0.728808,-0.10288 1.475072,-0.0769 3.639347,0.12708 2.784015,0.26232 3.916353,0.22988 5.063859,-0.14508 0.229934,-0.0751 0.443978,-0.11071 0.47576,-0.0791 0.10955,0.1089 -1.043253,1.55197 -1.661549,2.08104 -0.794779,0.68011 -1.84369,1.23754 -2.778838,1.47679 l -0.739402,0.18918 1.012916,-0.049 c 2.061948,-0.0998 3.668962,-0.96677 6.676531,-3.6019 2.05954,-1.80467 3.16744,-2.61524 4.474936,-3.27419 3.44372,-1.73558 7.69775,-2.2022 10.81235,-1.18599 1.57342,0.51338 2.39011,1.01318 3.57012,2.18475 1.68912,1.67722 2.3829,3.33509 2.3829,5.69474 0,3.37345 -2.05341,6.04055 -5.16824,6.71293 -0.85738,0.18508 -2.56732,0.22823 -3.21451,0.0811 z"
         style="fill:#ffffff;fill-opacity:1;stroke-width:1.05277276"
         inkscape:export-filename="D:\ITIZO\Mobile App\Options\color4.png"
         inkscape:export-xdpi="96"
         inkscape:export-ydpi="96" />
      <path
         inkscape:export-ydpi="96"
         inkscape:export-xdpi="96"
         id="path1148"
         d="m 16.248944,242.02325 v 15.03681 h 6.623896 v -15.03681 z m 15.541175,0 v 6.32623 c 0,3.56032 0.92448,6.03188 2.772965,7.41453 1.882722,1.38265 5.100267,1.81454 9.653137,1.29605 v -6.0663 c -1.266586,0.0692 -2.32746,0.0863 -3.183254,0.0517 -0.855795,-0.0691 -1.5063,-0.31075 -1.951302,-0.72554 -0.445003,-0.41479 -0.667676,-1.0717 -0.667676,-1.97042 v -6.32623 z m 17.742587,0 v 15.03681 h 6.623367 v -15.03681 z m 20.003954,0 -7.543747,10.57765 v 4.45916 h 20.282481 v -6.27352 H 70.876113 l 6.2797,-8.76329 z"
         style="font-style:normal;font-variant:normal;font-weight:bold;font-stretch:normal;font-size:medium;line-height:32.24876785px;font-family:Gilroy-Bold;-inkscape-font-specification:'Gilroy-Bold Bold';letter-spacing:0.64888304px;word-spacing:0px;fill:#ffffff;fill-opacity:1;stroke:#ffffff;stroke-width:1.39273083;stroke-miterlimit:4;stroke-dasharray:none;stroke-opacity:1"
         inkscape:connector-curvature="0" />
      <path
         inkscape:export-ydpi="96"
         inkscape:export-xdpi="96"
         id="path1153"
         d="m 83.812782,242.02325 a 15.196739,15.189622 0 0 0 -0.05427,1.20974 15.196739,15.189622 0 0 0 9.553948,14.09062 c 0.044,-0.75357 0.0734,-1.3285 0.12297,-2.14871 0.25501,-4.18839 0.45943,-7.84293 0.45943,-8.12095 0,-0.66619 -0.15579,-0.95305 -0.64649,-1.22783 -0.529003,-0.29625 -0.760275,-0.52368 -1.151858,-1.12913 -0.52877,-0.81764 -0.7502,-1.50991 -0.772557,-2.67374 z m 14.199658,0 c -0.0138,0.52197 -0.043,0.98762 -0.0956,1.20354 -0.25789,1.05548 -0.88008,2.01923 -1.59369,2.46755 -0.2613,0.16412 -0.5334,0.35304 -0.6041,0.4191 -0.2609,0.24195 -0.29443,0.73685 -0.17674,2.62723 0.2258,3.63146 0.42505,6.91771 0.57155,9.40562 a 15.196739,15.189622 0 0 0 2.84065,0.27544 15.196739,15.189622 0 0 0 4.32014,-0.6382 c 0.1705,-2.90419 0.38547,-6.45196 0.55089,-9.03408 0.084,-1.31232 0.0921,-1.88322 0.0331,-2.15025 -0.081,-0.36318 -0.30168,-0.67792 -0.47646,-0.678 -0.24482,-1.5e-4 -1.06662,-0.46641 -1.49241,-0.84698 -0.35581,-0.318 -0.55332,-0.57659 -0.7829,-1.02577 -0.32975,-0.64475 -0.48117,-1.20969 -0.51316,-2.0252 z m 10.69443,0 c -0.007,0.0811 -0.0148,0.16248 -0.0254,0.24391 -0.22661,1.7637 -0.89593,2.80471 -2.18025,3.39049 -0.3366,0.15348 -0.66397,0.30304 -0.72657,0.33228 -0.2399,0.11119 -0.38169,0.53844 -0.38187,1.14929 -2.1e-4,0.32484 0.20791,4.03849 0.46302,8.2522 0.034,0.5642 0.0501,0.84275 0.0791,1.32757 a 15.196739,15.189622 0 0 0 8.21656,-13.48651 15.196739,15.189622 0 0 0 -0.0605,-1.20923 z"
         style="opacity:1;vector-effect:none;fill:#ffffff;fill-opacity:1;stroke:none;stroke-width:0.55709231;stroke-linecap:round;stroke-linejoin:miter;stroke-miterlimit:4;stroke-dasharray:none;stroke-dashoffset:0;stroke-opacity:1;paint-order:markers fill stroke"
         inkscape:connector-curvature="0" />
    </g>
  </g>
</svg>
