<?xml version="1.0" encoding="UTF-8" standalone="no"?>
<!-- Created with Inkscape (http://www.inkscape.org/) -->

<svg
   xmlns:dc="http://purl.org/dc/elements/1.1/"
   xmlns:cc="http://creativecommons.org/ns#"
   xmlns:rdf="http://www.w3.org/1999/02/22-rdf-syntax-ns#"
   xmlns:svg="http://www.w3.org/2000/svg"
   xmlns="http://www.w3.org/2000/svg"
   xmlns:sodipodi="http://sodipodi.sourceforge.net/DTD/sodipodi-0.dtd"
   xmlns:inkscape="http://www.inkscape.org/namespaces/inkscape"
   width="260"
   height="80"
   viewBox="0 0 68.791665 21.166666"
   version="1.1"
   id="svg8"
   inkscape:version="0.92.3 (2405546, 2018-03-11)"
   sodipodi:docname="logo.svg"
   inkscape:export-filename="D:\VB Infotech\logo-vbinfotech-final1.png"
   inkscape:export-xdpi="1000"
   inkscape:export-ydpi="1000">
  <defs
     id="defs2" />
  <sodipodi:namedview
     id="base"
     pagecolor="#ffffff"
     bordercolor="#666666"
     borderopacity="1.0"
     inkscape:pageopacity="0.0"
     inkscape:pageshadow="2"
     inkscape:zoom="3.1508396"
     inkscape:cx="115.14615"
     inkscape:cy="35.004429"
     inkscape:document-units="px"
     inkscape:current-layer="layer1"
     showgrid="false"
     showguides="true"
     inkscape:window-width="1600"
     inkscape:window-height="837"
     inkscape:window-x="-8"
     inkscape:window-y="-8"
     inkscape:window-maximized="1"
     units="px" />
  <metadata
     id="metadata5">
    <rdf:RDF>
      <cc:Work
         rdf:about="">
        <dc:format>image/svg+xml</dc:format>
        <dc:type
           rdf:resource="http://purl.org/dc/dcmitype/StillImage" />
        <dc:title />
      </cc:Work>
    </rdf:RDF>
  </metadata>
  <g
     inkscape:label="Layer 1"
     inkscape:groupmode="layer"
     id="layer1"
     transform="translate(-21.44031,-24.535301)">
    <path
       id="rect1815"
       d="m 32.845762,25.916803 c 5.097815,0 9.201832,4.104016 9.201832,9.201831 0,5.097814 -4.104017,9.201832 -9.201832,9.201832 -5.097814,0 -9.20183,-4.104018 -9.20183,-9.201832 0,-5.097815 4.104016,-9.201831 9.20183,-9.201831 z"
       style="opacity:1;fill:#1460bd;fill-opacity:1;stroke:none;stroke-width:0.1031694;stroke-linecap:butt;stroke-linejoin:round;stroke-miterlimit:4;stroke-dasharray:none;stroke-opacity:1;paint-order:markers fill stroke"
       inkscape:connector-curvature="0" />
    <g
       style="stroke-width:1.29390013"
       id="g911"
       transform="matrix(0.77285722,0,0,0.77285722,5.5257983,10.021796)">
      <path
         inkscape:connector-curvature="0"
         id="path1817"
         d="m 29.173408,33.80744 c -1.412904,-2.87377 -2.86244,-5.808772 -3.221185,-6.522226 l -0.652276,-1.297192 1.540357,0.03542 1.540352,0.03547 1.674561,3.453634 c 0.921012,1.899498 1.694047,3.473126 1.71786,3.496937 0.02381,0.02381 0.807044,-1.542769 1.740509,-3.481299 l 1.697214,-3.524591 1.54587,-0.0042 1.545869,-0.0042 -3.23157,6.466396 c -1.777363,3.556518 -3.253411,6.489762 -3.280099,6.518319 -0.02674,0.02861 -1.204557,-2.299347 -2.617462,-5.173115 z"
         style="fill:#ffffff;stroke-width:0.16325606" />
      <path
         sodipodi:nodetypes="ccccccsccscscccscccsscccscccc"
         inkscape:connector-curvature="0"
         d="m 42.78647,30.971781 c 1.277214,-0.590115 0.617715,-2.417296 -0.170548,-2.543657 H 41.06188 39.507841 v 1.348548 1.348544 h 1.470936 c 0.866884,0 1.609222,-0.06301 1.807693,-0.153435 z m 0.400068,5.337663 c 0.483994,-0.229675 0.816456,-0.745609 0.816456,-1.267015 0,-0.521411 -0.332462,-1.03734 -0.816456,-1.267009 -0.336783,-0.159816 -0.829003,-0.20997 -2.060587,-0.20997 h -1.61811 v 1.476979 1.476978 h 1.61811 c 1.231584,0 1.723804,-0.05014 2.060587,-0.209963 z m -6.504224,-3.825093 v -6.496454 h 3.076066 c 3.987678,0 4.858218,0.183269 5.762438,1.213117 1.142472,1.301203 0.94074,3.881516 -0.363696,4.652065 -0.210942,0.124604 -0.381977,0.257435 -0.380078,0.295185 0.002,0.03775 0.239455,0.213122 0.52789,0.389721 1.022452,0.625992 1.608077,1.85351 1.478004,3.097991 -0.155001,1.483001 -0.86238,2.409322 -2.266209,2.96765 -0.654247,0.260202 -0.969412,0.284494 -4.270402,0.329055 l -3.564013,0.04809 z"
         style="fill:#ffffff;stroke-width:0.16617954"
         id="path1819" />
    </g>
    <path
       inkscape:connector-curvature="0"
       id="path1944"
       style="font-style:normal;font-variant:normal;font-weight:normal;font-stretch:normal;font-size:4.99841642px;line-height:1.25;font-family:Gilroy-Medium;-inkscape-font-specification:Gilroy-Medium;letter-spacing:0.34311143px;word-spacing:0px;fill:#1460bd;fill-opacity:1;stroke:none;stroke-width:0.12081137"
       d="m 86.955187,40.702826 q 0,0.112914 0.111144,0.182999 0.111152,0.06619 0.268298,0.10902 0.157137,0.03893 0.314282,0.09345 0.157153,0.05061 0.268297,0.179106 0.111145,0.124595 0.111145,0.323167 0,0.264764 -0.20313,0.424402 -0.199305,0.159638 -0.513595,0.159638 -0.279797,0 -0.479094,-0.124596 -0.199304,-0.124594 -0.283631,-0.330955 l 0.287464,-0.167425 q 0.04599,0.14017 0.172471,0.221935 0.126486,0.08176 0.30279,0.08176 0.164812,0 0.272131,-0.06229 0.107311,-0.06619 0.107311,-0.202467 0,-0.112914 -0.111144,-0.179105 -0.111153,-0.07008 -0.268298,-0.109021 -0.157145,-0.04282 -0.314282,-0.09734 -0.157153,-0.05451 -0.268297,-0.179105 -0.111145,-0.124596 -0.111145,-0.319275 0,-0.253083 0.191638,-0.416614 0.195471,-0.163532 0.486761,-0.163532 0.233797,0 0.413934,0.10902 0.183979,0.105128 0.275964,0.295914 l -0.279789,0.159637 q -0.103494,-0.24919 -0.410109,-0.24919 -0.14182,0 -0.241464,0.07008 -0.09965,0.06619 -0.09965,0.190786 z m -1.318433,1.210908 q -0.27979,0.260871 -0.724391,0.260871 -0.44461,0 -0.728233,-0.260871 -0.279782,-0.264765 -0.279782,-0.704741 v -1.81052 h 0.356442 v 1.794946 q 0,0.288126 0.168645,0.459444 0.168638,0.167425 0.482928,0.167425 0.314282,0 0.482927,-0.167425 0.168638,-0.171318 0.168638,-0.459444 v -1.794946 h 0.352623 v 1.81052 q 0,0.439976 -0.279797,0.704741 z m -5.221278,-0.6074 q 0.04983,0.26087 0.233799,0.404933 0.187806,0.144062 0.459933,0.144062 0.379444,0 0.551919,-0.284231 l 0.283625,0.163531 q -0.279792,0.439976 -0.84321,0.439976 -0.456099,0 -0.743557,-0.288126 -0.283625,-0.29202 -0.283625,-0.735889 0,-0.439976 0.279792,-0.731996 0.279792,-0.292019 0.724394,-0.292019 0.421605,0 0.686066,0.3037 0.268294,0.299806 0.268294,0.724208 0,0.07398 -0.0115,0.151851 z m 0.66307,-0.860484 q -0.268294,0 -0.444602,0.155743 -0.176308,0.15185 -0.218468,0.408827 h 1.280146 Q 81.653463,40.733976 81.480987,40.589912 81.308512,40.44585 81.078546,40.44585 Z m -2.57929,0.256976 q 0,0.112914 0.111151,0.182999 0.11115,0.06619 0.268293,0.10902 0.157144,0.03893 0.314287,0.09345 0.157144,0.05061 0.268295,0.179106 0.11115,0.124595 0.11115,0.323167 0,0.264764 -0.203137,0.424402 -0.199304,0.159638 -0.513591,0.159638 -0.279793,0 -0.479097,-0.124596 -0.199304,-0.124594 -0.283624,-0.330955 l 0.287457,-0.167425 q 0.04599,0.14017 0.172475,0.221935 0.126481,0.08176 0.302789,0.08176 0.164809,0 0.272127,-0.06229 0.107317,-0.06619 0.107317,-0.202467 0,-0.112914 -0.11115,-0.179105 -0.111151,-0.07008 -0.268294,-0.109021 -0.157144,-0.04282 -0.314288,-0.09734 -0.157143,-0.05451 -0.268294,-0.179105 -0.11115,-0.124596 -0.11115,-0.319275 0,-0.253083 0.191638,-0.416614 0.195472,-0.163532 0.486763,-0.163532 0.233798,0 0.413939,0.10902 0.183973,0.105128 0.27596,0.295914 l -0.279793,0.159637 q -0.103484,-0.249191 -0.410106,-0.249191 -0.141813,0 -0.241465,0.07008 -0.09965,0.06619 -0.09965,0.190786 z m -1.193863,1.175866 q -0.295123,0.295913 -0.716728,0.295913 -0.421605,0 -0.716728,-0.295913 -0.29129,-0.295914 -0.29129,-0.728102 0,-0.432189 0.29129,-0.728102 0.295123,-0.295913 0.716728,-0.295913 0.421605,0 0.716728,0.295913 0.295124,0.295913 0.295124,0.728102 0,0.432188 -0.295124,0.728102 z m -0.716728,-0.03505 q 0.287459,0 0.48293,-0.198574 0.195471,-0.198572 0.195471,-0.494485 0,-0.295914 -0.195471,-0.494487 -0.195471,-0.198573 -0.48293,-0.198573 -0.283625,0 -0.479097,0.198573 -0.195471,0.198573 -0.195471,0.494487 0,0.295913 0.195471,0.494485 0.195472,0.198574 0.479097,0.198574 z m -1.852018,0.03505 q -0.295123,0.295913 -0.716728,0.295913 -0.421604,0 -0.716728,-0.295913 Q 73.0119,41.582778 73.0119,41.15059 q 0,-0.432189 0.291291,-0.728102 0.295124,-0.295913 0.716728,-0.295913 0.421605,0 0.716728,0.295913 0.295124,0.295913 0.295124,0.728102 0,0.432188 -0.295124,0.728102 z m -0.716728,-0.03505 q 0.287458,0 0.482929,-0.198574 0.195471,-0.198572 0.195471,-0.494485 0,-0.295914 -0.195471,-0.494487 -0.195471,-0.198573 -0.482929,-0.198573 -0.283624,0 -0.479096,0.198573 -0.195472,0.198573 -0.195472,0.494487 0,0.295913 0.195472,0.494485 0.195472,0.198574 0.479096,0.198574 z m -2.37286,-1.717068 q 0.337284,0 0.54042,0.218041 0.203138,0.214148 0.203138,0.584039 v 1.195332 h -0.333451 v -1.175865 q 0,-0.237508 -0.126482,-0.365997 -0.126481,-0.132382 -0.348782,-0.132382 -0.249131,0 -0.402441,0.159637 -0.153311,0.155744 -0.153311,0.482806 v 1.031801 h -0.333451 v -2.725514 h 0.333451 v 1.059057 q 0.203137,-0.330955 0.620909,-0.330955 z m -2.751644,2.04803 q -0.60941,0 -1.008018,-0.408828 -0.394775,-0.408827 -0.394775,-1.004547 0,-0.595719 0.394775,-1.004546 0.398608,-0.408828 1.008018,-0.408828 0.367946,0 0.674569,0.179105 0.310453,0.179106 0.482929,0.482806 l -0.310455,0.182999 q -0.114983,-0.225828 -0.344949,-0.358211 -0.226134,-0.136275 -0.502094,-0.136275 -0.463765,0 -0.758888,0.303699 -0.291291,0.303702 -0.291291,0.759251 0,0.451657 0.291291,0.755357 0.295123,0.303701 0.758888,0.303701 0.27596,0 0.502094,-0.132382 0.229966,-0.136277 0.344949,-0.358211 l 0.310455,0.179105 q -0.168642,0.3037 -0.479097,0.486699 -0.310455,0.179106 -0.678401,0.179106 z m -3.254767,-0.451658 -0.24913,0.946144 h -0.287459 l 0.153312,-0.946144 z m -1.970417,-1.596372 q 0.337284,0 0.540421,0.218041 0.203137,0.214148 0.203137,0.584039 v 1.195332 h -0.333451 v -1.175865 q 0,-0.237508 -0.126481,-0.365997 -0.126482,-0.132382 -0.348783,-0.132382 -0.24913,0 -0.402441,0.159637 -0.153311,0.155744 -0.153311,0.482806 v 1.031801 h -0.333451 v -2.725514 h 0.333451 v 1.059057 q 0.203137,-0.330955 0.620909,-0.330955 z m -2.405317,2.04803 q -0.433103,0 -0.720561,-0.292021 -0.287458,-0.295912 -0.287458,-0.731994 0,-0.436083 0.287458,-0.728102 0.287458,-0.295913 0.720561,-0.295913 0.283626,0 0.509759,0.140169 0.226133,0.136276 0.337284,0.369891 l -0.279792,0.163531 q -0.07283,-0.155744 -0.226134,-0.24919 -0.149478,-0.09345 -0.341117,-0.09345 -0.287457,0 -0.482929,0.198573 -0.191638,0.198573 -0.191638,0.494487 0,0.292018 0.191638,0.490593 0.195472,0.198572 0.482929,0.198572 0.191639,0 0.344949,-0.08955 0.153311,-0.09345 0.2338,-0.24919 l 0.283625,0.167424 q -0.122649,0.229722 -0.352615,0.369891 -0.229967,0.136277 -0.509759,0.136277 z m -3.160793,-0.868271 q 0.04983,0.26087 0.2338,0.404933 0.187805,0.144062 0.459933,0.144062 0.379444,0 0.551919,-0.284231 l 0.283626,0.163531 q -0.279793,0.439976 -0.843211,0.439976 -0.4561,0 -0.743558,-0.288126 -0.283625,-0.29202 -0.283625,-0.735889 0,-0.439976 0.279792,-0.731996 0.279792,-0.292019 0.724395,-0.292019 0.421604,0 0.686066,0.3037 0.268293,0.299806 0.268293,0.724208 0,0.07398 -0.01149,0.151851 z m 0.663071,-0.860484 q -0.268295,0 -0.444603,0.155743 -0.176307,0.15185 -0.218468,0.408827 h 1.280147 q -0.04216,-0.276444 -0.214636,-0.420508 -0.172474,-0.144062 -0.40244,-0.144062 z m -1.122656,-1.047377 v 0.342636 h -0.793383 v 2.382878 h -0.352616 v -2.382878 h -0.789551 v -0.342636 z m -3.546059,2.725514 h -0.413939 l -0.873872,-0.92278 v 0.92278 h -0.333452 v -2.725514 h 0.333452 v 1.639202 l 0.827879,-0.860483 h 0.42927 l -0.916032,0.942249 z m -3.09342,-1.997412 q 0.337285,0 0.540422,0.218041 0.203137,0.214148 0.203137,0.584039 v 1.195332 h -0.333451 v -1.175865 q 0,-0.237508 -0.126482,-0.365997 -0.126482,-0.132382 -0.348782,-0.132382 -0.249131,0 -0.402441,0.159637 -0.153311,0.155744 -0.153311,0.482806 v 1.031801 h -0.333451 v -1.946795 h 0.333451 v 0.280338 q 0.203137,-0.330955 0.620908,-0.330955 z m -1.894719,-0.303701 q -0.09582,0 -0.160976,-0.06619 -0.06515,-0.06619 -0.06515,-0.159638 0,-0.09345 0.06515,-0.159637 0.06515,-0.07008 0.160976,-0.07008 0.09199,0 0.157143,0.07008 0.06515,0.06619 0.06515,0.159637 0,0.09345 -0.06515,0.159638 -0.06515,0.06619 -0.157143,0.06619 z m -0.168642,2.301113 v -1.946795 h 0.333451 v 1.946795 z m -1.472157,-1.997412 q 0.337284,0 0.540421,0.218041 0.203137,0.214148 0.203137,0.584039 v 1.195332 h -0.333451 v -1.175865 q 0,-0.237508 -0.126482,-0.365997 -0.126481,-0.132382 -0.348781,-0.132382 -0.249131,0 -0.402441,0.159637 -0.153311,0.155744 -0.153311,0.482806 v 1.031801 h -0.333452 v -2.725514 h 0.333452 v 1.059057 q 0.203136,-0.330955 0.620908,-0.330955 z m -1.531983,-0.728102 v 0.342636 h -0.793384 v 2.382878 h -0.352615 v -2.382878 h -0.789551 v -0.342636 z" />
    <path
       inkscape:connector-curvature="0"
       id="path1907"
       style="font-style:normal;font-variant:normal;font-weight:normal;font-stretch:normal;font-size:medium;line-height:1.25;font-family:Renogare;-inkscape-font-specification:Renogare;letter-spacing:-0.98026645px;word-spacing:0px;fill:#4d4d4d;fill-opacity:1;stroke:none;stroke-width:0.37251282"
       d="m 85.52935,31.477261 c -0.564279,0 -1.266752,0.253351 -1.692843,0.679442 v -2.948088 h -1.715882 v 8.717589 h 1.715882 v -3.351148 c -0.03455,-1.381916 0.73702,-1.669815 1.209173,-1.669815 0.667927,0 1.232213,0.299415 1.232213,1.278273 v 3.74269 h 1.750421 v -3.74269 c 0,-1.646784 -0.667926,-2.706253 -2.498964,-2.706253 z m -6.997138,6.610166 c 1.451013,0 2.452902,-0.621862 3.063248,-1.865587 l -1.462528,-0.575798 c -0.403059,0.65641 -0.978857,0.921277 -1.60072,0.921277 -1.001889,0 -1.738911,-0.748537 -1.738911,-1.784975 0,-1.024921 0.725506,-1.784975 1.727396,-1.784975 0.621861,0 1.174628,0.310931 1.554655,0.944309 l 1.554656,-0.610346 c -0.644894,-1.186145 -1.773459,-1.842556 -3.109311,-1.842556 -1.888619,0 -3.443276,1.474045 -3.443276,3.293568 0,1.819523 1.566172,3.305083 3.454791,3.305083 z m -7.103664,0 c 1.854072,0 2.706253,-1.128565 2.959605,-1.474044 L 73.0523,35.841813 c -0.195771,0.218803 -0.667926,0.737022 -1.623752,0.737022 -0.345479,0 -1.520108,-0.11516 -1.727395,-1.151597 h 4.997931 c 0,0 0.03455,-0.310931 0.03455,-0.794601 -0.05758,-2.038327 -1.681332,-3.143861 -3.305083,-3.143861 -1.186145,0 -3.443276,0.690959 -3.443276,3.293568 0,2.602609 2.211067,3.305083 3.443276,3.305083 z m -0.01152,-5.090058 c 0.863698,0 1.42798,0.633378 1.497076,1.209177 h -3.166891 c 0.06909,-0.644895 0.679442,-1.209177 1.669815,-1.209177 z m -4.96763,0 h 1.266757 v -1.508593 h -1.266757 v -1.692847 h -1.704364 v 1.692847 h -0.77157 v 1.508593 h 0.77157 v 3.51237 c 0,1.335853 0.817634,1.577688 2.153486,1.577688 0.241836,0 0.564284,-0.02303 0.771571,-0.04606 v -1.451012 c -0.103644,0.01152 -0.241836,0.02303 -0.437607,0.02303 -0.77157,0 -0.783086,-0.598831 -0.783086,-0.94431 z m -6.225211,5.078542 c 1.888619,0 3.454791,-1.474044 3.454791,-3.305083 0,-1.808007 -1.566172,-3.293567 -3.454791,-3.293567 -1.888619,0 -3.431759,1.48556 -3.431759,3.293567 0,1.831039 1.54314,3.305083 3.431759,3.305083 z m 0,-5.090058 c 0.978858,0 1.738912,0.77157 1.738912,1.784975 0,1.024922 -0.760054,1.808007 -1.738912,1.808007 -0.990373,0 -1.738911,-0.760053 -1.738911,-1.808007 0,-1.00189 0.77157,-1.784975 1.738911,-1.784975 z m -4.610454,0.184255 h 1.140081 v -1.474044 h -1.140081 c 0,-0.426091 0.04606,-1.001889 0.817634,-1.082501 0.218803,-0.02303 0.449122,0 0.644894,0.05758 l 0.09213,-1.393433 c -0.276383,-0.06909 -0.541251,-0.103644 -0.760054,-0.103644 -1.531624,0 -2.464418,0.852182 -2.521997,2.521998 h -0.713991 v 1.474044 h 0.713991 v 4.756096 h 1.727395 z m -5.440325,-1.692847 c -0.564283,0 -1.266757,0.253351 -1.692848,0.679442 V 31.59242 h -1.715879 v 6.333784 h 1.715879 v -3.351148 c -0.03455,-1.381916 0.737022,-1.669815 1.209177,-1.669815 0.667926,0 1.220693,0.299415 1.220693,1.278273 v 3.74269 h 1.761943 v -3.74269 c 0,-1.646784 -0.667926,-2.706253 -2.498965,-2.706253 z m -4.259759,-1.48556 c 0,-0.506703 -0.426091,-0.921278 -0.944309,-0.921278 -0.529734,0 -0.967342,0.414575 -0.967342,0.921278 0,0.518218 0.437608,0.932793 0.967342,0.932793 0.518218,0 0.944309,-0.414575 0.944309,-0.932793 z m -1.808007,7.934503 h 1.727396 v -6.322267 h -1.727396 z" />
  </g>
</svg>
