<?xml version="1.0" encoding="UTF-8" standalone="no"?>
<!-- Created with Inkscape (http://www.inkscape.org/) -->

<svg
   xmlns:dc="http://purl.org/dc/elements/1.1/"
   xmlns:cc="http://creativecommons.org/ns#"
   xmlns:rdf="http://www.w3.org/1999/02/22-rdf-syntax-ns#"
   xmlns:svg="http://www.w3.org/2000/svg"
   xmlns="http://www.w3.org/2000/svg"
   xmlns:sodipodi="http://sodipodi.sourceforge.net/DTD/sodipodi-0.dtd"
   xmlns:inkscape="http://www.inkscape.org/namespaces/inkscape"
   width="512"
   height="512"
   viewBox="0 0 135.46666 135.46667"
   version="1.1"
   id="svg8"
   sodipodi:docname="logo-atmaspro.svg"
   inkscape:export-filename="D:\Mingoo Food\Mobile App\app-icon.png"
   inkscape:export-xdpi="96"
   inkscape:export-ydpi="96"
   inkscape:version="0.92.3 (2405546, 2018-03-11)">
  <defs
     id="defs2">
    <clipPath
       id="clipPath842"
       clipPathUnits="userSpaceOnUse">
      <path
         inkscape:connector-curvature="0"
         id="path840"
         d="M 0,576 H 576 V 0 H 0 Z" />
    </clipPath>
  </defs>
  <sodipodi:namedview
     id="base"
     pagecolor="#ffffff"
     bordercolor="#666666"
     borderopacity="1.0"
     inkscape:pageopacity="0.0"
     inkscape:pageshadow="2"
     inkscape:zoom="0.84500984"
     inkscape:cx="213.2674"
     inkscape:cy="195.91231"
     inkscape:document-units="px"
     inkscape:current-layer="layer1"
     showgrid="false"
     units="px"
     inkscape:window-width="1600"
     inkscape:window-height="837"
     inkscape:window-x="-8"
     inkscape:window-y="-8"
     inkscape:window-maximized="1"
     showguides="true" />
  <metadata
     id="metadata5">
    <rdf:RDF>
      <cc:Work
         rdf:about="">
        <dc:format>image/svg+xml</dc:format>
        <dc:type
           rdf:resource="http://purl.org/dc/dcmitype/StillImage" />
        <dc:title />
      </cc:Work>
    </rdf:RDF>
  </metadata>
  <g
     inkscape:label="Layer 1"
     inkscape:groupmode="layer"
     id="layer1"
     transform="translate(0,-161.53332)">
    <path
       style="opacity:0;fill:#ed0302;fill-opacity:1;stroke:none;stroke-width:0.52916658;stroke-linecap:round;stroke-linejoin:miter;stroke-miterlimit:4;stroke-dasharray:none;stroke-opacity:1;paint-order:normal"
       d="m 26.458335,161.53333 h 82.549995 c 14.65792,0 26.45833,11.80041 26.45833,26.45833 v 82.54999 c 0,14.65792 -11.80041,26.45833 -26.45833,26.45833 H 26.458335 C 11.800419,296.99998 2.7270507e-6,285.19957 2.7270507e-6,270.54165 V 187.99166 C 2.7270507e-6,173.33374 11.800419,161.53333 26.458335,161.53333 Z"
       id="rect872" />
    <path
       style="fill:#ffffff;fill-opacity:1;stroke-width:1"
       d="m 65.726233,279.59596 c -0.327208,-0.0331 -1.665806,-0.16488 -2.974659,-0.29286 -4.883551,-0.47756 -8.895021,-1.44747 -13.757757,-3.32639 -0.936225,-0.36175 -0.92398,-0.35638 -2.861172,-1.25296 -7.487379,-3.46535 -14.760094,-9.62938 -19.66959,-16.67106 -3.260276,-4.67618 -5.929368,-10.39738 -7.289777,-15.6256 -1.226479,-4.71347 -1.710779,-8.45466 -1.710779,-13.21546 0,-3.57201 0.272365,-6.45953 0.913957,-9.68935 1.321041,-6.65026 3.765572,-12.56629 7.514044,-18.1848 1.938684,-2.90585 3.518619,-4.82825 6.147792,-7.48037 8.987028,-9.06545 20.029535,-14.02155 33.130196,-14.86949 3.422869,-0.22155 7.009499,0.005 11.643951,0.73359 3.434668,0.54042 8.761821,2.27458 12.526757,4.07789 5.349439,2.56226 9.63276,5.60919 13.942624,9.91806 4.18533,4.18438 6.7994,7.80932 9.49336,13.16449 3.52949,7.0161 5.23328,14.32643 5.22898,22.43568 -0.005,8.08025 -1.69651,15.25151 -5.29526,22.4402 -6.26617,12.517 -17.431029,21.88849 -30.696446,25.76579 -3.237448,0.94628 -5.56396,1.38276 -9.890726,1.85566 -1.652658,0.18064 -5.473225,0.31025 -6.395495,0.21698 z m 18.186553,-36.14916 0.04114,-2.10369 0.702497,0.21804 c 1.759742,0.54614 3.974116,0.17224 5.159526,-0.87119 2.141471,-1.885 2.24067,-6.28969 0.187881,-8.34248 -1.4172,-1.4172 -4.297097,-1.75632 -6.50407,-0.76589 -1.522945,0.68345 -1.406817,0.11259 -1.456398,7.1592 -0.05025,7.13879 -0.08417,6.93295 1.130291,6.85467 l 0.697937,-0.045 z m 1.065634,-3.31735 c -1.094846,-0.33223 -1.032441,-0.10692 -1.032441,-3.72744 v -3.26307 l 0.476663,-0.24649 c 0.262152,-0.13556 0.881258,-0.2786 1.375771,-0.31787 2.2817,-0.18114 3.580331,0.95642 3.756442,3.29054 0.21281,2.82062 -0.986423,4.41401 -3.30352,4.38931 -0.490818,-0.005 -1.06363,-0.0614 -1.272915,-0.12498 z m -55.741688,1.56185 c 1.080055,-0.22891 1.764654,-0.53266 2.214536,-0.98253 0.269648,-0.26966 0.28956,-0.51814 0.28956,-3.61385 0,-3.41453 -0.0703,-3.94406 -0.630734,-4.74857 -0.662558,-0.95118 -2.612861,-1.491 -4.574905,-1.26629 -1.796992,0.20581 -2.744189,0.75592 -2.651156,1.53971 0.07885,0.66439 0.423168,0.76139 1.333886,0.37579 1.140703,-0.48298 2.992044,-0.58178 3.696991,-0.19731 0.614014,0.33489 1.040573,1.08709 1.040896,1.83554 l 2.28e-4,0.53572 -1.821976,0.18358 c -3.456746,0.34832 -4.487107,0.89909 -4.868883,2.60262 -0.191245,0.8534 0.02308,1.90153 0.522652,2.55657 0.883158,1.15789 3.191772,1.65742 5.448905,1.17902 z m -3.240212,-1.62747 c -1.332508,-0.60023 -1.248186,-2.45471 0.131983,-2.90258 0.461292,-0.14968 2.796078,-0.4566 3.492884,-0.45914 0.325926,-9e-4 0.334647,0.0396 0.334647,1.56415 v 1.56538 l -0.409013,0.17225 c -0.637317,0.2684 -2.999207,0.30827 -3.550501,0.0599 z m 13.304379,1.6855 c 0.96996,-0.20803 1.478371,-0.72489 1.273903,-1.2951 -0.113326,-0.31608 -0.227421,-0.39657 -0.511328,-0.36079 -0.201001,0.0253 -0.85633,0.0588 -1.456303,0.0744 -1.027016,0.0267 -1.11187,0.004 -1.450137,-0.38901 -0.355765,-0.41321 -0.359299,-0.44867 -0.359299,-3.60677 v -3.18945 h 1.788479 c 1.770848,0 1.789867,-0.004 1.92984,-0.37183 0.0893,-0.23498 0.0893,-0.50869 0,-0.74368 -0.139973,-0.36815 -0.158992,-0.37183 -1.92984,-0.37183 h -1.788479 v -1.38453 c 0,-1.70355 -0.141132,-1.96295 -1.048287,-1.92677 -0.348327,0.0138 -0.69502,0.087 -0.770431,0.16236 -0.08056,0.0805 -0.117183,2.46041 -0.08873,5.77037 0.04665,5.429 0.05994,5.65486 0.36764,6.22934 0.374129,0.69847 1.234335,1.23588 2.253058,1.40759 0.999638,0.1685 0.984229,0.16853 1.789962,-0.005 z m 28.106492,-0.28861 c 0.486467,-0.16888 1.021478,-0.48593 1.256309,-0.74453 l 0.409013,-0.45041 v -3.09404 c 0,-3.53886 -0.136924,-4.2833 -0.9255,-5.03178 -0.915277,-0.86875 -1.678061,-1.11284 -3.4521,-1.10472 -1.464273,0.006 -2.66969,0.34524 -3.232223,0.9078 -0.495368,0.49536 -0.510587,0.59938 -0.152399,1.04174 l 0.269344,0.33263 1.131421,-0.39052 c 1.312368,-0.45297 2.499374,-0.50514 3.389515,-0.14898 0.699979,0.28008 1.010914,0.77737 1.071096,1.71306 l 0.0417,0.64823 -1.784793,0.19928 c -3.049519,0.34051 -4.044559,0.7586 -4.647894,1.95288 -0.721896,1.42896 -0.169414,3.25007 1.207583,3.98046 1.273085,0.67528 3.767348,0.76224 5.418933,0.1889 z m -3.986437,-1.35734 c -0.734797,-0.29301 -1.0412,-0.72529 -1.0412,-1.46897 0,-0.75394 0.312331,-1.18354 1.068797,-1.47011 0.415369,-0.15736 3.521831,-0.53307 3.617391,-0.43751 0.02992,0.03 0.06973,0.7224 0.08835,1.53879 l 0.03392,1.48433 -0.507841,0.26006 c -0.571501,0.29263 -2.612985,0.35114 -3.259336,0.0934 z m 13.180803,1.64036 c 1.793458,-0.31232 2.882243,-1.43653 2.882243,-2.97604 0,-1.65108 -1.14436,-2.66945 -3.689049,-3.28293 -1.713791,-0.41316 -2.260259,-0.78928 -2.260259,-1.55575 0,-1.37725 2.345664,-1.86913 4.268008,-0.895 0.734188,0.37204 0.760855,0.3748 1.005793,0.10415 0.390536,-0.43154 0.239723,-1.05579 -0.350901,-1.45251 -0.717478,-0.48192 -1.477526,-0.65147 -2.920253,-0.65147 -2.42516,0 -3.787441,1.0521 -3.787441,2.92507 0,1.55492 0.769966,2.2347 3.358231,2.96497 2.05372,0.57945 2.482911,0.89896 2.482911,1.84846 0,1.10052 -0.820411,1.57133 -2.566273,1.47268 -0.773652,-0.0437 -1.230279,-0.17013 -1.943748,-0.53808 -0.876261,-0.45193 -0.94905,-0.46601 -1.206196,-0.23329 -0.42008,0.38016 -0.346721,1.00602 0.168768,1.43977 0.507366,0.42691 1.209701,0.6854 2.294573,0.84448 1.118682,0.16402 1.242961,0.16323 2.263593,-0.0146 z m 32.541333,-0.29129 c 0.92705,-0.34685 2.03109,-1.41947 2.45783,-2.38789 0.42842,-0.9722 0.60996,-2.46248 0.44331,-3.63921 -0.38699,-2.73266 -2.25165,-4.39489 -4.93012,-4.39489 -1.14572,0 -1.60746,0.10123 -2.50374,0.54888 -2.36355,1.18049 -3.29837,4.61942 -2.04669,7.52903 0.34735,0.80746 1.50903,1.96538 2.30569,2.29823 1.3229,0.55275 2.87443,0.56939 4.27372,0.0458 z m -3.40777,-1.40784 c -1.10811,-0.59626 -1.66473,-1.5445 -1.80815,-3.08029 -0.24432,-2.61635 1.04035,-4.42142 3.14673,-4.42142 1.52024,0 2.50997,0.81018 2.98052,2.43979 0.51783,1.79332 0.0286,3.77881 -1.17012,4.74902 -0.49749,0.40264 -0.70052,0.46551 -1.6354,0.50636 -0.77115,0.0336 -1.19123,-0.0201 -1.51358,-0.19346 z m -60.792199,-2.68513 0.03943,-4.17524 0.555475,-0.27007 c 0.30551,-0.14852 1.023986,-0.30074 1.596598,-0.33826 0.916028,-0.0601 1.103425,-0.0257 1.55953,0.28524 0.863255,0.58859 0.88996,0.72874 0.892373,4.68434 0.0019,4.13639 -0.0048,4.11011 1.172908,4.03381 l 0.688436,-0.0445 0.0095,-4.07172 0.0095,-4.07172 0.362444,-0.25663 c 1.253791,-0.8877 3.300177,-0.76485 3.957643,0.23759 0.2413,0.36793 0.277353,0.83295 0.320825,4.13873 0.03135,2.38358 0.106979,3.79411 0.210073,3.91834 0.101137,0.12186 0.415036,0.1776 0.84342,0.14976 l 0.682318,-0.0443 0.03971,-3.84175 c 0.04266,-4.12413 -0.02736,-4.70524 -0.657267,-5.4538 -1.126253,-1.33848 -3.91628,-1.62898 -5.807445,-0.60468 l -0.802569,0.43469 -0.699466,-0.43358 c -1.306668,-0.80998 -3.512616,-0.82732 -5.263903,-0.0414 -1.514756,0.6798 -1.459228,0.47452 -1.459228,5.39448 0,3.20293 0.04607,4.3095 0.185136,4.44858 0.108452,0.10846 0.462707,0.16699 0.855218,0.1413 l 0.670064,-0.0438 z m 51.015303,-0.0133 0.03945,-4.1885 0.704185,-0.25721 c 0.444633,-0.16242 1.247772,-0.27255 2.178971,-0.29885 1.59127,-0.045 1.83979,-0.17451 1.66559,-0.86858 -0.12027,-0.47917 -0.739575,-0.70508 -1.922624,-0.70134 -1.895436,0.005 -3.548744,0.5635 -4.180762,1.40981 -0.29563,0.39586 -0.309101,0.59398 -0.309101,4.54463 0,4.72954 -0.01539,4.66553 1.102465,4.59287 l 0.682327,-0.0443 0.03945,-4.18849 z M 54.720018,222.93393 c 3.040351,-0.32545 7.552025,-1.66467 10.724721,-3.18344 3.44565,-1.64943 5.675661,-3.2114 8.164775,-5.71884 3.936733,-3.96573 6.262609,-8.68574 7.408556,-15.0345 0.502749,-2.78532 0.685938,-8.99833 0.265316,-8.99833 -0.05985,0 -0.193097,0.45178 -0.296191,1.00394 -0.224941,1.20485 -0.976344,3.59917 -1.388615,4.4248 -1.056125,2.11505 -3.157914,4.50278 -5.022755,5.70612 -1.117846,0.72132 -3.076622,1.54178 -4.685077,1.96244 -1.228758,0.32135 -1.631511,0.34978 -4.908184,0.34656 -4.158198,-0.004 -4.575666,-0.0613 -9.559841,-1.30976 -0.513351,-0.1286 -1.843959,-0.53803 -2.956903,-0.90986 -2.663031,-0.88972 -2.877446,-0.8161 -1.092282,0.37497 3.715213,2.47882 7.072845,5.98359 8.305708,8.66969 1.99196,4.33993 0.101403,8.46835 -5.442607,11.885 -1.261819,0.77763 -1.535295,1.09755 -0.818026,0.95693 0.22495,-0.0441 0.810587,-0.12318 1.301405,-0.17572 z m 15.009221,-24.46535 c 1.155228,-0.43222 2.27106,-1.48338 2.790463,-2.62875 0.536408,-1.18285 0.581163,-2.72208 0.115349,-3.96709 -0.406144,-1.0855 -1.458516,-2.18857 -2.595571,-2.7206 -0.764854,-0.35788 -1.073082,-0.4165 -2.156623,-0.41022 -1.116716,0.006 -1.368352,0.0614 -2.156624,0.47034 -1.121807,0.58205 -1.883669,1.36657 -2.377593,2.44833 -0.665475,1.45744 -0.638353,3.01502 0.07723,4.43627 0.514311,1.02145 1.917831,2.19789 2.990353,2.50652 0.89584,0.2578 2.430584,0.19534 3.312973,-0.1348 z"
       id="path847"
       inkscape:connector-curvature="0" />
  </g>
</svg>
