<?xml version="1.0" encoding="UTF-8" standalone="no"?>
<!-- Created with Inkscape (http://www.inkscape.org/) -->

<svg
   xmlns:dc="http://purl.org/dc/elements/1.1/"
   xmlns:cc="http://creativecommons.org/ns#"
   xmlns:rdf="http://www.w3.org/1999/02/22-rdf-syntax-ns#"
   xmlns:svg="http://www.w3.org/2000/svg"
   xmlns="http://www.w3.org/2000/svg"
   xmlns:sodipodi="http://sodipodi.sourceforge.net/DTD/sodipodi-0.dtd"
   xmlns:inkscape="http://www.inkscape.org/namespaces/inkscape"
   width="512"
   height="512"
   viewBox="0 0 135.46666 135.46667"
   version="1.1"
   id="svg8"
   sodipodi:docname="logo-bonitaabeauty.svg"
   inkscape:export-filename="D:\Mingoo Food\Mobile App\app-icon.png"
   inkscape:export-xdpi="96"
   inkscape:export-ydpi="96"
   inkscape:version="0.92.3 (2405546, 2018-03-11)">
  <defs
     id="defs2">
    <clipPath
       id="clipPath842"
       clipPathUnits="userSpaceOnUse">
      <path
         inkscape:connector-curvature="0"
         id="path840"
         d="M 0,576 H 576 V 0 H 0 Z" />
    </clipPath>
  </defs>
  <sodipodi:namedview
     id="base"
     pagecolor="#ffffff"
     bordercolor="#666666"
     borderopacity="1.0"
     inkscape:pageopacity="0.0"
     inkscape:pageshadow="2"
     inkscape:zoom="1.1278699"
     inkscape:cx="306.03753"
     inkscape:cy="236.28658"
     inkscape:document-units="px"
     inkscape:current-layer="layer1"
     showgrid="false"
     units="px"
     inkscape:window-width="1600"
     inkscape:window-height="837"
     inkscape:window-x="-8"
     inkscape:window-y="-8"
     inkscape:window-maximized="1"
     showguides="false" />
  <metadata
     id="metadata5">
    <rdf:RDF>
      <cc:Work
         rdf:about="">
        <dc:format>image/svg+xml</dc:format>
        <dc:type
           rdf:resource="http://purl.org/dc/dcmitype/StillImage" />
        <dc:title />
      </cc:Work>
    </rdf:RDF>
  </metadata>
  <g
     inkscape:label="Layer 1"
     inkscape:groupmode="layer"
     id="layer1"
     transform="translate(0,-161.53332)">
    <path
       style="opacity:0;fill:#ed0302;fill-opacity:1;stroke:none;stroke-width:0.52916658;stroke-linecap:round;stroke-linejoin:miter;stroke-miterlimit:4;stroke-dasharray:none;stroke-opacity:1;paint-order:normal"
       d="m 26.458335,161.53333 h 82.549995 c 14.65792,0 26.45833,11.80041 26.45833,26.45833 v 82.54999 c 0,14.65792 -11.80041,26.45833 -26.45833,26.45833 H 26.458335 C 11.800419,296.99998 2.7270507e-6,285.19957 2.7270507e-6,270.54165 V 187.99166 C 2.7270507e-6,173.33374 11.800419,161.53333 26.458335,161.53333 Z"
       id="rect872" />
    <g
       id="g881"
       transform="matrix(0.88267934,0,0,0.8811965,7.9340718,27.253161)"
       style="stroke-width:1.13386703">
      <g
         id="text4975"
         style="font-style:normal;font-variant:normal;font-weight:normal;font-stretch:normal;font-size:32.53913498px;line-height:20.33695602px;font-family:'eurofurence light';-inkscape-font-specification:'eurofurence light, ';letter-spacing:0px;word-spacing:0px;fill:#ffffff;fill-opacity:1;stroke:#ffffff;stroke-width:1.93208539;stroke-miterlimit:4;stroke-dasharray:none;stroke-opacity:1"
         transform="matrix(0.46738847,0,0,0.4642598,35.926693,120.07227)"
         aria-label="BonitaA Beauty">
        <path
           id="path853"
           style="font-style:normal;font-variant:normal;font-weight:bold;font-stretch:normal;font-family:'Rounded Elegance';-inkscape-font-specification:'Rounded Elegance Bold';fill:#ffffff;fill-opacity:1;stroke:#ffffff;stroke-width:1.93208539;stroke-miterlimit:4;stroke-dasharray:none;stroke-opacity:1"
           d="m -52.80509,210.20277 h 7.483365 q 2.796332,0 4.305716,0.66731 1.509384,0.66731 2.367349,2.04958 0.873854,1.38228 0.873854,3.05055 0,1.57293 -0.778524,2.85988 -0.762636,1.28695 -2.256132,2.08136 1.858925,0.63553 2.843997,1.47761 0.985071,0.82619 1.54116,2.01781 0.556089,1.19162 0.556089,2.58978 0,2.844 -2.081361,4.81414 -2.081361,1.95426 -5.560887,1.95426 h -9.294626 z m 2.303796,2.3038 v 7.54692 h 4.17861 q 2.44679,0 3.590744,-0.46076 1.159842,-0.46076 1.827149,-1.42994 0.683194,-0.98508 0.683194,-2.19258 0,-1.6206 -1.128065,-2.54212 -1.128066,-0.92152 -3.590745,-0.92152 z m 0,9.91427 v 9.04041 h 5.751546 q 2.573897,0 3.765515,-0.50842 1.207507,-0.50843 1.938367,-1.57294 0.730859,-1.06451 0.730859,-2.33557 0,-1.55705 -1.032736,-2.73278 -1.016848,-1.17573 -2.81222,-1.60471 -1.207507,-0.28599 -4.17861,-0.28599 z"
           inkscape:connector-curvature="0" />
        <path
           id="path855"
           style="font-style:normal;font-variant:normal;font-weight:bold;font-stretch:normal;font-family:'Rounded Elegance';-inkscape-font-specification:'Rounded Elegance Bold';fill:#ffffff;fill-opacity:1;stroke:#ffffff;stroke-width:1.93208539;stroke-miterlimit:4;stroke-dasharray:none;stroke-opacity:1"
           d="m -23.729594,215.573 q 4.019727,0 6.673065,2.90755 2.399125,2.66923 2.399125,6.30764 0,3.6384 -2.54212,6.37118 -2.54212,2.71689 -6.53007,2.71689 -4.003839,0 -6.545959,-2.71689 -2.526232,-2.73278 -2.526232,-6.37118 0,-3.62253 2.399126,-6.29175 2.653338,-2.92344 6.673065,-2.92344 z m 0,2.19258 q -2.780444,0 -4.782363,2.06547 -2.00192,2.06547 -2.00192,4.98891 0,1.8907 0.905631,3.54308 0.921518,1.63649 2.478566,2.52623 1.557049,0.87386 3.400086,0.87386 1.874813,0 3.415973,-0.87386 1.557049,-0.88974 2.462679,-2.52623 0.90563,-1.65238 0.90563,-3.54308 0,-2.92344 -2.001919,-4.98891 -2.00192,-2.06547 -4.782363,-2.06547 z"
           inkscape:connector-curvature="0" />
        <path
           id="path857"
           style="font-style:normal;font-variant:normal;font-weight:bold;font-stretch:normal;font-family:'Rounded Elegance';-inkscape-font-specification:'Rounded Elegance Bold';fill:#ffffff;fill-opacity:1;stroke:#ffffff;stroke-width:1.93208539;stroke-miterlimit:4;stroke-dasharray:none;stroke-opacity:1"
           d="m -10.558237,227.25086 -0.03178,-1.85892 q -0.04767,-1.36639 0.111218,-2.31969 0.349541,-3.00287 1.5252719,-4.40104 1.143954,-1.2234 2.3355727,-1.8907 1.9701429,-0.84208 4.4963746,-0.79441 1.97014295,0 3.6384091,1.00096 1.6841545,0.98507 2.3991257,2.66922 0.7149712,1.66827 0.7149712,5.24312 v 8.96098 H 2.4065743 v -8.30956 q 0,-3.01877 -0.254212,-4.03561 -0.3972062,-1.73182 -1.57293668,-2.44679 -1.17573046,-0.73086 -3.47952662,-0.73086 -2.033696,0 -3.6225209,1.17573 -1.588825,1.17573 -1.4776072,3.20942 -0.3018767,1.30284 -0.3018767,4.75059 v 6.38708 h -2.2561312 z"
           inkscape:connector-curvature="0" />
        <path
           id="path859"
           style="font-style:normal;font-variant:normal;font-weight:bold;font-stretch:normal;font-family:'Rounded Elegance';-inkscape-font-specification:'Rounded Elegance Bold';fill:#ffffff;fill-opacity:1;stroke:#ffffff;stroke-width:1.93208539;stroke-miterlimit:4;stroke-dasharray:none;stroke-opacity:1"
           d="m 10.191818,209.26537 q 0.762636,0 1.302836,0.5402 0.556089,0.5402 0.556089,1.30283 0,0.76264 -0.556089,1.31873 -0.5402,0.5402 -1.302836,0.5402 -0.7626361,0 -1.3028366,-0.5402 -0.5402004,-0.55609 -0.5402004,-1.31873 0,-0.76263 0.5402004,-1.30283 0.5402005,-0.5402 1.3028366,-0.5402 z m -1.1121776,7.1656 h 2.2402436 v 17.42941 H 9.0796404 Z"
           inkscape:connector-curvature="0" />
        <path
           id="path861"
           style="font-style:normal;font-variant:normal;font-weight:bold;font-stretch:normal;font-family:'Rounded Elegance';-inkscape-font-specification:'Rounded Elegance Bold';fill:#ffffff;fill-opacity:1;stroke:#ffffff;stroke-width:1.93208539;stroke-miterlimit:4;stroke-dasharray:none;stroke-opacity:1"
           d="m 22.235112,231.3977 q -1.652378,0.88974 -3.241203,0.14299 -1.938367,-1.47761 -1.843037,-4.21038 v -7.37215 h 4.130945 v -1.92248 h -4.146833 v -8.42077 h -2.256132 v 18.09671 q -0.03178,1.90659 0.873854,3.49542 1.493495,2.52623 4.067392,2.66922 1.366389,0.0477 3.114097,-0.61964 -0.270101,-0.6673 -0.699083,-1.85892 z"
           inkscape:connector-curvature="0" />
        <path
           id="path863"
           style="font-style:normal;font-variant:normal;font-weight:bold;font-stretch:normal;font-family:'Rounded Elegance';-inkscape-font-specification:'Rounded Elegance Bold';fill:#ffffff;fill-opacity:1;stroke:#ffffff;stroke-width:1.93208539;stroke-miterlimit:4;stroke-dasharray:none;stroke-opacity:1"
           d="m 34.739163,215.573 q 4.019728,0 6.673065,2.90755 2.446791,2.65334 2.446791,6.30764 0.03178,9.02452 0,9.16752 -1.525272,0 -2.36735,0 0,-0.11122 0,-3.95618 -1.858925,3.46364 -6.752506,3.87673 -4.003838,0 -6.545958,-2.71689 -2.526232,-2.73278 -2.526232,-6.37118 0,-3.62253 2.399126,-6.29175 2.653337,-2.92344 6.673064,-2.92344 z m 0,2.19258 q -2.780443,0 -4.782363,2.06547 -2.001919,2.06547 -2.001919,4.98891 0,1.8907 1.016848,3.63841 1.032736,1.74771 3.479527,2.95522 6.132864,1.36639 8.722648,-5.57678 0.142995,-2.22435 -0.476647,-4.25805 -0.444871,-0.92152 -1.223395,-1.74771 -1.954255,-2.06547 -4.734699,-2.06547 z"
           inkscape:connector-curvature="0" />
        <path
           id="path865"
           style="font-style:normal;font-variant:normal;font-weight:bold;font-stretch:normal;font-family:'Rounded Elegance';-inkscape-font-specification:'Rounded Elegance Bold';fill:#ffffff;fill-opacity:1;stroke:#ffffff;stroke-width:1.93208539;stroke-miterlimit:4;stroke-dasharray:none;stroke-opacity:1"
           d="m 58.237882,210.20277 10.97878,23.56228 h -2.510343 l -3.701962,-7.76936 h -10.16848 l -3.670186,7.76936 h -2.637449 l 11.137663,-23.56228 z m -0.285989,4.98891 -4.067392,8.54788 h 8.071231 z"
           inkscape:connector-curvature="0" />
        <path
           id="path867"
           style="font-style:normal;font-variant:normal;font-weight:bold;font-stretch:normal;font-family:'Rounded Elegance';-inkscape-font-specification:'Rounded Elegance Bold';fill:#ffffff;fill-opacity:1;stroke:#ffffff;stroke-width:1.93208539;stroke-miterlimit:4;stroke-dasharray:none;stroke-opacity:1"
           d="m 79.448694,210.20277 h 7.483365 q 2.796332,0 4.305716,0.66731 1.509384,0.66731 2.367349,2.04958 0.873854,1.38228 0.873854,3.05055 0,1.57293 -0.778524,2.85988 -0.762636,1.28695 -2.256132,2.08136 1.858925,0.63553 2.843997,1.47761 0.985071,0.82619 1.54116,2.01781 0.556089,1.19162 0.556089,2.58978 0,2.844 -2.081361,4.81414 -2.08136,1.95426 -5.560887,1.95426 h -9.294626 z m 2.303796,2.3038 v 7.54692 h 4.17861 q 2.44679,0 3.590744,-0.46076 1.159842,-0.46076 1.827149,-1.42994 0.683195,-0.98508 0.683195,-2.19258 0,-1.6206 -1.128066,-2.54212 -1.128066,-0.92152 -3.590745,-0.92152 z m 0,9.91427 v 9.04041 h 5.751546 q 2.573897,0 3.765516,-0.50842 1.207507,-0.50843 1.938366,-1.57294 0.730859,-1.06451 0.730859,-2.33557 0,-1.55705 -1.032736,-2.73278 -1.016848,-1.17573 -2.81222,-1.60471 -1.207507,-0.28599 -4.17861,-0.28599 z"
           inkscape:connector-curvature="0" />
        <path
           id="path869"
           style="font-style:normal;font-variant:normal;font-weight:bold;font-stretch:normal;font-family:'Rounded Elegance';-inkscape-font-specification:'Rounded Elegance Bold';fill:#ffffff;fill-opacity:1;stroke:#ffffff;stroke-width:1.93208539;stroke-miterlimit:4;stroke-dasharray:none;stroke-opacity:1"
           d="m 114.95893,227.66396 1.87481,1.00096 q -0.90563,1.82715 -2.12902,2.93932 -1.2234,1.11218 -2.74867,1.70005 -1.52527,0.57197 -3.44775,0.57197 -4.25805,0 -6.65717,-2.78044 -2.39913,-2.79633 -2.39913,-6.30763 0,-3.32065 2.0337,-5.91043 2.57389,-3.30476 6.91138,-3.30476 4.43283,0 7.10205,3.3842 1.8907,2.38324 1.90659,5.9422 H 101.7558 q 0.0636,3.05055 1.93836,5.0048 1.87482,1.93837 4.62348,1.93837 1.33462,0 2.58979,-0.46076 1.25517,-0.47665 2.12902,-1.23928 0.88974,-0.76264 1.92248,-2.47857 z m 0,-4.68703 q -0.44487,-1.79538 -1.30284,-2.85989 -0.85796,-1.0804 -2.27202,-1.73182 -1.41405,-0.66731 -2.9711,-0.66731 -2.55801,0 -4.40104,1.65238 -1.33462,1.20751 -2.01781,3.60664 z"
           inkscape:connector-curvature="0" />
        <path
           id="path871"
           style="font-style:normal;font-variant:normal;font-weight:bold;font-stretch:normal;font-family:'Rounded Elegance';-inkscape-font-specification:'Rounded Elegance Bold';fill:#ffffff;fill-opacity:1;stroke:#ffffff;stroke-width:1.93208539;stroke-miterlimit:4;stroke-dasharray:none;stroke-opacity:1"
           d="m 129.81444,215.573 q 4.01973,0 6.67307,2.90755 2.44679,2.65334 2.44679,6.30764 0.0318,9.02452 0,9.16752 -1.52527,0 -2.36735,0 0,-0.11122 0,-3.95618 -1.85893,3.46364 -6.75251,3.87673 -4.00384,0 -6.54596,-2.71689 -2.52623,-2.73278 -2.52623,-6.37118 0,-3.62253 2.39913,-6.29175 2.65334,-2.92344 6.67306,-2.92344 z m 0,2.19258 q -2.78044,0 -4.78236,2.06547 -2.00192,2.06547 -2.00192,4.98891 0,1.8907 1.01685,3.63841 1.03273,1.74771 3.47952,2.95522 6.13287,1.36639 8.72265,-5.57678 0.143,-2.22435 -0.47664,-4.25805 -0.44487,-0.92152 -1.2234,-1.74771 -1.95425,-2.06547 -4.7347,-2.06547 z"
           inkscape:connector-curvature="0" />
        <path
           id="path873"
           style="font-style:normal;font-variant:normal;font-weight:bold;font-stretch:normal;font-family:'Rounded Elegance';-inkscape-font-specification:'Rounded Elegance Bold';fill:#ffffff;fill-opacity:1;stroke:#ffffff;stroke-width:1.93208539;stroke-miterlimit:4;stroke-dasharray:none;stroke-opacity:1"
           d="m 143.01758,216.01787 h 2.25613 v 8.13479 q 0,2.98699 0.31776,4.09916 0.47665,1.60472 1.82715,2.54212 1.3505,0.92152 3.2412,0.92152 1.87482,0 3.17765,-0.90563 1.30284,-0.90563 1.79538,-2.38324 0.34954,-1.00095 0.34954,-4.27393 v -8.13479 h 2.2879 v 8.56377 q 0,3.60663 -0.85796,5.43378 -0.84208,1.81126 -2.52623,2.844 -1.68416,1.01684 -4.22628,1.01684 -2.558,0 -4.25805,-1.01684 -1.70004,-1.03274 -2.54212,-2.87578 -0.84207,-1.85892 -0.84207,-5.57677 z"
           inkscape:connector-curvature="0" />
        <path
           id="path875"
           style="font-style:normal;font-variant:normal;font-weight:bold;font-stretch:normal;font-family:'Rounded Elegance';-inkscape-font-specification:'Rounded Elegance Bold';fill:#ffffff;fill-opacity:1;stroke:#ffffff;stroke-width:1.93208539;stroke-miterlimit:4;stroke-dasharray:none;stroke-opacity:1"
           d="m 169.4874,231.3977 q -1.65238,0.88974 -3.2412,0.14299 -1.93837,-1.47761 -1.84304,-4.21038 v -7.37215 h 4.13095 v -1.92248 h -4.14684 v -8.42077 h -2.25613 v 18.09671 q -0.0318,1.90659 0.87385,3.49542 1.4935,2.52623 4.0674,2.66922 1.36639,0.0477 3.11409,-0.61964 -0.2701,-0.6673 -0.69908,-1.85892 z"
           inkscape:connector-curvature="0" />
        <path
           id="path877"
           style="font-style:normal;font-variant:normal;font-weight:bold;font-stretch:normal;font-family:'Rounded Elegance';-inkscape-font-specification:'Rounded Elegance Bold';fill:#ffffff;fill-opacity:1;stroke:#ffffff;stroke-width:1.93208539;stroke-miterlimit:4;stroke-dasharray:none;stroke-opacity:1"
           d="m 171.88653,216.01787 h 2.36735 l 5.98987,13.42557 5.8151,-13.42557 h 2.39913 l -10.40681,23.78471 h -2.36735 l 3.35243,-7.67402 z"
           inkscape:connector-curvature="0" />
      </g>
      <g
         id="text4979"
         style="font-style:normal;font-variant:normal;font-weight:normal;font-stretch:normal;font-size:64.22580719px;line-height:40.14112091px;font-family:'eurofurence light';-inkscape-font-specification:'eurofurence light, ';letter-spacing:0px;word-spacing:0px;fill:#ffffff;fill-opacity:1;stroke:#ffffff;stroke-width:0.64402854;stroke-miterlimit:4;stroke-dasharray:none;stroke-opacity:1"
         transform="matrix(0.46738847,0,0,0.4642598,35.926761,120.07227)"
         aria-label="Salon at home">
        <path
           inkscape:connector-curvature="0"
           id="path880"
           style="font-style:normal;font-variant:normal;font-weight:bold;font-stretch:normal;font-size:40.3339386px;font-family:Aroha;-inkscape-font-specification:'Aroha Bold';fill:#ffffff;fill-opacity:1;stroke:#ffffff;stroke-width:0.64402854;stroke-miterlimit:4;stroke-dasharray:none;stroke-opacity:1"
           d="m 9.0190858,244.46949 q 1.6543222,0 2.4420942,1.06349 0.630218,0.37419 0.630218,1.28013 -1.811877,2.59965 -2.4420944,4.21458 l -0.1575544,0.0591 H 9.3341947 q -0.078777,0 -0.078777,-0.0591 l -0.1575545,0.0591 h -0.078777 q -0.256026,-0.0394 -0.3151089,-0.96502 h -0.078777 q 0,0.29541 -0.1575544,0.29541 H 8.388868 q 0,-0.84685 1.811876,-4.05703 v -0.0788 l -0.157554,-0.6893 H 9.8856353 q -2.186068,0.74838 -3.860084,3.32833 -0.8665494,1.98913 -0.8665494,2.61935 v 0.82716 q 0,2.28454 3.3874206,3.46619 1.8906535,1.28013 1.8906535,2.18607 v 0.0788 q 0,2.22546 -5.1205197,3.38742 -0.8665495,0 -0.8665495,0.0788 -1.6346274,0 -3.1510889,-1.49677 v -0.0788 q 0.196943,-0.15755 0.3151089,-0.15755 H 1.8503585 L 1.692804,259.53563 q 0.078777,0 0.078777,-0.0788 1.1028812,0.98471 2.3633167,0.98471 2.3042338,0 4.8054107,-2.10729 0.2363317,-0.41358 0.2363317,-0.6893 0,-0.66961 -3.6237523,-2.4027 -1.3982957,-1.22105 -1.7330989,-3.01323 v -0.29542 h 0.078777 l -0.078777,-0.15755 q 0,-0.15756 0.1575544,-0.53175 -0.1575544,0 -0.1575544,-0.21664 0,-1.7134 1.9694305,-4.37213 2.1466794,-2.18607 3.2298662,-2.18607 z m -4.4903017,4.37214 v 0.0788 h 0.1575544 v -0.0788 z m -0.3151089,0.90593 v 0.13786 h 0.078777 v -0.13786 z" />
        <path
           inkscape:connector-curvature="0"
           id="path882"
           style="font-style:normal;font-variant:normal;font-weight:bold;font-stretch:normal;font-size:40.3339386px;font-family:Aroha;-inkscape-font-specification:'Aroha Bold';fill:#ffffff;fill-opacity:1;stroke:#ffffff;stroke-width:0.64402854;stroke-miterlimit:4;stroke-dasharray:none;stroke-opacity:1"
           d="m 18.137549,252.50477 q 0.669606,-0.0591 1.299824,0.63021 l 0.01969,0.23634 q 0.01969,0.21663 -0.905938,0.59083 -3.348032,3.95855 -3.801002,5.82951 h 0.07878 l 0.256026,0.13786 1.339212,-1.33921 0.157555,0.0591 q 0,-0.0591 0.590829,-0.66961 l -0.07878,-0.13786 q 0,-0.15755 0.13786,-0.17724 l 0.157554,0.0788 q -0.01969,-0.37419 0.45297,-0.43327 v -0.0788 q -0.236332,0.0197 -0.256026,-0.13786 0.07878,0 0.452969,-0.41358 l 0.236331,-0.0197 q 1.161964,-1.49677 1.319519,-1.49677 l 0.393886,-0.0394 q 0.748383,0.41358 0.925632,0.74838 l 0.01969,0.23634 -0.945327,2.30423 q -0.196943,0.86655 -0.256026,0.86655 v 0.0788 q 0.05908,0.86655 0.374192,0.84685 0.07878,0 0.768078,-0.51205 h 0.07878 q 0,0.15755 0.07878,0.13786 1.477073,-1.14227 2.69812,-2.36332 0.177249,0.27572 0.196943,0.6893 -0.551441,1.33922 -2.481483,3.15109 -0.571134,0.3545 -1.083186,0.39389 -1.930042,-0.47267 -1.989125,-1.53616 -0.118166,0 -0.334803,-1.22104 -0.216638,-0.39389 -2.323929,2.36331 -0.669606,0.3545 -0.846855,0.37419 l -0.236331,0.0197 q -0.827161,0.0394 -1.555851,-1.10288 l -0.03939,-0.47267 q 0,-0.17725 0.05908,-0.31511 l -0.07878,-0.15755 q 0.433274,-1.59524 0.768077,-1.61493 l -0.09847,-0.15756 q 0.27572,-0.23633 0.354497,-0.64991 0.315109,-0.19694 1.674016,-2.54056 1.378602,-2.12699 2.4224,-2.18607 z" />
        <path
           inkscape:connector-curvature="0"
           id="path884"
           style="font-style:normal;font-variant:normal;font-weight:bold;font-stretch:normal;font-size:40.3339386px;font-family:Aroha;-inkscape-font-specification:'Aroha Bold';fill:#ffffff;fill-opacity:1;stroke:#ffffff;stroke-width:0.64402854;stroke-miterlimit:4;stroke-dasharray:none;stroke-opacity:1"
           d="m 28.398281,244.94215 q 0.374192,0 0.945327,0.86655 0,0.37419 -1.654322,3.54498 -1.890653,3.801 -2.520871,9.29571 l 0.07878,0.15756 q -0.07878,0.41358 -0.07878,0.47266 0.07878,0.74838 0.157555,0.86655 1.161964,0 4.411524,-1.96943 l 0.07878,0.15755 v 0.0788 q 0,0.74838 -3.229867,2.91476 -0.374191,0.23633 -1.181658,0.23633 h -0.157554 q -1.496768,-0.6893 -1.496768,-1.7331 -0.13786,0 -0.157554,-0.55144 v -1.18166 q 0.05908,-0.47266 0.236332,-0.47266 l -0.07878,-0.39389 v -0.39389 q 0,-0.29541 0.236332,-0.47266 v -0.23633 h 0.07878 v -0.15755 H 23.90798 v -0.15756 q 0.315109,0 0.393886,-1.18166 l -0.07878,-0.31511 q 0.334803,-0.53174 0.708995,-2.12698 -0.07878,-0.15756 -0.07878,-0.23633 0.09847,0 0.551441,-0.709 v 0.15756 h 0.07878 q 0,-0.0788 0.07878,-0.23634 v -0.0788 h -0.07878 v 0.15755 h -0.07878 v -0.31511 q 0.787772,-1.79218 0.945327,-2.59965 0.452969,-0.82716 1.260435,-2.7572 0.256026,-0.63022 0.787772,-0.63022 z" />
        <path
           inkscape:connector-curvature="0"
           id="path886"
           style="font-style:normal;font-variant:normal;font-weight:bold;font-stretch:normal;font-size:40.3339386px;font-family:Aroha;-inkscape-font-specification:'Aroha Bold';fill:#ffffff;fill-opacity:1;stroke:#ffffff;stroke-width:0.64402854;stroke-miterlimit:4;stroke-dasharray:none;stroke-opacity:1"
           d="m 34.109631,253.68643 h 0.07878 q 2.461789,0.27572 2.619343,2.16637 0,1.94974 -3.466198,4.47061 -1.339213,1.24074 -2.442094,1.24074 -1.96943,-0.66961 -1.96943,-2.73751 0,-1.45738 0.945326,-3.21017 0.492358,-0.25603 0.630218,-0.25603 0.945327,0.17725 0.945327,0.98472 -0.86655,2.02851 -0.86655,3.07231 0,0.3545 0.157555,0.64991 1.083187,-0.15755 3.072312,-1.7331 1.733098,-1.67401 1.733098,-2.22545 -0.07878,0 -0.07878,-0.0788 l 0.157555,-0.0985 q -0.86655,-1.00441 -1.28013,-1.00441 -0.157555,-0.0788 -0.236332,-0.0788 -0.118166,0.11817 -1.004409,0.76808 v -0.0985 q -0.649913,-0.15756 -0.649913,-0.33481 l -0.157554,0.0788 h -0.157554 v -0.0788 q 0.590829,-0.84685 0.945326,-1.00441 l -0.07878,-0.15755 v -0.17725 h 0.236332 q 0.768078,-0.15755 0.866549,-0.15755 z m -0.846855,1.81187 h 0.07878 q 0.157555,0 -0.571135,-0.17725 h -0.07878 q -0.157554,0.0197 0.571135,0.17725 z" />
        <path
           inkscape:connector-curvature="0"
           id="path888"
           style="font-style:normal;font-variant:normal;font-weight:bold;font-stretch:normal;font-size:40.3339386px;font-family:Aroha;-inkscape-font-specification:'Aroha Bold';fill:#ffffff;fill-opacity:1;stroke:#ffffff;stroke-width:0.64402854;stroke-miterlimit:4;stroke-dasharray:none;stroke-opacity:1"
           d="m 39.663425,254.31664 q 0.748383,0 1.102881,1.10288 0,0.25603 -0.945327,2.28454 h 0.07878 q 1.792182,-1.22104 2.83598,-2.12698 h 0.393886 q 1.41799,0.27572 1.41799,1.18166 l -0.07878,0.39388 q 0,1.7331 1.102881,2.4421 h 0.236332 q 0.708995,0 1.969431,-0.709 h 0.07878 q 0,0.0788 0.07878,0.0788 0,-0.21664 0.551441,-0.31511 0.03939,-0.21664 1.496767,-0.78777 v 0.15755 q 0,1.14227 -3.229866,2.91476 l -0.787772,0.0788 q -1.614934,-0.47267 -2.363317,-1.65432 -0.393886,-0.55144 -0.630218,-2.04821 h -0.07878 q -1.083187,0.76808 -4.332748,3.86008 0,0.31511 -0.393886,0.39389 -0.354497,0 -0.630217,-0.47267 -0.295415,0 -0.393887,-1.0241 0.630218,-2.73751 1.496768,-4.41152 0.196943,-1.33922 1.024104,-1.33922 z" />
        <path
           inkscape:connector-curvature="0"
           id="path890"
           style="font-style:normal;font-variant:normal;font-weight:bold;font-stretch:normal;font-size:40.3339386px;font-family:Aroha;-inkscape-font-specification:'Aroha Bold';fill:#ffffff;fill-opacity:1;stroke:#ffffff;stroke-width:0.64402854;stroke-miterlimit:4;stroke-dasharray:none;stroke-opacity:1"
           d="m 64.773667,252.50477 q 0.669606,-0.0591 1.299824,0.63021 l 0.01969,0.23634 q 0.01969,0.21663 -0.905939,0.59083 -3.348032,3.95855 -3.801001,5.82951 h 0.07878 l 0.256026,0.13786 1.339212,-1.33921 0.157555,0.0591 q 0,-0.0591 0.590829,-0.66961 l -0.07878,-0.13786 q 0,-0.15755 0.13786,-0.17724 l 0.157554,0.0788 q -0.01969,-0.37419 0.452969,-0.43327 v -0.0788 q -0.236331,0.0197 -0.256026,-0.13786 0.07878,0 0.45297,-0.41358 l 0.236331,-0.0197 q 1.161964,-1.49677 1.319519,-1.49677 l 0.393886,-0.0394 q 0.748383,0.41358 0.925632,0.74838 l 0.01969,0.23634 -0.945326,2.30423 q -0.196943,0.86655 -0.256026,0.86655 v 0.0788 q 0.05908,0.86655 0.374192,0.84685 0.07878,0 0.768078,-0.51205 h 0.07878 q 0,0.15755 0.07878,0.13786 1.477073,-1.14227 2.69812,-2.36332 0.177249,0.27572 0.196943,0.6893 -0.551441,1.33922 -2.481483,3.15109 -0.571134,0.3545 -1.083186,0.39389 -1.930042,-0.47267 -1.989125,-1.53616 -0.118166,0 -0.334803,-1.22104 -0.216638,-0.39389 -2.323929,2.36331 -0.669606,0.3545 -0.846855,0.37419 l -0.236331,0.0197 q -0.827161,0.0394 -1.555851,-1.10288 l -0.03939,-0.47267 q 0,-0.17725 0.05908,-0.31511 l -0.07878,-0.15755 q 0.433275,-1.59524 0.768078,-1.61493 l -0.09847,-0.15756 q 0.27572,-0.23633 0.354497,-0.64991 0.315109,-0.19694 1.674016,-2.54056 1.378602,-2.12699 2.4224,-2.18607 z" />
        <path
           inkscape:connector-curvature="0"
           id="path892"
           style="font-style:normal;font-variant:normal;font-weight:bold;font-stretch:normal;font-size:40.3339386px;font-family:Aroha;-inkscape-font-specification:'Aroha Bold';fill:#ffffff;fill-opacity:1;stroke:#ffffff;stroke-width:0.64402854;stroke-miterlimit:4;stroke-dasharray:none;stroke-opacity:1"
           d="m 75.900947,247.22669 q 0.748384,0 0.945327,1.10288 0,0.15756 -1.181659,2.83598 0.07878,0 0.07878,0.0788 2.087596,-0.19694 3.466197,-0.27572 v 0.0788 l 0.157555,-0.0788 h 0.55144 q 0.472664,0 0.472664,0.31511 h 0.236331 q 0.708995,0 0.708995,0.55144 -0.41358,0.31511 -1.575544,0.39389 v -0.0788 q -2.540566,0.31511 -4.805411,0.66961 0,0.21663 -1.181658,3.93886 -0.86655,2.73751 -0.86655,4.4903 -0.236331,0.31511 -0.315108,0.31511 -0.157555,0 -0.157555,-0.23633 h -0.07878 v 0.15755 h -0.157555 l -0.07878,-0.78777 v -0.31511 q -0.157554,-0.19694 -0.157554,-0.31511 h -0.07878 q 0,0.15756 -0.07878,0.15756 l 0.07878,0.15755 v 0.23633 q -0.236332,-0.0591 -0.236332,-0.63022 v -0.15755 l 0.07878,-0.39389 q -0.157554,0 -0.157554,-0.15755 0,-0.53175 0.472663,-1.49677 0.07878,-0.3545 0.07878,-0.63022 h -0.07878 v -0.15755 q 0.236332,0 0.236332,-0.15756 -0.157555,0 -0.157555,-0.15755 0.157555,0 0.157555,-0.15755 l -0.07878,-0.15756 q 0.748384,-2.83598 1.102882,-2.83598 -0.07878,-0.15755 -0.07878,-0.23633 l -1.733099,0.39389 q -1.260435,0 -1.260435,-1.18166 0.118166,-0.33481 0.393886,-0.47267 h 0.551441 q 2.757202,-0.17724 2.757202,-0.86655 0.630218,-1.41799 1.339213,-3.7813 0.551441,-0.15756 0.630218,-0.15756 z" />
        <path
           inkscape:connector-curvature="0"
           id="path894"
           style="font-style:normal;font-variant:normal;font-weight:bold;font-stretch:normal;font-size:40.3339386px;font-family:Aroha;-inkscape-font-specification:'Aroha Bold';fill:#ffffff;fill-opacity:1;stroke:#ffffff;stroke-width:0.64402854;stroke-miterlimit:4;stroke-dasharray:none;stroke-opacity:1"
           d="m 92.916828,246.91158 q 0.649912,0 1.102881,0.709 v 0.55144 q 0,0.17725 -3.229866,6.38096 -1.496767,3.76161 -1.496767,4.33274 v 0.0788 q 2.067902,-1.81188 2.363316,-1.81188 0.01969,-0.15755 0.157555,-0.15755 v 0.0788 q 0.13786,0 0.708995,-0.78778 0.157554,-0.15755 0.945327,-0.23633 1.024103,0.21664 1.024103,1.96943 0,1.91035 0.551441,2.12699 1.969431,-0.49236 3.544975,-1.57555 0,-0.0788 0.236332,-0.0788 0.118166,0 0.236331,0.23633 v 0.31511 q -1.161964,1.69371 -2.993534,2.44209 -0.315109,0 -0.315109,0.0788 -1.614933,0 -2.442094,-1.7331 -0.374192,-1.96943 -0.472663,-1.96943 -1.496767,1.28013 -3.466198,3.54497 H 88.89919 q -0.768078,0 -1.102882,-1.41799 l 0.07878,-0.15755 -0.07878,-0.31511 q 0.07878,-0.13786 0.07878,-0.31511 -0.118166,0 -0.236332,-0.23633 l 0.236332,-0.15755 v 0.15755 h 0.07878 v -0.0788 q -0.09847,-0.39388 -0.236332,-0.39388 0.07878,-0.15756 0.07878,-0.23634 -0.07878,-0.15755 -0.07878,-0.23633 0.196943,0 0.472664,-1.41799 l 1.260435,-3.22986 q 0.669607,-0.92564 1.41799,-2.91476 1.41799,-2.61934 1.41799,-3.22987 0.452969,-0.31511 0.630218,-0.31511 z" />
        <path
           inkscape:connector-curvature="0"
           id="path896"
           style="font-style:normal;font-variant:normal;font-weight:bold;font-stretch:normal;font-size:40.3339386px;font-family:Aroha;-inkscape-font-specification:'Aroha Bold';fill:#ffffff;fill-opacity:1;stroke:#ffffff;stroke-width:0.64402854;stroke-miterlimit:4;stroke-dasharray:none;stroke-opacity:1"
           d="m 103.19725,253.68643 h 0.0788 q 2.46179,0.27572 2.61934,2.16637 0,1.94974 -3.4662,4.47061 -1.33921,1.24074 -2.442089,1.24074 -1.969431,-0.66961 -1.969431,-2.73751 0,-1.45738 0.945327,-3.21017 0.492358,-0.25603 0.630218,-0.25603 0.945325,0.17725 0.945325,0.98472 -0.866548,2.02851 -0.866548,3.07231 0,0.3545 0.157554,0.64991 1.083184,-0.15755 3.072314,-1.7331 1.7331,-1.67401 1.7331,-2.22545 -0.0788,0 -0.0788,-0.0788 l 0.15755,-0.0985 q -0.86655,-1.00441 -1.28013,-1.00441 -0.15755,-0.0788 -0.23633,-0.0788 -0.11816,0.11817 -1.00441,0.76808 v -0.0985 q -0.64991,-0.15756 -0.64991,-0.33481 l -0.15755,0.0788 h -0.15756 v -0.0788 q 0.59083,-0.84685 0.94533,-1.00441 l -0.0788,-0.15755 v -0.17725 h 0.23633 q 0.76808,-0.15755 0.86655,-0.15755 z m -0.84685,1.81187 h 0.0788 q 0.15756,0 -0.57113,-0.17725 h -0.0788 q -0.15755,0.0197 0.57114,0.17725 z" />
        <path
           inkscape:connector-curvature="0"
           id="path898"
           style="font-style:normal;font-variant:normal;font-weight:bold;font-stretch:normal;font-size:40.3339386px;font-family:Aroha;-inkscape-font-specification:'Aroha Bold';fill:#ffffff;fill-opacity:1;stroke:#ffffff;stroke-width:0.64402854;stroke-miterlimit:4;stroke-dasharray:none;stroke-opacity:1"
           d="m 108.73135,252.66232 h 0.15756 q 0.41358,0 0.86655,0.63022 v 0.55144 q -0.39389,1.31952 -1.7331,4.17519 v 0.0788 l 2.7572,-2.7572 h 0.0788 v 0.23633 h 0.0788 q 0.76807,-0.78777 0.94532,-0.78777 v -0.0788 h -0.0788 l -0.31511,0.15755 v -0.0788 q 0,-0.0985 0.55144,-0.47267 h 0.15755 v 0.15756 h 0.0788 q 0.31511,-0.39389 0.55144,-0.39389 l -0.0788,-0.15755 v -0.0788 l 0.39389,0.0788 -0.0788,-0.15756 0.15756,-0.0788 h 0.39388 q 0.17725,0 0.31511,0.0788 0.15756,-0.0788 0.23633,-0.0788 0.94533,0.43327 0.94533,0.94532 v 0.0788 q 0,0.41358 -0.55144,2.59965 1.55585,-1.00441 3.22986,-2.28454 h 0.0788 v 0.0788 l -0.31511,0.3151 h 0.0788 q 0.98472,-0.70899 1.10288,-0.70899 v -0.0788 l -0.0788,-0.15755 0.39389,-0.23633 q 0.88624,0 1.41799,0.70899 v 0.15756 q 0,0.25602 -0.23633,2.67842 0.19694,1.65432 0.78777,1.65432 0.84686,0 2.12699,-0.55144 l 0.0788,0.15756 2.12699,-1.02411 q 0.27572,0 0.86655,-0.47266 0.0197,0.15755 0.15755,0.15755 0.0197,-0.15755 0.15756,-0.15755 l 0.15755,0.23633 v 0.0788 q -0.72869,0.88624 -2.99353,2.28454 -1.29983,0.63022 -1.89066,0.63022 h -0.39388 q -1.51646,0 -2.59965,-2.12699 v -2.28454 h -0.0788 q -3.58436,2.91476 -4.25397,2.91476 -0.31511,-0.15756 -0.86655,-0.15756 h -0.0788 q 0,-0.37419 -0.39388,-0.70899 0.0788,-0.15756 0.0788,-0.23633 -0.15756,-0.0788 -0.23634,-0.0788 v -0.0788 q 0,-0.92563 0.47267,-2.7572 h -0.0788 q -0.53175,0 -6.30218,6.14462 -0.25602,0.15756 -0.47266,0.15756 h -0.23633 q -0.53175,0 -0.78778,-0.55144 0.15756,-0.76808 0.15756,-0.86655 h -0.15756 q 0.47267,-1.93004 2.4421,-6.77484 0.15755,-0.709 0.70899,-0.709 z m 3.15109,1.89066 q 0.0197,0.15755 0.15756,0.15755 v -0.15755 z m -1.26043,1.18165 h 0.15755 v -0.15755 q -0.15755,0.0197 -0.15755,0.15755 z m -0.31511,0.15756 v 0.15755 q 0.15755,0 0.15755,-0.15755 z m -0.39389,0.47266 -0.0788,0.15756 h 0.0788 l 0.0788,-0.15756 z m 16.38566,1.41799 v 0.15756 h 0.0788 v -0.15756 z m -0.3151,0.23633 v 0.15756 q 0.15755,0 0.15755,-0.15756 z" />
        <path
           inkscape:connector-curvature="0"
           id="path900"
           style="font-style:normal;font-variant:normal;font-weight:bold;font-stretch:normal;font-size:40.3339386px;font-family:Aroha;-inkscape-font-specification:'Aroha Bold';fill:#ffffff;fill-opacity:1;stroke:#ffffff;stroke-width:0.64402854;stroke-miterlimit:4;stroke-dasharray:none;stroke-opacity:1"
           d="m 131.12378,252.95774 h 0.63022 q 1.00441,0 1.26043,1.53615 0,1.83157 -2.20576,3.17079 -1.49677,1.31951 -2.67843,1.31951 -0.51205,-0.13786 -0.70899,-0.13786 0,0.0788 -0.0788,0.0788 0.17725,1.31952 0.94533,1.31952 h 0.15755 q 0.6893,0 3.54498,-0.96502 0.39388,-0.31511 0.94533,-0.51205 v 0.15755 q 0.11816,0 0.23633,-0.23633 -0.0788,0 -0.0788,-0.0591 0.25603,-0.17725 0.70899,-0.23634 0.0197,0.15756 0.15756,0.15756 v -0.21664 h 0.0788 l 0.15755,0.0591 q 0.0788,-0.13786 0.0788,-0.21663 h 0.0788 v 0.21663 l -0.15756,0.23634 q 0.0788,0 0.0788,0.0591 -0.64991,0.82716 -1.33921,1.10288 0,0.29542 -2.20577,1.33921 -1.16196,0.43328 -1.96943,0.43328 -2.02851,0 -2.91475,-2.36332 v -0.64991 h 0.0788 v -0.21664 H 125.767 v -0.23633 h 0.0788 l 0.15755,0.0788 0.0788,-0.51205 h -0.15756 v -0.13786 h 0.0788 l 0.15755,0.0591 q 0.25603,-0.94533 0.63022,-0.94533 l -0.0788,-0.15755 q 0.39389,-0.90594 0.78778,-1.16197 l -0.0788,-0.15755 v -0.0788 q 0.39389,0 0.55144,-0.64991 0.17725,0 0.709,-0.59083 1.49676,-0.80747 2.44209,-0.88624 z m -3.15109,4.4903 q 0.53175,-0.0788 2.67843,-1.47707 1.18165,-1.00441 1.18165,-1.10289 l -0.0788,-0.13786 q 0.15755,0 0.15755,-0.15755 -0.15755,0 -0.15755,-0.21664 l 0.0788,-0.37419 q -0.15755,-0.0591 -0.23633,-0.0591 -1.31952,0.21663 -2.91475,2.20576 -0.63022,0.88624 -0.709,1.31952 z" />
      </g>
    </g>
  </g>
</svg>
