<?xml version="1.0" encoding="UTF-8" standalone="no"?>
<!-- Created with Inkscape (http://www.inkscape.org/) -->

<svg
   xmlns:dc="http://purl.org/dc/elements/1.1/"
   xmlns:cc="http://creativecommons.org/ns#"
   xmlns:rdf="http://www.w3.org/1999/02/22-rdf-syntax-ns#"
   xmlns:svg="http://www.w3.org/2000/svg"
   xmlns="http://www.w3.org/2000/svg"
   xmlns:sodipodi="http://sodipodi.sourceforge.net/DTD/sodipodi-0.dtd"
   xmlns:inkscape="http://www.inkscape.org/namespaces/inkscape"
   width="512"
   height="512"
   viewBox="0 0 135.46666 135.46666"
   version="1.1"
   id="svg8"
   inkscape:version="0.92.3 (2405546, 2018-03-11)"
   sodipodi:docname="logo-cleanesst.svg">
  <defs
     id="defs2">
    <inkscape:perspective
       sodipodi:type="inkscape:persp3d"
       inkscape:vp_x="0 : 160.625 : 1"
       inkscape:vp_y="0 : 1000 : 0"
       inkscape:vp_z="1250 : 160.625 : 1"
       inkscape:persp3d-origin="625 : 107.08333 : 1"
       id="perspective30" />
    <inkscape:perspective
       sodipodi:type="inkscape:persp3d"
       inkscape:vp_x="0 : 160.625 : 1"
       inkscape:vp_y="0 : 1000 : 0"
       inkscape:vp_z="1250 : 160.625 : 1"
       inkscape:persp3d-origin="625 : 107.08333 : 1"
       id="perspective30-0" />
    <inkscape:perspective
       id="perspective30-7"
       inkscape:persp3d-origin="625 : 107.08333 : 1"
       inkscape:vp_z="1250 : 160.625 : 1"
       inkscape:vp_y="0 : 1000 : 0"
       inkscape:vp_x="0 : 160.625 : 1"
       sodipodi:type="inkscape:persp3d" />
    <inkscape:perspective
       id="perspective30-0-4"
       inkscape:persp3d-origin="625 : 107.08333 : 1"
       inkscape:vp_z="1250 : 160.625 : 1"
       inkscape:vp_y="0 : 1000 : 0"
       inkscape:vp_x="0 : 160.625 : 1"
       sodipodi:type="inkscape:persp3d" />
  </defs>
  <sodipodi:namedview
     id="base"
     pagecolor="#ffffff"
     bordercolor="#666666"
     borderopacity="1.0"
     inkscape:pageopacity="0.0"
     inkscape:pageshadow="2"
     inkscape:zoom="1.0659323"
     inkscape:cx="349.51233"
     inkscape:cy="259.08443"
     inkscape:document-units="px"
     inkscape:current-layer="layer1"
     showgrid="false"
     units="px"
     inkscape:window-width="1600"
     inkscape:window-height="837"
     inkscape:window-x="-8"
     inkscape:window-y="-8"
     inkscape:window-maximized="1"
     showguides="false" />
  <metadata
     id="metadata5">
    <rdf:RDF>
      <cc:Work
         rdf:about="">
        <dc:format>image/svg+xml</dc:format>
        <dc:type
           rdf:resource="http://purl.org/dc/dcmitype/StillImage" />
        <dc:title />
      </cc:Work>
    </rdf:RDF>
  </metadata>
  <g
     inkscape:label="Layer 1"
     inkscape:groupmode="layer"
     id="layer1"
     transform="translate(0,-161.53336)">
    <g
       transform="translate(134.7508,-44.104297)"
       id="g4630" />
    <g
       aria-label="m"
       style="font-style:normal;font-weight:normal;font-size:47.34103775px;line-height:29.58814812px;font-family:sans-serif;letter-spacing:0px;word-spacing:0px;fill:#000000;fill-opacity:1;stroke:none;stroke-width:0.26458335"
       id="text4834"
       transform="translate(116.52875,13.770081)" />
    <g
       aria-label="m"
       style="font-style:normal;font-weight:normal;font-size:47.34103775px;line-height:29.58814812px;font-family:sans-serif;letter-spacing:0px;word-spacing:0px;fill:#75a12e;fill-opacity:1;stroke:none;stroke-width:0.26865035"
       id="g876"
       transform="matrix(-0.98216813,0.04675065,-0.04659998,-0.98534378,192.13871,126.09277)" />
    <g
       transform="matrix(0.95912595,0.04675065,0.53225022,-0.98534378,66.979772,117.89801)"
       id="g911"
       style="font-style:normal;font-weight:normal;font-size:47.34103775px;line-height:29.58814812px;font-family:sans-serif;letter-spacing:0px;word-spacing:0px;fill:#75a12e;fill-opacity:1;stroke:none;stroke-width:0.26865035"
       aria-label="m" />
    <rect
       rx="26.458332"
       style="opacity:0;fill:#ffffff;fill-opacity:1;stroke:none;stroke-width:0.52916652;stroke-linecap:round;stroke-linejoin:miter;stroke-miterlimit:4;stroke-dasharray:none;stroke-opacity:1;paint-order:normal"
       id="rect872-6"
       width="135.46666"
       height="135.46666"
       x="-2.7764405e-005"
       y="161.53336"
       ry="26.458332"
       inkscape:export-xdpi="480"
       inkscape:export-ydpi="480"
       inkscape:export-filename="D:\Cleanesst\logo-big1a.png" />
    <g
       id="g859"
       transform="matrix(0.93216386,0,0,0.93216386,4.5947938,15.552571)"
       style="fill:#ffffff;stroke-width:1.07277274">
      <path
         style="color:#000000;font-style:normal;font-variant:normal;font-weight:normal;font-stretch:normal;font-size:medium;line-height:normal;font-family:sans-serif;font-variant-ligatures:normal;font-variant-position:normal;font-variant-caps:normal;font-variant-numeric:normal;font-variant-alternates:normal;font-feature-settings:normal;text-indent:0;text-align:start;text-decoration:none;text-decoration-line:none;text-decoration-style:solid;text-decoration-color:#000000;letter-spacing:normal;word-spacing:normal;text-transform:none;writing-mode:lr-tb;direction:ltr;text-orientation:mixed;dominant-baseline:auto;baseline-shift:baseline;text-anchor:start;white-space:normal;shape-padding:0;clip-rule:nonzero;display:inline;overflow:visible;visibility:visible;opacity:1;isolation:auto;mix-blend-mode:normal;color-interpolation:sRGB;color-interpolation-filters:linearRGB;solid-color:#000000;solid-opacity:1;vector-effect:none;fill:#ffffff;fill-opacity:1;fill-rule:nonzero;stroke:none;stroke-width:9.36664677;stroke-linecap:round;stroke-linejoin:miter;stroke-miterlimit:4;stroke-dasharray:none;stroke-dashoffset:0;stroke-opacity:1;paint-order:markers fill stroke;color-rendering:auto;image-rendering:auto;shape-rendering:auto;text-rendering:auto;enable-background:accumulate"
         d="m 67.006533,184.84427 c -12.79386,-0.056 -24.638281,7.7959 -29.340927,20.08456 -0.934264,2.44146 0.287571,5.17804 2.729018,6.1123 2.441481,0.93426 5.178033,-0.28756 6.112297,-2.72903 3.765662,-9.84014 13.944502,-15.55336 24.305803,-13.64232 5.865504,1.08183 10.800949,4.42744 13.982906,9.03737 0.968159,2.19189 0.141238,4.78431 -1.922444,6.00587 -2.069221,1.22484 -4.730244,0.70754 -6.183425,-1.20823 -3.258982,-4.17731 -8.747652,-5.80268 -13.741479,-4.07729 -4.993827,1.72538 -8.326582,6.40693 -8.326549,11.71598 5.4e-5,5.30905 3.33269,9.98845 8.326549,11.71375 4.99386,1.72531 10.482519,0.0995 13.741479,-4.07786 1.442721,-1.9162 4.090769,-2.44994 6.163264,-1.24239 2.048745,1.19372 2.891491,3.71541 1.987393,5.89832 -3.175778,4.63265 -8.118768,7.99984 -13.998016,9.09282 -10.358569,1.92573 -20.545235,-3.77392 -24.324836,-13.60871 -0.919956,-2.46598 -3.675153,-3.70746 -6.131917,-2.76319 -2.456764,0.94427 -3.671174,3.71145 -2.702689,6.15879 5.394388,14.03655 20.105066,22.26614 34.889182,19.51768 14.784094,-2.74846 25.555503,-15.71564 25.544843,-30.75306 -0.0109,-15.03743 -10.801104,-27.98916 -25.58909,-30.71665 -1.848507,-0.34094 -3.693655,-0.51071 -5.521362,-0.51871 z"
         id="path975"
         inkscape:connector-curvature="0" />
      <g
         id="text952"
         style="font-style:normal;font-weight:normal;font-size:21.17789459px;line-height:13.23618126px;font-family:sans-serif;letter-spacing:0px;word-spacing:0px;fill:#ffffff;fill-opacity:1;stroke:none;stroke-width:0.28383777"
         aria-label="CLEANESST">
        <path
           inkscape:connector-curvature="0"
           id="path1085"
           style="font-style:normal;font-variant:normal;font-weight:bold;font-stretch:normal;font-family:'Futura New';-inkscape-font-specification:'Futura New Bold';fill:#ffffff;fill-opacity:1;stroke-width:0.28383777"
           d="m 24.583672,268.64906 c -1.291851,1.41892 -2.647236,1.48246 -3.197862,1.48246 -1.037716,0 -2.0119,-0.40238 -2.626059,-0.97419 -0.741226,-0.69887 -1.143606,-1.77894 -1.143606,-2.75312 0,-0.99536 0.360024,-2.09661 1.228318,-2.90137 0.677693,-0.61416 1.482453,-0.93183 2.541347,-0.93183 0.614159,0 2.0119,0.0847 3.197862,1.54598 v -4.38382 c -1.524808,-0.61416 -2.626058,-0.72005 -3.303751,-0.72005 -2.202501,0 -4.087334,0.93183 -5.33683,2.2025 -1.270673,1.29185 -2.138967,3.19787 -2.138967,5.20977 0,1.84247 0.762404,3.76966 2.138967,5.14622 1.164785,1.14361 3.007262,2.11779 5.463897,2.11779 0.91065,0 1.71541,-0.16942 3.176684,-0.69887 z" />
        <path
           inkscape:connector-curvature="0"
           id="path1087"
           style="font-style:normal;font-variant:normal;font-weight:bold;font-stretch:normal;font-family:'Futura New';-inkscape-font-specification:'Futura New Bold';fill:#ffffff;fill-opacity:1;stroke-width:0.28383777"
           d="m 26.93111,259.24608 v 14.12565 h 8.068777 v -3.11315 h -4.405002 v -11.0125 z" />
        <path
           inkscape:connector-curvature="0"
           id="path1089"
           style="font-style:normal;font-variant:normal;font-weight:bold;font-stretch:normal;font-family:'Futura New';-inkscape-font-specification:'Futura New Bold';fill:#ffffff;fill-opacity:1;stroke-width:0.28383777"
           d="m 44.926033,259.24608 h -8.026422 v 14.12565 h 8.026422 v -3.11315 h -4.362646 v -2.43545 h 4.129689 v -3.11315 h -4.129689 v -2.35075 h 4.362646 z" />
        <path
           inkscape:connector-curvature="0"
           id="path1091"
           style="font-style:normal;font-variant:normal;font-weight:bold;font-stretch:normal;font-family:'Futura New';-inkscape-font-specification:'Futura New Bold';fill:#ffffff;fill-opacity:1;stroke-width:0.28383777"
           d="m 56.728076,273.37173 h 3.917911 l -5.315652,-14.12565 h -4.002622 l -5.421541,14.12565 h 3.875555 l 0.953005,-2.37192 h 5.125051 z m -4.976805,-5.1674 1.545986,-4.57443 1.588343,4.57443 z" />
        <path
           inkscape:connector-curvature="0"
           id="path1093"
           style="font-style:normal;font-variant:normal;font-weight:bold;font-stretch:normal;font-family:'Futura New';-inkscape-font-specification:'Futura New Bold';fill:#ffffff;fill-opacity:1;stroke-width:0.28383777"
           d="m 65.960315,273.37173 v -8.64058 l 6.755749,8.64058 h 3.663775 v -14.12565 h -3.663775 v 8.64058 l -6.755749,-8.64058 H 62.29654 v 14.12565 z" />
        <path
           inkscape:connector-curvature="0"
           id="path1095"
           style="font-style:normal;font-variant:normal;font-weight:bold;font-stretch:normal;font-family:'Futura New';-inkscape-font-specification:'Futura New Bold';fill:#ffffff;fill-opacity:1;stroke-width:0.28383777"
           d="m 87.364549,259.24608 h -8.026422 v 14.12565 h 8.026422 v -3.11315 h -4.362646 v -2.43545 h 4.12969 v -3.11315 h -4.12969 v -2.35075 h 4.362646 z" />
        <path
           inkscape:connector-curvature="0"
           id="path1097"
           style="font-style:normal;font-variant:normal;font-weight:bold;font-stretch:normal;font-family:'Futura New';-inkscape-font-specification:'Futura New Bold';fill:#ffffff;fill-opacity:1;stroke-width:0.28383777"
           d="m 89.043557,272.10106 c 1.016539,0.69887 1.906011,1.03772 2.138968,1.12243 1.037717,0.3812 1.884832,0.46591 2.774304,0.46591 1.50363,0 2.964905,-0.23295 4.172045,-1.44009 1.016539,-1.01654 1.334208,-2.26604 1.334208,-3.55789 0,-0.97418 -0.190601,-1.75777 -0.91065,-2.52017 -0.741226,-0.80476 -1.673054,-1.12243 -2.562525,-1.39774 l -1.122429,-0.33885 c -0.868293,-0.25413 -1.122428,-0.50827 -1.228317,-0.63533 -0.148246,-0.1906 -0.190601,-0.38121 -0.190601,-0.63534 0,-0.31767 0.148245,-0.55063 0.360024,-0.7624 0.360024,-0.33885 0.847116,-0.42356 1.20714,-0.42356 0.487091,0 1.313029,0.0847 2.41428,0.953 l 1.461274,-2.85901 c -1.334207,-0.69887 -2.964905,-1.14361 -4.362646,-1.14361 -1.715409,0 -2.901371,0.61416 -3.62142,1.33421 -0.614159,0.61416 -1.291851,1.67305 -1.291851,3.40964 0,0.72005 0.08471,1.71541 0.80476,2.49899 0.571803,0.63534 1.440096,0.95301 2.033077,1.14361 l 0.953006,0.29649 c 0.910649,0.27531 1.461274,0.42356 1.821299,0.74122 0.29649,0.25414 0.40238,0.57181 0.40238,0.84712 0,0.36002 -0.148246,0.67769 -0.360025,0.88947 -0.232956,0.25414 -0.677692,0.48709 -1.418918,0.48709 -1.270674,0 -2.456636,-0.69887 -3.240218,-1.44009 z" />
        <path
           inkscape:connector-curvature="0"
           id="path1099"
           style="font-style:normal;font-variant:normal;font-weight:bold;font-stretch:normal;font-family:'Futura New';-inkscape-font-specification:'Futura New Bold';fill:#ffffff;fill-opacity:1;stroke-width:0.28383777"
           d="m 100.58386,272.10106 c 1.01653,0.69887 1.90601,1.03772 2.13896,1.12243 1.03772,0.3812 1.88484,0.46591 2.77431,0.46591 1.50363,0 2.9649,-0.23295 4.17204,-1.44009 1.01654,-1.01654 1.33421,-2.26604 1.33421,-3.55789 0,-0.97418 -0.1906,-1.75777 -0.91065,-2.52017 -0.74123,-0.80476 -1.67305,-1.12243 -2.56252,-1.39774 l -1.12243,-0.33885 c -0.8683,-0.25413 -1.12243,-0.50827 -1.22832,-0.63533 -0.14825,-0.1906 -0.1906,-0.38121 -0.1906,-0.63534 0,-0.31767 0.14824,-0.55063 0.36002,-0.7624 0.36003,-0.33885 0.84712,-0.42356 1.20714,-0.42356 0.48709,0 1.31303,0.0847 2.41428,0.953 l 1.46128,-2.85901 c -1.33421,-0.69887 -2.96491,-1.14361 -4.36265,-1.14361 -1.71541,0 -2.90137,0.61416 -3.62142,1.33421 -0.61416,0.61416 -1.29185,1.67305 -1.29185,3.40964 0,0.72005 0.0847,1.71541 0.80476,2.49899 0.5718,0.63534 1.4401,0.95301 2.03308,1.14361 l 0.953,0.29649 c 0.91065,0.27531 1.46128,0.42356 1.8213,0.74122 0.29649,0.25414 0.40238,0.57181 0.40238,0.84712 0,0.36002 -0.14824,0.67769 -0.36002,0.88947 -0.23296,0.25414 -0.6777,0.48709 -1.41892,0.48709 -1.27068,0 -2.45664,-0.69887 -3.24022,-1.44009 z" />
        <path
           inkscape:connector-curvature="0"
           id="path1101"
           style="font-style:normal;font-variant:normal;font-weight:bold;font-stretch:normal;font-family:'Futura New';-inkscape-font-specification:'Futura New Bold';fill:#ffffff;fill-opacity:1;stroke-width:0.28383777"
           d="m 121.66248,262.35923 v -3.11315 H 111.963 v 3.11315 h 2.98609 v 11.0125 h 3.66377 v -11.0125 z" />
      </g>
    </g>
  </g>
</svg>
