<?xml version="1.0" encoding="UTF-8" standalone="no"?>
<!-- Created with Inkscape (http://www.inkscape.org/) -->

<svg
   xmlns:dc="http://purl.org/dc/elements/1.1/"
   xmlns:cc="http://creativecommons.org/ns#"
   xmlns:rdf="http://www.w3.org/1999/02/22-rdf-syntax-ns#"
   xmlns:svg="http://www.w3.org/2000/svg"
   xmlns="http://www.w3.org/2000/svg"
   xmlns:sodipodi="http://sodipodi.sourceforge.net/DTD/sodipodi-0.dtd"
   xmlns:inkscape="http://www.inkscape.org/namespaces/inkscape"
   width="512"
   height="512"
   viewBox="0 0 135.46666 135.46667"
   version="1.1"
   id="svg8"
   sodipodi:docname="logo-mingoofood.svg"
   inkscape:export-filename="D:\Mingoo Food\Mobile App\app-icon.png"
   inkscape:export-xdpi="96"
   inkscape:export-ydpi="96"
   inkscape:version="0.92.3 (2405546, 2018-03-11)">
  <defs
     id="defs2" />
  <sodipodi:namedview
     id="base"
     pagecolor="#ffffff"
     bordercolor="#666666"
     borderopacity="1.0"
     inkscape:pageopacity="0.0"
     inkscape:pageshadow="2"
     inkscape:zoom="0.94479906"
     inkscape:cx="35.272426"
     inkscape:cy="165.26242"
     inkscape:document-units="px"
     inkscape:current-layer="layer1"
     showgrid="false"
     units="px"
     inkscape:window-width="1600"
     inkscape:window-height="837"
     inkscape:window-x="-8"
     inkscape:window-y="-8"
     inkscape:window-maximized="1"
     showguides="true" />
  <metadata
     id="metadata5">
    <rdf:RDF>
      <cc:Work
         rdf:about="">
        <dc:format>image/svg+xml</dc:format>
        <dc:type
           rdf:resource="http://purl.org/dc/dcmitype/StillImage" />
        <dc:title />
      </cc:Work>
    </rdf:RDF>
  </metadata>
  <g
     inkscape:label="Layer 1"
     inkscape:groupmode="layer"
     id="layer1"
     transform="translate(0,-161.53332)">
    <path
       style="opacity:0;fill:#ed0302;fill-opacity:1;stroke:none;stroke-width:0.52916658;stroke-linecap:round;stroke-linejoin:miter;stroke-miterlimit:4;stroke-dasharray:none;stroke-opacity:1;paint-order:normal"
       d="m 26.458335,161.53333 h 82.549995 c 14.65792,0 26.45833,11.80041 26.45833,26.45833 v 82.54999 c 0,14.65792 -11.80041,26.45833 -26.45833,26.45833 H 26.458335 C 11.800419,296.99998 2.7270507e-6,285.19957 2.7270507e-6,270.54165 V 187.99166 C 2.7270507e-6,173.33374 11.800419,161.53333 26.458335,161.53333 Z"
       id="rect872" />
    <g
       id="g849"
       transform="translate(0,3.1853621e-6)">
      <g
         style="fill:#ffffff;fill-opacity:1;stroke-width:0.99582261"
         transform="matrix(1.0041949,0,0,1.0041949,-0.28413318,-11.856472)"
         id="g976">
        <path
           inkscape:connector-curvature="0"
           style="fill:#ffffff;fill-opacity:1;stroke-width:3.76373935"
           d="m 360.08008,185.0957 c -0.45497,0 -0.90496,0.1725 -1.22656,0.47071 -0.46044,0.4264 -2.97706,3.28868 -4.01563,4.56836 -0.55891,0.6887 -2.68905,3.19974 -2.82617,3.33203 -0.06,0.0576 -0.67129,0.76271 -1.35938,1.56836 -0.68812,0.80564 -2.48192,2.87905 -3.98632,4.60546 -1.50441,1.72638 -2.93072,3.37411 -3.16993,3.66211 -0.23909,0.28774 -1.69304,1.97002 -3.23047,3.74024 -1.53739,1.77022 -3.12418,3.61757 -3.52734,4.10547 -0.40282,0.48793 -2.10235,2.47713 -3.77539,4.41992 -3.89457,4.52258 -3.96875,4.62311 -3.96875,5.36133 0,0.67083 0.28898,1.00056 2.82617,3.23437 2.32399,2.04609 2.4602,2.16141 3.45313,2.96289 0.51791,0.41813 2.44755,2.06434 4.28906,3.65821 4.5891,3.97198 5.34587,4.62083 7.69141,6.58789 1.43051,1.19966 2.20858,1.71289 2.59765,1.71289 0.63261,0 1.41329,-0.75493 4.35938,-4.21289 1.03586,-1.21584 4.39118,-5.12105 7.45703,-8.67774 8.65589,-10.04156 16.47775,-19.10787 17.91601,-20.76758 1.96744,-2.27028 1.88745,-2.52532 -1.81445,-5.7539 -0.75377,-0.65734 -3.18406,-2.72033 -3.98047,-3.37891 -0.28092,-0.2324 -1.26982,-1.0842 -2.19726,-1.89453 -8.85321,-7.73522 -10.79345,-9.30469 -11.51172,-9.30469 z m 45.08008,1.93164 c -7.33832,0.20268 -13.58789,6.06705 -13.58789,13.97266 0,6.5647 4.53007,12.26327 10.90039,13.71094 2.08679,0.47418 5.54365,0.28938 7.5039,-0.40235 4.91339,-1.73359 8.44402,-5.80843 9.32813,-10.76562 0.36019,-2.02277 0.3588,-3.06992 -0.008,-5.125 -0.83388,-4.67875 -4.54202,-9.06705 -8.94532,-10.58203 -1.74583,-0.60066 -3.49795,-0.85537 -5.1914,-0.8086 z m -18.95118,20.96094 c -0.33864,0.0151 -0.67099,0.0492 -0.99414,0.10547 -2.8422,0.49716 -4.39428,1.71906 -8.39648,6.61914 -1.03096,1.26236 -2.64986,3.23777 -3.59766,4.38867 -1.63157,1.98112 -6.32308,7.69428 -7.98828,9.72656 -0.42253,0.51553 -1.23915,1.50399 -1.81445,2.19727 -2.15242,2.59317 -3.45313,4.2402 -3.45313,4.37305 0,0.0752 5.31403,0.11302 11.8086,0.082 l 11.80859,-0.0566 1.32227,3.66015 c 1.80812,5.00104 2.79964,6.40559 5.51758,7.81641 1.39853,0.72593 2.30842,0.89126 6.52539,1.19336 3.37054,0.24151 3.61413,0.28849 3.74218,0.70117 0.13269,0.42672 8.44943,21.34331 11.90625,30 0.3883,-0.31757 0.79082,-0.62705 1.20703,-0.92578 0.65235,-0.47025 1.82009,-1.15947 2.59375,-1.53516 1.33204,-0.6461 3.81845,-1.3853 5.8379,-1.78906 -4.50258,-11.30493 -11.00001,-27.6335 -11,-27.8457 0,-0.14514 0.17172,-0.38669 0.38281,-0.53711 0.79933,-0.56988 1.9238,-2.32993 2.33203,-3.65234 1.14021,-3.69113 0.0292,-7.57718 -2.84375,-9.95118 -1.83224,-1.51411 -3.14039,-1.92854 -7.08399,-2.25195 -1.49185,-0.12246 -2.78595,-0.29549 -2.875,-0.38476 -0.1508,-0.15081 -2.31124,-6.00947 -3.44921,-9.35352 -0.27402,-0.80564 -0.67313,-1.93621 -0.88868,-2.51172 -0.21543,-0.57551 -0.74502,-1.98777 -1.17578,-3.13867 -0.85485,-2.282 -1.50738,-3.35694 -2.74219,-4.52735 -1.65097,-1.56495 -4.31081,-2.49555 -6.68164,-2.40039 z m -18.44921,31.98438 -11.875,0.0547 -0.84571,1.26172 c -1.0871,1.62123 -1.56691,3.18591 -1.59375,5.15039 -0.0235,2.02084 0.43599,3.57372 1.55078,5.23633 0.90746,1.35345 1.14967,1.55499 6.67579,5.55664 5.81948,4.21406 12.84466,9.32171 12.92773,9.39844 0.0938,0.0873 -0.40777,4.02176 -0.92969,7.29687 -0.16526,1.03586 -0.53951,3.57872 -0.83008,5.65039 -0.67237,4.79286 -1.88993,13.19174 -2.30273,15.88477 -0.37897,2.46966 -0.39586,3.4952 -0.0859,4.97852 0.63794,3.04932 3.19581,5.77617 6.35938,6.77929 h 0.002 c 1.26773,0.40188 3.84099,0.35632 5.28711,-0.0937 2.97498,-0.92591 5.27368,-3.27336 6.02539,-6.15234 0.15783,-0.60431 0.62625,-3.45272 1.04102,-6.33008 0.41476,-2.87732 1.59344,-11.06933 2.62109,-18.20508 1.02773,-7.13582 1.86903,-13.50864 1.86914,-14.16015 5.7e-4,-2.36296 -1.37486,-5.25205 -3.21484,-6.75196 -0.47585,-0.38781 -1.96479,-1.49184 -3.3086,-2.45312 -5.67632,-4.06023 -11.26192,-8.18041 -11.26172,-8.30664 0,-0.0749 0.24244,-0.41822 0.54102,-0.76367 0.29834,-0.34526 0.88746,-1.04648 1.30859,-1.55664 0.42093,-0.51013 1.02312,-1.22758 1.33985,-1.59571 0.31672,-0.36827 0.57617,-0.72859 0.57617,-0.80078 0,-0.0737 -5.34543,-0.10836 -11.87695,-0.0781 z"
           transform="matrix(0.26458333,0,0,0.26458333,0,161.53332)"
           id="path1259" />
        <path
           inkscape:connector-curvature="0"
           style="font-style:normal;font-variant:normal;font-weight:bold;font-stretch:normal;font-size:medium;line-height:17.21684456px;font-family:FuturaDemiC;-inkscape-font-specification:'FuturaDemiC Bold';letter-spacing:0px;word-spacing:0px;fill:#ffffff;fill-opacity:1;stroke:none;stroke-width:0.26347807"
           d="m 70.263586,241.70483 v -2.7232 h 7.440186 v 0.41334 q 0,3.33106 -1.483179,5.47072 -2.188284,3.16087 -6.443294,3.16087 -3.768722,0 -6.151525,-2.33418 -2.358485,-2.35848 -2.358485,-6.12721 0,-3.76872 2.407119,-6.1272 2.431428,-2.35849 6.20015,-2.35849 1.604747,0 2.917716,0.43765 1.312977,0.43767 2.139658,1.16709 0.826691,0.72943 1.215719,1.21572 0.389028,0.46197 0.680806,0.99689 L 74.080934,236.38 q -0.19451,-0.31609 -0.46197,-0.63217 -0.243144,-0.34041 -0.753748,-0.77806 -0.510596,-0.46198 -1.312969,-0.72943 -0.778056,-0.29177 -1.702006,-0.29177 -2.358485,0 -3.841664,1.65337 -1.48317,1.62906 -1.48317,4.01186 0,2.16398 1.337285,3.86598 1.337295,1.67769 3.963241,1.67769 1.823573,0 3.087917,-0.85101 1.28866,-0.851 1.531804,-2.60163 z"
           id="path924-2" />
        <path
           inkscape:connector-curvature="0"
           style="font-style:normal;font-variant:normal;font-weight:bold;font-stretch:normal;font-size:medium;line-height:17.21684456px;font-family:FuturaDemiC;-inkscape-font-specification:'FuturaDemiC Bold';letter-spacing:0px;word-spacing:0px;fill:#ffffff;fill-opacity:1;stroke:none;stroke-width:0.99582261"
           d="m 425.60742,262.85156 c -3.95467,4.2e-4 -4.51996,0.05 -6.86523,0.59961 -5.08759,1.19229 -9.46968,3.26836 -13.17188,6.24024 -10.5253,8.44924 -14.73443,22.55357 -10.52343,35.26367 0.69331,2.09268 2.47369,5.78223 3.58593,7.42969 5.23665,7.75619 13.08431,12.82982 22.01953,14.23437 2.17248,0.34129 6.88054,0.38521 9.08789,0.084 6.20092,-0.84612 11.75315,-3.32143 16.60743,-7.40234 2.26786,-1.90669 3.04645,-2.73726 5.01562,-5.3457 7.89052,-10.45153 8.36894,-25.45022 1.16406,-36.52344 -4.684,-7.19879 -11.58387,-11.97869 -20.24023,-14.02148 -2.13808,-0.50487 -2.79218,-0.55905 -6.67969,-0.5586 z m 0.0391,11.35742 c 7.5108,0.0499 14.77135,4.48587 18.3086,11.33204 1.01469,1.9638 2.14555,6.17928 2.21094,8.24218 0.14071,4.43849 -0.83172,8.15385 -3.10352,11.86524 -1.74735,2.85486 -3.60127,4.77361 -6.38867,6.61133 -3.74714,2.47007 -8.89404,3.68605 -13.42188,3.16992 -6.59204,-0.75116 -12.57004,-4.73746 -15.83789,-10.5625 -0.87365,-1.55833 -2.20288,-5.39743 -2.36914,-6.83985 -0.95251,-8.26692 2.1543,-15.4186 8.75781,-20.1582 0.65235,-0.47025 1.82005,-1.15947 2.59375,-1.53516 1.80617,-0.87609 5.74382,-1.93179 7.7461,-2.07617 0.50192,-0.0362 1.00318,-0.0521 1.5039,-0.0488 z"
           transform="matrix(0.26458333,0,0,0.26458333,0,161.53332)"
           id="path922-3" />
        <path
           inkscape:connector-curvature="0"
           style="font-style:normal;font-variant:normal;font-weight:bold;font-stretch:normal;font-size:medium;line-height:17.21684456px;font-family:FuturaDemiC;-inkscape-font-specification:'FuturaDemiC Bold';letter-spacing:0px;word-spacing:0px;fill:#ffffff;fill-opacity:1;stroke:none;stroke-width:0.26347807"
           d="m 46.345804,247.66184 h -3.160868 v -16.58236 h 2.188293 l 9.871613,11.28184 v -10.91713 h 3.160859 v 16.53374 h -2.188284 l -9.871613,-11.28185 z"
           id="path920-5" />
        <path
           inkscape:connector-curvature="0"
           style="font-style:normal;font-variant:normal;font-weight:bold;font-stretch:normal;font-size:medium;line-height:17.21684456px;font-family:FuturaDemiC;-inkscape-font-specification:'FuturaDemiC Bold';letter-spacing:0px;word-spacing:0px;fill:#ffffff;fill-opacity:1;stroke:none;stroke-width:0.26347807"
           d="m 36.346542,231.44419 h 3.160859 v 16.21765 h -3.160859 z"
           id="path918-6" />
        <path
           inkscape:connector-curvature="0"
           style="font-style:normal;font-variant:normal;font-weight:bold;font-stretch:normal;font-size:medium;line-height:17.21684456px;font-family:FuturaDemiC;-inkscape-font-specification:'FuturaDemiC Bold';letter-spacing:0px;word-spacing:0px;fill:#ffffff;fill-opacity:1;stroke:none;stroke-width:0.26347807"
           d="m 14.387289,247.66184 3.014975,-16.50942 h 2.188284 l 4.400894,10.60105 4.595413,-10.60105 h 2.188284 l 2.723205,16.50942 h -3.209493 l -1.458862,-9.99318 -4.449519,10.21202 h -0.875315 l -4.255001,-10.21202 -1.653372,9.99318 z"
           id="path916-5" />
        <path
           inkscape:connector-curvature="0"
           style="font-style:normal;font-variant:normal;font-weight:bold;font-stretch:normal;font-size:medium;line-height:17.21684456px;font-family:FuturaDemiC;-inkscape-font-specification:'FuturaDemiC Bold';letter-spacing:0px;word-spacing:0px;fill:#ffffff;fill-opacity:1;stroke:none;stroke-width:0.99582261"
           d="m 334.86523,262.85156 c -3.95466,4.2e-4 -4.51999,0.05 -6.86523,0.59961 -5.0876,1.19229 -9.46968,3.26836 -13.17188,6.24024 -10.52531,8.44924 -14.73443,22.55357 -10.52343,35.26367 0.69332,2.09268 2.47371,5.78223 3.58593,7.42969 5.23666,7.75619 13.08432,12.82982 22.01954,14.23437 2.1725,0.34129 6.88052,0.38521 9.08789,0.084 6.20089,-0.84612 11.75317,-3.32143 16.60742,-7.40234 2.26788,-1.90669 3.04642,-2.73726 5.01562,-5.3457 7.89052,-10.45153 8.36893,-25.45022 1.16407,-36.52344 -4.68402,-7.19879 -11.58388,-11.97869 -20.24024,-14.02148 -2.13807,-0.50487 -2.79215,-0.55905 -6.67969,-0.5586 z m 0.0391,11.35742 c 7.51078,0.0499 14.77132,4.48587 18.30859,11.33204 1.01468,1.9638 2.14555,6.17928 2.21094,8.24218 0.14071,4.43849 -0.83173,8.15385 -3.10352,11.86524 -1.74736,2.85486 -3.60128,4.77361 -6.38867,6.61133 -3.74713,2.47007 -8.89402,3.68605 -13.42187,3.16992 -6.59206,-0.75116 -12.57007,-4.73746 -15.83789,-10.5625 -0.87368,-1.55833 -2.20304,-5.39743 -2.36915,-6.83985 -0.95252,-8.26692 2.1543,-15.4186 8.75782,-20.1582 0.65235,-0.47025 1.82006,-1.15947 2.59375,-1.53516 1.80617,-0.87609 5.74379,-1.93179 7.74609,-2.07617 0.50192,-0.0362 1.00319,-0.0521 1.50391,-0.0488 z"
           transform="matrix(0.26458333,0,0,0.26458333,0,161.53332)"
           id="path1384-0" />
      </g>
      <g
         id="text4898"
         style="font-style:normal;font-variant:normal;font-weight:bold;font-stretch:normal;font-size:24.10099792px;line-height:15.0631237px;font-family:FuturaDemiC;-inkscape-font-specification:'FuturaDemiC Bold';letter-spacing:0px;word-spacing:0px;fill:#ffffff;fill-opacity:1;stroke:none;stroke-width:0.26458332"
         aria-label="FOOD">
        <path
           id="path824"
           style="font-style:normal;font-variant:normal;font-weight:bold;font-stretch:normal;font-family:FuturaDemiC;-inkscape-font-specification:'FuturaDemiC Bold';fill:#ffffff;fill-opacity:1;stroke-width:0.26458332"
           d="m 44.71255,242.56328 v 2.69931 h -5.398623 v 3.59105 h 5.061209 v 2.69931 h -5.061209 v 7.08569 h -3.13313 v -16.07536 z"
           inkscape:connector-curvature="0" />
        <path
           id="path826"
           style="font-style:normal;font-variant:normal;font-weight:bold;font-stretch:normal;font-family:FuturaDemiC;-inkscape-font-specification:'FuturaDemiC Bold';fill:#ffffff;fill-opacity:1;stroke-width:0.26458332"
           d="m 49.045835,244.56366 q 2.410099,-2.3619 6.193956,-2.3619 3.783857,0 6.169856,2.3619 2.410099,2.3619 2.410099,6.04935 0,3.68745 -2.410099,6.04935 -2.385999,2.3378 -6.169856,2.3378 -3.783857,0 -6.193956,-2.3378 -2.385999,-2.3619 -2.385999,-6.04935 0,-3.68745 2.385999,-6.04935 z m 2.337796,10.05011 q 1.494262,1.54247 3.85616,1.54247 2.361898,0 3.85616,-1.54247 1.494262,-1.56656 1.494262,-4.00076 0,-2.4342 -1.518363,-4.00077 -1.494262,-1.56656 -3.832059,-1.56656 -2.337797,0 -3.85616,1.56656 -1.494261,1.56657 -1.494261,4.00077 0,2.4342 1.494261,4.00076 z"
           inkscape:connector-curvature="0" />
        <path
           id="path828"
           style="font-style:normal;font-variant:normal;font-weight:bold;font-stretch:normal;font-family:FuturaDemiC;-inkscape-font-specification:'FuturaDemiC Bold';fill:#ffffff;fill-opacity:1;stroke-width:0.26458332"
           d="m 68.345462,244.56366 q 2.4101,-2.3619 6.193956,-2.3619 3.783857,0 6.169856,2.3619 2.4101,2.3619 2.4101,6.04935 0,3.68745 -2.4101,6.04935 -2.385999,2.3378 -6.169856,2.3378 -3.783856,0 -6.193956,-2.3378 -2.385999,-2.3619 -2.385999,-6.04935 0,-3.68745 2.385999,-6.04935 z m 2.337797,10.05011 q 1.494262,1.54247 3.856159,1.54247 2.361898,0 3.85616,-1.54247 1.494262,-1.56656 1.494262,-4.00076 0,-2.4342 -1.518363,-4.00077 -1.494262,-1.56656 -3.832059,-1.56656 -2.337796,0 -3.856159,1.56656 -1.494262,1.56657 -1.494262,4.00077 0,2.4342 1.494262,4.00076 z"
           inkscape:connector-curvature="0" />
        <path
           id="path830"
           style="font-style:normal;font-variant:normal;font-weight:bold;font-stretch:normal;font-family:FuturaDemiC;-inkscape-font-specification:'FuturaDemiC Bold';fill:#ffffff;fill-opacity:1;stroke-width:0.26458332"
           d="m 86.030322,242.56328 h 4.193574 q 1.903979,0 3.325938,0.33741 1.421959,0.31331 2.65111,1.22915 1.47016,1.10865 2.265493,2.79572 0.819434,1.68707 0.819434,3.68745 0,4.21767 -3.229533,6.48317 -1.301454,0.91584 -2.65111,1.22915 -1.349656,0.31331 -3.229534,0.31331 h -4.145372 z m 3.13313,2.69931 v 10.67674 h 0.96404 q 2.458302,0 3.928463,-1.06044 0.939939,-0.67483 1.470161,-1.80758 0.530222,-1.15685 0.530222,-2.4583 0,-1.27735 -0.530222,-2.4101 -0.506121,-1.15685 -1.44606,-1.87988 -1.421959,-1.06044 -3.952564,-1.06044 z"
           inkscape:connector-curvature="0" />
      </g>
    </g>
  </g>
</svg>
