<?xml version="1.0" encoding="UTF-8" standalone="no"?>
<!-- Created with Inkscape (http://www.inkscape.org/) -->

<svg
   xmlns:dc="http://purl.org/dc/elements/1.1/"
   xmlns:cc="http://creativecommons.org/ns#"
   xmlns:rdf="http://www.w3.org/1999/02/22-rdf-syntax-ns#"
   xmlns:svg="http://www.w3.org/2000/svg"
   xmlns="http://www.w3.org/2000/svg"
   xmlns:sodipodi="http://sodipodi.sourceforge.net/DTD/sodipodi-0.dtd"
   xmlns:inkscape="http://www.inkscape.org/namespaces/inkscape"
   width="512"
   height="512"
   viewBox="0 0 135.46666 135.46667"
   version="1.1"
   id="svg8"
   sodipodi:docname="logo-docser.svg"
   inkscape:export-filename="D:\DOCSER\Mobile App\app-icon-1.png"
   inkscape:export-xdpi="96"
   inkscape:export-ydpi="96"
   inkscape:version="0.92.3 (2405546, 2018-03-11)">
  <defs
     id="defs2">
    <inkscape:perspective
       id="perspective30"
       inkscape:persp3d-origin="625 : 107.08333 : 1"
       inkscape:vp_z="1250 : 160.625 : 1"
       inkscape:vp_y="0 : 1000 : 0"
       inkscape:vp_x="0 : 160.625 : 1"
       sodipodi:type="inkscape:persp3d" />
    <inkscape:perspective
       id="perspective30-0"
       inkscape:persp3d-origin="625 : 107.08333 : 1"
       inkscape:vp_z="1250 : 160.625 : 1"
       inkscape:vp_y="0 : 1000 : 0"
       inkscape:vp_x="0 : 160.625 : 1"
       sodipodi:type="inkscape:persp3d" />
    <inkscape:perspective
       sodipodi:type="inkscape:persp3d"
       inkscape:vp_x="0 : 160.625 : 1"
       inkscape:vp_y="0 : 1000 : 0"
       inkscape:vp_z="1250 : 160.625 : 1"
       inkscape:persp3d-origin="625 : 107.08333 : 1"
       id="perspective30-7" />
    <inkscape:perspective
       sodipodi:type="inkscape:persp3d"
       inkscape:vp_x="0 : 160.625 : 1"
       inkscape:vp_y="0 : 1000 : 0"
       inkscape:vp_z="1250 : 160.625 : 1"
       inkscape:persp3d-origin="625 : 107.08333 : 1"
       id="perspective30-0-4" />
  </defs>
  <sodipodi:namedview
     id="base"
     pagecolor="#ffffff"
     bordercolor="#666666"
     borderopacity="1.0"
     inkscape:pageopacity="0.0"
     inkscape:pageshadow="2"
     inkscape:zoom="1.402061"
     inkscape:cx="273.57455"
     inkscape:cy="272.81068"
     inkscape:document-units="px"
     inkscape:current-layer="layer1"
     showgrid="false"
     units="px"
     inkscape:window-width="1600"
     inkscape:window-height="837"
     inkscape:window-x="-8"
     inkscape:window-y="-8"
     inkscape:window-maximized="1"
     showguides="true"
     inkscape:measure-start="0,0"
     inkscape:measure-end="0,0"
     inkscape:lockguides="true" />
  <metadata
     id="metadata5">
    <rdf:RDF>
      <cc:Work
         rdf:about="">
        <dc:format>image/svg+xml</dc:format>
        <dc:type
           rdf:resource="http://purl.org/dc/dcmitype/StillImage" />
        <dc:title />
      </cc:Work>
    </rdf:RDF>
  </metadata>
  <g
     inkscape:label="Layer 1"
     inkscape:groupmode="layer"
     id="layer1"
     transform="translate(-135.46666,-161.53332)">
    <g
       transform="translate(56.361869,77.219323)"
       id="g4630" />
    <g
       aria-label="m"
       style="font-style:normal;font-weight:normal;font-size:47.34103775px;line-height:29.58814812px;font-family:sans-serif;letter-spacing:0px;word-spacing:0px;fill:#000000;fill-opacity:1;stroke:none;stroke-width:0.26458335"
       id="text4834"
       transform="translate(38.139827,135.0937)" />
    <g
       aria-label="m"
       style="font-style:normal;font-weight:normal;font-size:47.34103775px;line-height:29.58814812px;font-family:sans-serif;letter-spacing:0px;word-spacing:0px;fill:#75a12e;fill-opacity:1;stroke:none;stroke-width:0.26865035"
       id="g876"
       transform="matrix(-0.98216813,0.04675065,-0.04659998,-0.98534378,113.74979,247.41639)" />
    <g
       transform="matrix(0.95912595,0.04675065,0.53225022,-0.98534378,-11.409155,239.22163)"
       id="g911"
       style="font-style:normal;font-weight:normal;font-size:47.34103775px;line-height:29.58814812px;font-family:sans-serif;letter-spacing:0px;word-spacing:0px;fill:#75a12e;fill-opacity:1;stroke:none;stroke-width:0.26865035"
       aria-label="m" />
    <rect
       inkscape:export-ydpi="96"
       inkscape:export-xdpi="96"
       ry="26.458332"
       y="161.53333"
       x="135.46666"
       height="135.46666"
       width="135.46666"
       id="rect829"
       style="opacity:0;fill:#ffffff;fill-opacity:1;stroke:none;stroke-width:0.52916658;stroke-linecap:round;stroke-linejoin:miter;stroke-miterlimit:4;stroke-dasharray:none;stroke-opacity:1;paint-order:normal"
       rx="26.458332" />
    <g
       id="g843"
       transform="matrix(0.97813838,0,0,0.97813838,58.006695,86.747225)"
       style="fill:#ffffff;stroke-width:0.27049682">
      <g
         id="g835"
         style="fill:#ffffff;stroke-width:0.27049682">
        <path
           d="m 114.3428,194.0678 v -11.6005 h 3.9376 c 0.9258,0 1.7345,0.1525 2.4262,0.4575 0.6916,0.305 1.2691,0.7189 1.732,1.2418 0.4628,0.5228 0.8115,1.1356 1.0457,1.838 0.2341,0.7027 0.3512,1.4514 0.3512,2.2468 0,0.8821 -0.1307,1.6801 -0.3921,2.3935 -0.2613,0.7135 -0.6346,1.3233 -1.1191,1.8298 -0.4847,0.5066 -1.0675,0.8986 -1.7484,1.1764 -0.6806,0.2778 -1.4459,0.4167 -2.2955,0.4167 z m 8.3489,-5.8164 c 0,-0.6974 -0.0978,-1.3371 -0.294,-1.9199 -0.1961,-0.5828 -0.4819,-1.0866 -0.8577,-1.5115 -0.3759,-0.4246 -0.836,-0.7543 -1.3808,-0.9884 -0.5445,-0.2342 -1.1707,-0.3512 -1.8788,-0.3512 h -2.7938 v 9.5743 h 2.7938 c 0.7189,0 1.3533,-0.1225 1.9035,-0.3674 0.5499,-0.2452 1.0102,-0.5828 1.3804,-1.0131 0.3705,-0.4303 0.6509,-0.9368 0.8417,-1.5196 0.1904,-0.5826 0.2857,-1.2172 0.2857,-1.9032 z m 8.0062,5.898 c -0.8062,0 -1.5441,-0.1661 -2.2139,-0.4983 -0.6701,-0.3322 -1.2447,-0.7733 -1.7237,-1.3235 -0.4794,-0.5499 -0.8499,-1.1789 -1.1112,-1.887 -0.2614,-0.7081 -0.3921,-1.4324 -0.3921,-2.1731 0,-0.7733 0.1389,-1.514 0.4167,-2.2221 0.2775,-0.7078 0.6616,-1.3342 1.1517,-1.8788 0.4902,-0.5448 1.0676,-0.9776 1.732,-1.2991 0.6645,-0.3211 1.3833,-0.4819 2.1566,-0.4819 0.8062,0 1.544,0.1715 2.2139,0.5148 0.6701,0.343 1.2418,0.7923 1.7155,1.3479 0.474,0.5556 0.8416,1.1846 1.103,1.887 0.2613,0.7027 0.392,1.4187 0.392,2.1487 0,0.7733 -0.1389,1.514 -0.4164,2.222 -0.2778,0.7079 -0.6591,1.3315 -1.1438,1.8706 -0.4847,0.5392 -1.0593,0.9695 -1.7237,1.2909 -0.6645,0.3212 -1.3834,0.4819 -2.1566,0.4819 z m -4.2971,-5.8819 c 0,0.6319 0.1035,1.2391 0.3104,1.8219 0.2069,0.5828 0.5009,1.1001 0.8822,1.5522 0.3812,0.4518 0.8333,0.8113 1.356,1.0783 0.523,0.2667 1.1056,0.4003 1.7485,0.4003 0.6533,0 1.2469,-0.1418 1.7807,-0.425 0.5337,-0.2831 0.9859,-0.6533 1.3561,-1.1109 0.3705,-0.4575 0.6562,-0.9748 0.8577,-1.5522 0.2016,-0.5771 0.3025,-1.1653 0.3025,-1.7646 0,-0.6318 -0.1063,-1.239 -0.3186,-1.8218 -0.2126,-0.5825 -0.5094,-1.0973 -0.8907,-1.5437 -0.3812,-0.4468 -0.8331,-0.8034 -1.3561,-1.0704 -0.5227,-0.2667 -1.1001,-0.4003 -1.7316,-0.4003 -0.6537,0 -1.2473,0.1389 -1.781,0.4167 -0.5338,0.2778 -0.9859,0.6455 -1.3561,1.1027 -0.3705,0.4575 -0.6563,0.9751 -0.8578,1.5523 -0.2016,0.5774 -0.3022,1.1656 -0.3022,1.7645 z m 11.1266,-0.0816 c 0,-0.697 0.1224,-1.3915 0.3676,-2.0832 0.2449,-0.6916 0.6018,-1.3099 1.0701,-1.8544 0.4683,-0.5446 1.0457,-0.9885 1.732,-1.3317 0.6862,-0.343 1.4649,-0.5145 2.3363,-0.5145 1.0349,0 1.9199,0.2341 2.6552,0.7024 0.735,0.4686 1.277,1.0783 1.6257,1.8301 l -0.8989,0.5555 c -0.1851,-0.3812 -0.411,-0.7027 -0.678,-0.964 -0.2668,-0.2614 -0.5528,-0.474 -0.8578,-0.6372 -0.305,-0.1633 -0.6208,-0.2807 -0.9476,-0.3513 -0.3266,-0.0708 -0.648,-0.1063 -0.9638,-0.1063 -0.6973,0 -1.3127,0.1418 -1.8465,0.425 -0.5335,0.2831 -0.9831,0.6533 -1.3479,1.1108 -0.3648,0.4576 -0.6398,0.9723 -0.8251,1.5441 -0.1851,0.5717 -0.2776,1.152 -0.2776,1.7402 0,0.6426 0.1115,1.258 0.3348,1.8462 0.2234,0.5882 0.5284,1.1083 0.915,1.5602 0.3867,0.4521 0.8442,0.8115 1.3726,1.0783 0.5281,0.267 1.1027,0.4005 1.7237,0.4005 0.3266,0 0.6616,-0.0411 1.0046,-0.1227 0.3433,-0.0817 0.6755,-0.2124 0.9967,-0.3921 0.3214,-0.1797 0.6182,-0.4031 0.8906,-0.6698 0.2722,-0.267 0.5009,-0.591 0.686,-0.9723 l 0.9479,0.4901 c -0.1854,0.4357 -0.4467,0.8198 -0.7843,1.152 -0.3376,0.3322 -0.7135,0.6126 -1.1274,0.8413 -0.4138,0.2288 -0.8523,0.4031 -1.3152,0.523 -0.4629,0.1197 -0.9179,0.1798 -1.3644,0.1798 -0.7951,0 -1.525,-0.1744 -2.1894,-0.523 -0.6645,-0.3484 -1.2362,-0.8034 -1.7156,-1.3641 -0.479,-0.5609 -0.8523,-1.1982 -1.1191,-1.9117 -0.2667,-0.7134 -0.4002,-1.4405 -0.4002,-2.1812 z"
           style="fill:#ffffff;fill-rule:evenodd;stroke-width:0.27049682"
           id="path831"
           inkscape:connector-curvature="0" />
        <path
           d="m 156.2839,184.6403 c -0.3268,-0.3702 -0.7625,-0.6698 -1.307,-0.8986 -0.5446,-0.2287 -1.1656,-0.343 -1.8627,-0.343 -1.0238,0 -1.7699,0.1934 -2.2382,0.58 -0.4686,0.3867 -0.7027,0.9122 -0.7027,1.5766 0,0.3487 0.0626,0.6344 0.1879,0.8578 0.1253,0.2234 0.3186,0.4167 0.58,0.58 0.2614,0.1635 0.5964,0.305 1.0049,0.4249 0.4085,0.1199 0.8903,0.2395 1.4459,0.3594 0.6208,0.1307 1.1792,0.2778 1.6747,0.4411 0.4955,0.1635 0.9176,0.3676 1.2663,0.6128 0.3486,0.245 0.6154,0.5417 0.8005,0.8904 0.1854,0.3487 0.2778,0.7843 0.2778,1.3071 0,0.5337 -0.1035,0.9966 -0.3104,1.3886 -0.2069,0.3924 -0.4955,0.7192 -0.866,0.9806 -0.3702,0.2613 -0.8116,0.4546 -1.3235,0.5799 -0.5119,0.1253 -1.0729,0.188 -1.6826,0.188 -1.7975,0 -3.3495,-0.561 -4.6568,-1.683 l 0.572,-0.9312 c 0.207,0.2177 0.4547,0.4247 0.7433,0.6208 0.2888,0.1962 0.61,0.3677 0.964,0.5148 0.3541,0.1468 0.7325,0.2614 1.1356,0.343 0.4031,0.0816 0.8277,0.1225 1.2745,0.1225 0.9257,0 1.6475,-0.1662 2.1648,-0.4984 0.5173,-0.3322 0.7761,-0.8359 0.7761,-1.5111 0,-0.3595 -0.0737,-0.6619 -0.2205,-0.9068 -0.1472,-0.2452 -0.3677,-0.4575 -0.6619,-0.6373 -0.294,-0.1797 -0.6588,-0.335 -1.0945,-0.4657 -0.4357,-0.1307 -0.9422,-0.2613 -1.5196,-0.392 -0.6101,-0.1418 -1.1438,-0.2889 -1.6013,-0.4414 -0.4573,-0.1525 -0.8442,-0.343 -1.16,-0.5717 -0.3157,-0.2288 -0.5527,-0.5037 -0.7106,-0.8252 -0.1579,-0.3212 -0.237,-0.716 -0.237,-1.1846 0,-0.5335 0.1009,-1.0103 0.3022,-1.4295 0.2015,-0.4192 0.4875,-0.7679 0.8578,-1.0457 0.3704,-0.2778 0.8061,-0.4901 1.3073,-0.6372 0.5009,-0.1471 1.0565,-0.2206 1.6665,-0.2206 0.7733,0 1.4621,0.1171 2.0667,0.3513 0.6046,0.2344 1.152,0.5638 1.6421,0.9887 z m 10.9307,8.4144 v 1.0131 h -7.7936 v -11.6005 h 7.6465 v 1.0131 h -6.5027 v 4.1828 h 5.6693 v 0.9638 h -5.6693 v 4.4277 z m 2.1566,1.0131 v -11.6005 h 4.9017 c 0.5009,0 0.9612,0.1063 1.3805,0.3186 0.4192,0.2126 0.7815,0.4901 1.0865,0.8334 0.305,0.343 0.542,0.7324 0.7106,1.1681 0.169,0.4357 0.2534,0.8768 0.2534,1.3235 0,0.4247 -0.0626,0.8306 -0.1879,1.2172 -0.1253,0.3867 -0.2996,0.7353 -0.523,1.0457 -0.2231,0.3104 -0.4927,0.5718 -0.8087,0.7841 -0.3158,0.2126 -0.6698,0.3569 -1.0619,0.4331 l 2.8429,4.4768 h -1.2906 l -2.7287,-4.2806 h -3.431 v 4.2806 z m 1.1438,-5.2937 h 3.7905 c 0.3376,0 0.6454,-0.0734 0.9229,-0.2206 0.2778,-0.1471 0.5148,-0.3458 0.711,-0.5964 0.1958,-0.2505 0.3483,-0.5337 0.4575,-0.8495 0.1088,-0.3161 0.1633,-0.6483 0.1633,-0.9967 0,-0.3486 -0.0627,-0.6834 -0.188,-1.0049 -0.1253,-0.3214 -0.2939,-0.6017 -0.5065,-0.8413 -0.2123,-0.2398 -0.4629,-0.4303 -0.7515,-0.572 -0.2886,-0.1415 -0.591,-0.2123 -0.9068,-0.2123 h -3.6924 z"
           style="fill:#ffffff;fill-rule:evenodd;stroke-width:0.27049682"
           id="path833"
           inkscape:connector-curvature="0" />
      </g>
      <g
         id="g841"
         style="fill:#ffffff;stroke-width:0.27049682">
        <path
           d="m 113.6796,166.7931 c 8.7694,0.0574 17.4705,0.007 26.1572,0.007 9.2391,0 15.0464,0.424 22.9003,-3.0906 10.4289,-4.6668 20.3587,-15.7905 20.4593,-31.4448 0.1025,-15.8848 -9.6276,-26.7911 -20.1202,-31.8066 -7.3553,-3.5159 -13.8922,-3.185 -22.8839,-3.185 -8.8145,0 -17.6599,-0.0731 -26.471,0.011 z m 25.6354,-49.8356 c -2.1238,0.7364 -1.9645,2.1757 -1.987,4.6975 l -0.0178,6.5964 0.013,13.1921 c 0.006,2.1409 -0.3118,4.2606 1.2417,5.3704 1.1153,0.7966 4.4309,0.5121 6.0186,0.5169 2.2825,0.007 11.4122,0.2673 12.9521,-0.1696 2.0185,-0.573 1.9919,-2.2811 2.0083,-4.5915 l -0.013,-13.1921 c -0.0527,-4.3892 0.9019,-4.2018 -5.622,-4.2442 -3.9796,0.1272 -1.892,-1.7635 -2.8165,-7.1448 -0.0698,-0.5545 -0.6537,-1.1221 -1.5877,-1.1152 z"
           style="fill:#ffffff;fill-rule:evenodd;stroke-width:0.27049682"
           id="path837"
           inkscape:connector-curvature="0" />
        <path
           d="m 157.2546,150.1315 c 1.2615,-0.5579 2.5806,-0.307 4.0397,-2.4376 1.198,-1.7484 0.9491,-3.0483 0.9491,-5.4456 v -12.8707 c 0,-1.7355 0.3535,-4.6395 -0.4732,-5.9256 l -9.4634,-9.0067 c -0.4383,-0.3447 -1.131,-0.478 -1.5221,-0.5129 h -11.1326 c -0.9832,0.4322 -2.4834,0.4048 -3.7279,1.9597 -1.0257,1.2814 -1.3723,2.3823 -1.3648,4.476 v 22.8457 c -0.001,2.6462 0.2147,4.4582 2.5676,6.0083 0.3439,0.227 0.56,0.3412 0.9552,0.4828 z m -17.9396,-33.174 c -2.1238,0.7364 -1.9645,2.1757 -1.987,4.6975 l -0.0178,6.5964 0.013,13.1921 c 0.006,2.1409 -0.3118,4.2606 1.2417,5.3704 l 0.0541,0.0362 v 7e-4 l 0.0567,0.0348 0.0602,0.0336 0.0629,0.0314 v 7e-4 l 0.0656,0.0301 0.0691,0.0294 0.0711,0.0273 0.0738,0.0267 0.0766,0.0246 v 7e-4 l 0.0787,0.0232 0.0813,0.0226 0.0835,0.0212 0.0854,0.0198 0.0876,0.0192 0.0895,0.0171 v 7e-4 l 0.0917,0.0164 0.0929,0.015 v 7e-4 l 0.0951,0.0137 v 7e-4 l 0.0964,0.0129 0.0985,0.0124 v 6e-4 l 0.0991,0.011 0.1005,0.0102 v 7e-4 l 0.1026,0.009 v 7e-4 l 0.1032,0.008 v 7e-4 l 0.104,0.008 0.1053,0.007 v 7e-4 l 0.106,0.006 0.1066,0.005 0.1081,0.005 v 7e-4 l 0.108,0.004 0.1087,0.003 0.1094,0.003 v 7e-4 l 0.1094,0.002 0.1101,0.002 0.1094,10e-4 0.1101,7e-4 0.1101,7e-4 h 0.1101 l 0.1101,-7e-4 0.1094,-7e-4 0.1087,-7e-4 v -6e-4 l 0.1087,-7e-4 v -7e-4 l 0.1081,-0.001 0.1073,-0.002 0.1067,-0.002 0.106,-0.002 0.1046,-0.002 v -7e-4 l 0.1039,-0.002 0.1033,-0.003 0.1019,-0.003 0.0998,-0.003 0.0991,-0.002 v -7e-4 l 0.0978,-0.002 0.0957,-0.003 0.0944,-0.002 0.093,-0.003 0.0909,-0.002 0.0889,-0.001 0.0869,-0.002 0.0848,-10e-4 0.0827,-6e-4 0.0807,-7e-4 0.0779,-7e-4 h 0.0759 c 2.2825,0.007 11.4122,0.2673 12.9521,-0.1696 l 0.093,-0.0273 0.0903,-0.0294 0.0875,-0.0315 0.0841,-0.0321 0.082,-0.0342 0.0787,-0.0363 0.0759,-0.0376 0.0738,-0.0389 0.0705,-0.0404 0.0683,-0.0417 0.0664,-0.0438 0.0629,-0.0451 0.0608,-0.0472 0.0588,-0.0478 0.0561,-0.05 0.054,-0.0512 0.052,-0.0527 0.0492,-0.054 0.0472,-0.0554 0.0451,-0.0567 h 7e-4 l 0.0431,-0.0588 0.041,-0.0595 0.0397,-0.0609 0.0369,-0.0629 0.0356,-0.0636 h 6e-4 l 0.0335,-0.0656 0.0315,-0.0664 h 7e-4 l 0.0301,-0.0683 0.0287,-0.0691 0.0266,-0.0704 h 7e-4 l 0.0246,-0.0725 h 7e-4 l 0.024,-0.0732 0.0218,-0.0745 h 7e-4 l 0.0205,-0.0752 h 7e-4 l 0.0192,-0.0773 0.0184,-0.0779 0.0171,-0.0794 0.0158,-0.0806 h 6e-4 l 0.0144,-0.0821 0.0137,-0.0827 0.0123,-0.0848 0.0116,-0.0848 0.0103,-0.0868 0.01,-0.0876 0.008,-0.0889 h 7e-4 l 0.007,-0.0895 0.007,-0.091 0.006,-0.0923 h 7e-4 l 0.005,-0.093 h 7e-4 l 0.004,-0.0943 h 7e-4 l 0.004,-0.0958 0.003,-0.0957 0.003,-0.0978 0.003,-0.0984 0.002,-0.0992 0.002,-0.1005 0.001,-0.1012 h 7e-4 l 7e-4,-0.1026 h 7e-4 l 7e-4,-0.1032 6e-4,-0.104 h 7e-4 l 7e-4,-0.1053 7e-4,-0.1059 7e-4,-0.1067 7e-4,-0.108 -0.013,-13.1921 -0.002,-0.2024 v -0.1956 l 7e-4,-0.1894 0.001,-0.1832 0.002,-0.1765 0.003,-0.1709 0.003,-0.1641 0.003,-0.1586 0.003,-0.1525 0.003,-0.147 v -7e-4 l 0.003,-0.1409 0.001,-0.1361 7e-4,-0.1306 v -0.1251 l -0.001,-0.1203 -0.003,-0.1149 -0.005,-0.1101 -0.007,-0.1053 -0.008,-0.1005 -0.0102,-0.0957 -0.013,-0.0917 -0.0157,-0.0868 -0.0185,-0.0827 v -7e-4 l -0.0219,-0.078 -0.0246,-0.0745 -0.028,-0.0704 v -7e-4 l -0.0315,-0.0663 -0.0349,-0.063 -0.0396,-0.0594 -0.0438,-0.0554 v -7e-4 l -0.0472,-0.052 -0.0526,-0.0492 -0.0574,-0.0458 v -7e-4 l -0.0616,-0.0424 -0.067,-0.0397 v -6e-4 l -0.0725,-0.037 -0.0786,-0.0342 -0.0834,-0.0314 v -7e-4 l -0.0896,-0.0287 -0.0957,-0.0267 -0.1019,-0.0246 -0.1087,-0.0219 v -7e-4 l -0.1149,-0.0198 -0.1224,-0.0178 v -7e-4 l -0.1292,-0.0157 v -7e-4 l -0.1361,-0.0143 -0.1436,-0.013 -0.1518,-0.011 v -6e-4 l -0.1593,-0.01 -0.1676,-0.009 -0.1757,-0.007 -0.1839,-0.006 -0.1928,-0.005 -0.2011,-0.004 v -7e-4 l -0.2106,-0.004 -0.2202,-0.003 v -7e-4 l -0.229,-0.002 v -7e-4 l -0.2387,-0.001 v -7e-4 l -0.2482,-0.001 -0.2584,-10e-4 v -7e-4 l -0.2688,-10e-4 -0.2789,-0.001 -0.29,-0.001 -0.3001,-0.002 -0.1819,0.005 -0.1737,0.001 -0.1648,-0.002 -0.1573,-0.004 -0.1483,-0.008 -0.1409,-0.0109 -0.1333,-0.0144 -0.1258,-0.017 -0.1183,-0.0206 -0.1115,-0.0232 -0.1046,-0.0274 -0.0978,-0.03 h -7e-4 l -0.0916,-0.0336 -0.0855,-0.0369 -0.0793,-0.0403 -0.0738,-0.0438 -0.0684,-0.0478 -0.0622,-0.0506 h -7e-4 l -0.0575,-0.0547 -0.0526,-0.0582 -0.0479,-0.0615 -0.0437,-0.0656 -0.039,-0.0691 -0.0349,-0.0725 h -7e-4 l -0.0307,-0.0766 -0.0274,-0.0807 -0.0239,-0.0841 h -7e-4 l -0.0205,-0.0882 -0.0171,-0.0916 h -7e-4 l -0.0144,-0.0964 -0.0123,-0.0998 -0.01,-0.104 -0.008,-0.1073 -0.005,-0.1122 -0.003,-0.1162 h -7e-4 l -0.001,-0.1204 -7e-4,-0.1244 7e-4,-0.1285 0.001,-0.1327 0.002,-0.1368 h 7e-4 l 0.003,-0.1415 0.004,-0.1456 0.003,-0.1505 0.003,-0.1545 0.003,-0.1586 h 7e-4 l 0.002,-0.1635 h 6e-4 l 0.001,-0.1682 h 7e-4 l 7e-4,-0.1723 v -0.1771 l -7e-4,-0.1819 h -7e-4 l -0.002,-0.186 -0.005,-0.1907 -0.006,-0.1963 -0.008,-0.2003 h -7e-4 l -0.0102,-0.2052 -0.0137,-0.2099 -0.0157,-0.2147 -0.0192,-0.2195 -0.0219,-0.2249 h -6e-4 l -0.0253,-0.2298 -0.0294,-0.2345 -0.0329,-0.2393 -0.0369,-0.2448 -0.041,-0.2496 -0.003,-0.026 -0.005,-0.026 -0.005,-0.026 -0.006,-0.0259 -0.007,-0.026 -0.007,-0.026 -0.008,-0.026 -0.009,-0.0253 -0.01,-0.026 -0.0103,-0.0253 -0.0109,-0.0253 -0.0116,-0.026 -0.0123,-0.0246 -0.013,-0.0253 -0.0144,-0.0246 -0.0143,-0.0246 -0.0151,-0.0246 -0.0157,-0.0246 -0.0164,-0.024 -0.0178,-0.0239 -0.0178,-0.0232 -0.0184,-0.0233 -0.0192,-0.0232 -0.0198,-0.0226 -0.0205,-0.0226 -0.0219,-0.0219 -0.0219,-0.0218 -0.0225,-0.0212 -0.0233,-0.0212 -0.0232,-0.0205 v -7e-4 l -0.0247,-0.0199 -0.0253,-0.0198 -0.0259,-0.0198 -0.026,-0.0192 -0.0274,-0.0184 -0.0273,-0.0185 -0.0287,-0.0171 v -7e-4 l -0.0288,-0.0171 -0.0294,-0.0164 -0.0301,-0.0164 -0.0307,-0.0157 -0.0315,-0.015 -0.0314,-0.0151 -0.0329,-0.0137 -0.0328,-0.0136 -0.0335,-0.013 -0.0342,-0.0123 -0.0348,-0.0117 -0.0356,-0.0109 v -7e-4 l -0.0362,-0.01 v -6e-4 l -0.0363,-0.01 -0.0369,-0.009 v -7e-4 l -0.0376,-0.008 -0.0383,-0.007 -0.039,-0.007 v -6e-4 l -0.039,-0.005 v -7e-4 l -0.0396,-0.006 -0.041,-0.005 -0.0404,-0.004 -0.0417,-0.003 v -7e-4 l -0.0417,-0.002 v -7e-4 l -0.0424,-0.001 v -7e-4 h -0.0431 l -0.0437,-6e-4 z"
           style="fill:#1460bd;fill-opacity:1;fill-rule:evenodd;stroke-width:0.27049682"
           id="path839"
           inkscape:connector-curvature="0" />
      </g>
    </g>
  </g>
</svg>
