<?xml version="1.0" encoding="UTF-8" standalone="no"?>
<!-- Created with Inkscape (http://www.inkscape.org/) -->

<svg
   xmlns:dc="http://purl.org/dc/elements/1.1/"
   xmlns:cc="http://creativecommons.org/ns#"
   xmlns:rdf="http://www.w3.org/1999/02/22-rdf-syntax-ns#"
   xmlns:svg="http://www.w3.org/2000/svg"
   xmlns="http://www.w3.org/2000/svg"
   xmlns:sodipodi="http://sodipodi.sourceforge.net/DTD/sodipodi-0.dtd"
   xmlns:inkscape="http://www.inkscape.org/namespaces/inkscape"
   width="512"
   height="512"
   viewBox="0 0 135.46666 135.46666"
   version="1.1"
   id="svg8"
   inkscape:version="0.92.3 (2405546, 2018-03-11)"
   sodipodi:docname="logo-jugaadhub.svg"
   inkscape:export-filename="D:\Jugaad Hub\Mobile App\app_icon4a.png"
   inkscape:export-xdpi="96"
   inkscape:export-ydpi="96">
  <defs
     id="defs2">
    <inkscape:perspective
       sodipodi:type="inkscape:persp3d"
       inkscape:vp_x="0 : 160.625 : 1"
       inkscape:vp_y="0 : 1000 : 0"
       inkscape:vp_z="1250 : 160.625 : 1"
       inkscape:persp3d-origin="625 : 107.08333 : 1"
       id="perspective30" />
    <inkscape:perspective
       sodipodi:type="inkscape:persp3d"
       inkscape:vp_x="0 : 160.625 : 1"
       inkscape:vp_y="0 : 1000 : 0"
       inkscape:vp_z="1250 : 160.625 : 1"
       inkscape:persp3d-origin="625 : 107.08333 : 1"
       id="perspective30-0" />
    <inkscape:perspective
       id="perspective30-7"
       inkscape:persp3d-origin="625 : 107.08333 : 1"
       inkscape:vp_z="1250 : 160.625 : 1"
       inkscape:vp_y="0 : 1000 : 0"
       inkscape:vp_x="0 : 160.625 : 1"
       sodipodi:type="inkscape:persp3d" />
    <inkscape:perspective
       id="perspective30-0-4"
       inkscape:persp3d-origin="625 : 107.08333 : 1"
       inkscape:vp_z="1250 : 160.625 : 1"
       inkscape:vp_y="0 : 1000 : 0"
       inkscape:vp_x="0 : 160.625 : 1"
       sodipodi:type="inkscape:persp3d" />
  </defs>
  <sodipodi:namedview
     id="base"
     pagecolor="#ffffff"
     bordercolor="#666666"
     borderopacity="1.0"
     inkscape:pageopacity="0.0"
     inkscape:pageshadow="2"
     inkscape:zoom="0.88422593"
     inkscape:cx="264.55654"
     inkscape:cy="188.42633"
     inkscape:document-units="px"
     inkscape:current-layer="layer1"
     showgrid="false"
     units="px"
     inkscape:window-width="1600"
     inkscape:window-height="837"
     inkscape:window-x="-8"
     inkscape:window-y="-8"
     inkscape:window-maximized="1"
     showguides="false" />
  <metadata
     id="metadata5">
    <rdf:RDF>
      <cc:Work
         rdf:about="">
        <dc:format>image/svg+xml</dc:format>
        <dc:type
           rdf:resource="http://purl.org/dc/dcmitype/StillImage" />
        <dc:title />
      </cc:Work>
    </rdf:RDF>
  </metadata>
  <g
     inkscape:label="Layer 1"
     inkscape:groupmode="layer"
     id="layer1"
     transform="translate(0,-161.53336)">
    <g
       transform="translate(134.7508,-44.104297)"
       id="g4630" />
    <g
       aria-label="m"
       style="font-style:normal;font-weight:normal;font-size:47.34103775px;line-height:29.58814812px;font-family:sans-serif;letter-spacing:0px;word-spacing:0px;fill:#000000;fill-opacity:1;stroke:none;stroke-width:0.26458335"
       id="text4834"
       transform="translate(116.52875,13.770081)" />
    <g
       aria-label="m"
       style="font-style:normal;font-weight:normal;font-size:47.34103775px;line-height:29.58814812px;font-family:sans-serif;letter-spacing:0px;word-spacing:0px;fill:#75a12e;fill-opacity:1;stroke:none;stroke-width:0.26865035"
       id="g876"
       transform="matrix(-0.98216813,0.04675065,-0.04659998,-0.98534378,192.13871,126.09277)" />
    <g
       transform="matrix(0.95912595,0.04675065,0.53225022,-0.98534378,66.979772,117.89801)"
       id="g911"
       style="font-style:normal;font-weight:normal;font-size:47.34103775px;line-height:29.58814812px;font-family:sans-serif;letter-spacing:0px;word-spacing:0px;fill:#75a12e;fill-opacity:1;stroke:none;stroke-width:0.26865035"
       aria-label="m" />
    <path
       style="opacity:0;fill:#ffffff;fill-opacity:1;stroke:none;stroke-width:0.52916652;stroke-linecap:round;stroke-linejoin:miter;stroke-miterlimit:4;stroke-dasharray:none;stroke-opacity:1;paint-order:normal"
       d="m 26.458332,161.53336 h 82.549998 c 14.65791,0 26.45833,11.80041 26.45833,26.45833 v 82.54999 c 0,14.65792 -11.80042,26.45834 -26.45833,26.45834 H 26.458332 C 11.800416,297.00002 1.5624995e-8,285.1996 1.5624995e-8,270.54168 V 187.99169 C 1.5624995e-8,173.33377 11.800416,161.53336 26.458332,161.53336 Z"
       id="rect872" />
    <g
       id="g896"
       transform="matrix(0.97850653,0,0,0.97850653,1.4558233,2.8781755)"
       style="stroke-width:1.02196562">
      <g
         style="stroke-width:1.08918011"
         transform="matrix(0.9382888,0,0,0.9382888,3.6483921,15.611762)"
         id="g869">
        <path
           id="path1196"
           style="color:#000000;font-style:normal;font-variant:normal;font-weight:normal;font-stretch:normal;font-size:medium;line-height:normal;font-family:sans-serif;font-variant-ligatures:normal;font-variant-position:normal;font-variant-caps:normal;font-variant-numeric:normal;font-variant-alternates:normal;font-feature-settings:normal;text-indent:0;text-align:start;text-decoration:none;text-decoration-line:none;text-decoration-style:solid;text-decoration-color:#000000;letter-spacing:normal;word-spacing:normal;text-transform:none;writing-mode:lr-tb;direction:ltr;text-orientation:mixed;dominant-baseline:auto;baseline-shift:baseline;text-anchor:start;white-space:normal;shape-padding:0;clip-rule:nonzero;display:inline;overflow:visible;visibility:visible;opacity:1;isolation:auto;mix-blend-mode:normal;color-interpolation:sRGB;color-interpolation-filters:linearRGB;solid-color:#000000;solid-opacity:1;vector-effect:none;fill:#ffffff;fill-opacity:1;fill-rule:nonzero;stroke:none;stroke-width:1.4408946;stroke-linecap:butt;stroke-linejoin:miter;stroke-miterlimit:4;stroke-dasharray:none;stroke-dashoffset:0;stroke-opacity:1;color-rendering:auto;image-rendering:auto;shape-rendering:auto;text-rendering:auto;enable-background:accumulate"
           d="m 68.3145,190.5176 12.121094,7.00586 12.123047,7.00781 v 14.02344 14.02148 L 80.435594,239.584 68.3145,246.59182 56.191453,239.584 l -12.123047,-7.00781 -0.01172,-14.00976 -0.01172,-14.01758 c 0.0118,-0.007 0.01656,-0.0102 0.0293,-0.0176 0.682859,-0.39557 1.663344,-0.96452 2.86914,-1.66211 2.411464,-1.39512 5.722123,-3.30776 9.34961,-5.4043 z m -0.002,-5.41992 -0.330078,0.1914 -0.841797,0.48633 -13.191406,7.625 c -3.627975,2.09681 -6.939212,4.01064 -9.351563,5.40625 -1.206239,0.69785 -2.186851,1.26574 -2.871094,1.66211 -0.342128,0.19819 -0.611502,0.35332 -0.796874,0.46094 -0.06643,0.0386 -0.109244,0.0636 -0.154297,0.0898 -0.02297,0.011 -0.04778,0.0234 -0.05469,0.0273 -0.02152,0.0123 -0.02943,0.0169 -0.04297,0.0254 -0.02708,0.0169 -0.06586,0.0422 -0.130859,0.084 l -0.302734,0.19531 -0.890625,0.57227 0.01367,16.64648 0.01367,16.7168 14.466797,8.36133 14.466797,8.36328 14.466797,-8.36328 14.464844,-8.36328 V 218.55465 201.82223 L 82.779291,193.4609 Z"
           inkscape:connector-curvature="0"
           inkscape:export-xdpi="480"
           inkscape:export-ydpi="480" />
        <g
           id="g1130"
           style="fill:#ffffff;fill-opacity:1;stroke-width:1.08918011"
           inkscape:export-xdpi="480"
           inkscape:export-ydpi="480">
          <path
             id="path1227"
             d="m 70.017578,195.93166 v 0.86524 44.10546 l 4.376953,-2.05664 v -40.38476 z"
             style="color:#000000;font-style:normal;font-variant:normal;font-weight:normal;font-stretch:normal;font-size:medium;line-height:normal;font-family:sans-serif;font-variant-ligatures:normal;font-variant-position:normal;font-variant-caps:normal;font-variant-numeric:normal;font-variant-alternates:normal;font-feature-settings:normal;text-indent:0;text-align:start;text-decoration:none;text-decoration-line:none;text-decoration-style:solid;text-decoration-color:#000000;letter-spacing:normal;word-spacing:normal;text-transform:none;writing-mode:lr-tb;direction:ltr;text-orientation:mixed;dominant-baseline:auto;baseline-shift:baseline;text-anchor:start;white-space:normal;shape-padding:0;clip-rule:nonzero;display:inline;overflow:visible;visibility:visible;opacity:1;isolation:auto;mix-blend-mode:normal;color-interpolation:sRGB;color-interpolation-filters:linearRGB;solid-color:#000000;solid-opacity:1;vector-effect:none;fill:#ffffff;fill-opacity:1;fill-rule:nonzero;stroke:none;stroke-width:1.08931625;stroke-linecap:butt;stroke-linejoin:miter;stroke-miterlimit:4;stroke-dasharray:none;stroke-dashoffset:0;stroke-opacity:1;color-rendering:auto;image-rendering:auto;shape-rendering:auto;text-rendering:auto;enable-background:accumulate"
             inkscape:connector-curvature="0" />
          <path
             id="path1235"
             d="m 85.140625,203.76564 v 0.86719 27.9668 l 4.376953,-2.05664 v -24.24805 z"
             style="color:#000000;font-style:normal;font-variant:normal;font-weight:normal;font-stretch:normal;font-size:medium;line-height:normal;font-family:sans-serif;font-variant-ligatures:normal;font-variant-position:normal;font-variant-caps:normal;font-variant-numeric:normal;font-variant-alternates:normal;font-feature-settings:normal;text-indent:0;text-align:start;text-decoration:none;text-decoration-line:none;text-decoration-style:solid;text-decoration-color:#000000;letter-spacing:normal;word-spacing:normal;text-transform:none;writing-mode:lr-tb;direction:ltr;text-orientation:mixed;dominant-baseline:auto;baseline-shift:baseline;text-anchor:start;white-space:normal;shape-padding:0;clip-rule:nonzero;display:inline;overflow:visible;visibility:visible;opacity:1;isolation:auto;mix-blend-mode:normal;color-interpolation:sRGB;color-interpolation-filters:linearRGB;solid-color:#000000;solid-opacity:1;vector-effect:none;fill:#ffffff;fill-opacity:1;fill-rule:nonzero;stroke:none;stroke-width:1.08931625;stroke-linecap:butt;stroke-linejoin:miter;stroke-miterlimit:4;stroke-dasharray:none;stroke-dashoffset:0;stroke-opacity:1;color-rendering:auto;image-rendering:auto;shape-rendering:auto;text-rendering:auto;enable-background:accumulate"
             inkscape:connector-curvature="0" />
          <path
             id="path1231"
             d="m 70.509766,215.73635 2.052734,4.38086 h 14.292969 l 2.52539,-4.38086 h -0.865234 z"
             style="color:#000000;font-style:normal;font-variant:normal;font-weight:normal;font-stretch:normal;font-size:medium;line-height:normal;font-family:sans-serif;font-variant-ligatures:normal;font-variant-position:normal;font-variant-caps:normal;font-variant-numeric:normal;font-variant-alternates:normal;font-feature-settings:normal;text-indent:0;text-align:start;text-decoration:none;text-decoration-line:none;text-decoration-style:solid;text-decoration-color:#000000;letter-spacing:normal;word-spacing:normal;text-transform:none;writing-mode:lr-tb;direction:ltr;text-orientation:mixed;dominant-baseline:auto;baseline-shift:baseline;text-anchor:start;white-space:normal;shape-padding:0;clip-rule:nonzero;display:inline;overflow:visible;visibility:visible;opacity:1;isolation:auto;mix-blend-mode:normal;color-interpolation:sRGB;color-interpolation-filters:linearRGB;solid-color:#000000;solid-opacity:1;vector-effect:none;fill:#ffffff;fill-opacity:1;fill-rule:nonzero;stroke:none;stroke-width:1.08931625;stroke-linecap:butt;stroke-linejoin:miter;stroke-miterlimit:4;stroke-dasharray:none;stroke-dashoffset:0;stroke-opacity:1;color-rendering:auto;image-rendering:auto;shape-rendering:auto;text-rendering:auto;enable-background:accumulate"
             inkscape:connector-curvature="0" />
          <path
             id="path1256"
             d="m 66.59375,195.93166 -0.751953,0.43359 -3.625,2.09571 v 38.98242 l 4.376953,3.75976 z"
             style="color:#000000;font-style:normal;font-variant:normal;font-weight:normal;font-stretch:normal;font-size:medium;line-height:normal;font-family:sans-serif;font-variant-ligatures:normal;font-variant-position:normal;font-variant-caps:normal;font-variant-numeric:normal;font-variant-alternates:normal;font-feature-settings:normal;text-indent:0;text-align:start;text-decoration:none;text-decoration-line:none;text-decoration-style:solid;text-decoration-color:#000000;letter-spacing:normal;word-spacing:normal;text-transform:none;writing-mode:lr-tb;direction:ltr;text-orientation:mixed;dominant-baseline:auto;baseline-shift:baseline;text-anchor:start;white-space:normal;shape-padding:0;clip-rule:nonzero;display:inline;overflow:visible;visibility:visible;opacity:1;isolation:auto;mix-blend-mode:normal;color-interpolation:sRGB;color-interpolation-filters:linearRGB;solid-color:#000000;solid-opacity:1;vector-effect:none;fill:#ffffff;fill-opacity:1;fill-rule:nonzero;stroke:none;stroke-width:1.08931625;stroke-linecap:butt;stroke-linejoin:miter;stroke-miterlimit:4;stroke-dasharray:none;stroke-dashoffset:0;stroke-opacity:1;color-rendering:auto;image-rendering:auto;shape-rendering:auto;text-rendering:auto;enable-background:accumulate"
             inkscape:connector-curvature="0" />
          <path
             id="path1252"
             d="m 66.591797,195.959 -0.738281,0.39844 -11.771485,6.37696 v 4.92968 l 12.511719,-6.66211 z"
             style="color:#000000;font-style:normal;font-variant:normal;font-weight:normal;font-stretch:normal;font-size:medium;line-height:normal;font-family:sans-serif;font-variant-ligatures:normal;font-variant-position:normal;font-variant-caps:normal;font-variant-numeric:normal;font-variant-alternates:normal;font-feature-settings:normal;text-indent:0;text-align:start;text-decoration:none;text-decoration-line:none;text-decoration-style:solid;text-decoration-color:#000000;letter-spacing:normal;word-spacing:normal;text-transform:none;writing-mode:lr-tb;direction:ltr;text-orientation:mixed;dominant-baseline:auto;baseline-shift:baseline;text-anchor:start;white-space:normal;shape-padding:0;clip-rule:nonzero;display:inline;overflow:visible;visibility:visible;opacity:1;isolation:auto;mix-blend-mode:normal;color-interpolation:sRGB;color-interpolation-filters:linearRGB;solid-color:#000000;solid-opacity:1;vector-effect:none;fill:#ffffff;fill-opacity:1;fill-rule:nonzero;stroke:none;stroke-width:1.08931625;stroke-linecap:butt;stroke-linejoin:miter;stroke-miterlimit:4;stroke-dasharray:none;stroke-dashoffset:0;stroke-opacity:1;color-rendering:auto;image-rendering:auto;shape-rendering:auto;text-rendering:auto;enable-background:accumulate"
             inkscape:connector-curvature="0" />
          <path
             sodipodi:nodetypes="ccccc"
             inkscape:connector-curvature="0"
             id="path1264"
             d="m 46.611328,228.81643 19.982422,12.38671 -1.1875,-5.95898 -14.431645,-9.16229 z"
             style="color:#000000;font-style:normal;font-variant:normal;font-weight:normal;font-stretch:normal;font-size:medium;line-height:normal;font-family:sans-serif;font-variant-ligatures:normal;font-variant-position:normal;font-variant-caps:normal;font-variant-numeric:normal;font-variant-alternates:normal;font-feature-settings:normal;text-indent:0;text-align:start;text-decoration:none;text-decoration-line:none;text-decoration-style:solid;text-decoration-color:#000000;letter-spacing:normal;word-spacing:normal;text-transform:none;writing-mode:lr-tb;direction:ltr;text-orientation:mixed;dominant-baseline:auto;baseline-shift:baseline;text-anchor:start;white-space:normal;shape-padding:0;clip-rule:nonzero;display:inline;overflow:visible;visibility:visible;opacity:1;isolation:auto;mix-blend-mode:normal;color-interpolation:sRGB;color-interpolation-filters:linearRGB;solid-color:#000000;solid-opacity:1;vector-effect:none;fill:#ffffff;fill-opacity:1;fill-rule:nonzero;stroke:none;stroke-width:1.08931625;stroke-linecap:butt;stroke-linejoin:miter;stroke-miterlimit:4;stroke-dasharray:none;stroke-dashoffset:0;stroke-opacity:1;color-rendering:auto;image-rendering:auto;shape-rendering:auto;text-rendering:auto;enable-background:accumulate" />
          <path
             id="path1260"
             d="m 46.611328,218.42775 v 0.5 9.88868 h 4.376953 v -10.38868 z"
             style="color:#000000;font-style:normal;font-variant:normal;font-weight:normal;font-stretch:normal;font-size:medium;line-height:normal;font-family:sans-serif;font-variant-ligatures:normal;font-variant-position:normal;font-variant-caps:normal;font-variant-numeric:normal;font-variant-alternates:normal;font-feature-settings:normal;text-indent:0;text-align:start;text-decoration:none;text-decoration-line:none;text-decoration-style:solid;text-decoration-color:#000000;letter-spacing:normal;word-spacing:normal;text-transform:none;writing-mode:lr-tb;direction:ltr;text-orientation:mixed;dominant-baseline:auto;baseline-shift:baseline;text-anchor:start;white-space:normal;shape-padding:0;clip-rule:nonzero;display:inline;overflow:visible;visibility:visible;opacity:1;isolation:auto;mix-blend-mode:normal;color-interpolation:sRGB;color-interpolation-filters:linearRGB;solid-color:#000000;solid-opacity:1;vector-effect:none;fill:#ffffff;fill-opacity:1;fill-rule:nonzero;stroke:none;stroke-width:1.08931625;stroke-linecap:butt;stroke-linejoin:miter;stroke-miterlimit:4;stroke-dasharray:none;stroke-dashoffset:0;stroke-opacity:1;color-rendering:auto;image-rendering:auto;shape-rendering:auto;text-rendering:auto;enable-background:accumulate"
             inkscape:connector-curvature="0" />
        </g>
        <g
           inkscape:export-ydpi="480"
           inkscape:export-xdpi="480"
           style="stroke-width:4.38962221"
           id="g1486"
           transform="matrix(0.24796603,0,0,0.24828646,-135.52892,77.100177)">
          <path
             inkscape:connector-curvature="0"
             id="path1478"
             d="m 792.50896,659.80021 c -0.0562,-0.0217 -0.19533,0.22034 -0.48206,0.84032 -0.22178,0.48013 -0.8402,1.8038 -1.37487,2.94011 -0.53453,1.13632 -1.38771,2.95483 -1.89502,4.0424 -0.50724,1.08768 -1.27174,2.72145 -1.69907,3.63051 -0.42733,0.90906 -0.92283,1.97224 -1.10272,2.36185 -0.17938,0.38942 -0.71648,1.53251 -1.19111,2.53902 -0.47466,1.00647 -0.99585,2.1222 -1.15987,2.4793 -0.16416,0.35732 -0.68669,1.47283 -1.15994,2.47933 -1.73542,3.69052 -2.43719,5.20615 -2.43429,5.25863 0.003,0.0536 8.66021,5.46931 8.79208,5.50077 0.0391,0.0145 0.27759,-0.38986 0.55131,-0.92881 0.26454,-0.52025 0.50195,-0.94675 0.52532,-0.94689 0.0217,-1.8e-4 1.74499,0.9337 3.82312,2.0745 2.07795,1.14074 4.08632,2.24194 4.46274,2.44857 0.37638,0.20657 0.70488,0.37638 0.73507,0.37595 0.0254,-3.7e-4 0.15365,-0.20185 0.27759,-0.44629 l 0.22396,-0.44451 0.16634,0.34138 c 0.36721,0.75765 1.19473,1.36668 2.1551,1.58484 0.57185,0.12974 1.77014,0.0928 2.42552,-0.0775 0.24135,-0.0627 0.44038,-0.1098 0.44038,-0.10292 0,0.007 -0.0565,0.16996 -0.12466,0.36167 -0.10546,0.29716 -0.12539,0.47118 -0.12684,1.17465 -0.002,0.7632 0.0145,0.85753 0.15293,1.23242 0.39638,1.04213 1.21013,1.79271 2.25396,2.07629 0.28376,0.0776 0.51377,0.091 1.04365,0.0667 0.37374,-0.0145 0.74986,-0.0515 0.83568,-0.0725 0.14604,-0.0391 0.15583,-0.0254 0.15583,0.16416 0,0.32978 0.2033,1.06159 0.41776,1.5053 0.3929,0.81342 1.08388,1.54563 1.81355,1.92096 0.61947,0.31855 0.95461,0.40599 1.70429,0.43723 0.67263,0.0254 0.78487,0.0145 1.98521,-0.2602 0.0989,-0.0181 0.14206,0.0362 0.27397,0.38816 0.18881,0.49955 0.61002,1.14255 0.96404,1.46739 0.34499,0.31637 0.952,0.64194 1.39922,0.75167 1.00897,0.24788 2.40001,0.0145 3.49008,-0.59446 0.25658,-0.14242 0.48626,-0.25839 0.50971,-0.25839 0.0217,0 0.11669,0.12032 0.20656,0.26745 0.24969,0.41211 0.98817,1.20321 1.35752,1.4529 0.3925,0.26563 0.84354,0.45041 1.24662,0.51137 l -0.002,-0.003 c 1.63521,0.24787 3.03404,-0.88159 3.44844,-2.78472 l 0.11814,-0.54392 0.45773,0.13771 c 2.03262,0.61418 3.84334,-0.35587 4.3379,-2.32572 l 0.10074,-0.40337 0.21816,0.029 c 0.38464,0.0518 1.34342,0.0181 1.60713,-0.0522 0.49326,-0.13771 1.01782,-0.37199 1.36796,-0.60722 0.70934,-0.47774 1.3631,-1.31019 1.67138,-2.12872 0.13336,-0.35406 0.1667,-0.39943 0.30151,-0.39943 0.30948,0 1.03702,-0.23954 1.52571,-0.50242 1.14769,-0.61777 2.02866,-1.69762 2.29034,-2.80636 0.11488,-0.47842 0.12068,-1.27967 0.0145,-1.70954 -0.0439,-0.17757 -0.0779,-0.3276 -0.071,-0.3305 0.007,-0.003 0.493,-0.38203 1.0837,-0.84035 0.59055,-0.45864 1.09293,-0.81411 1.11304,-0.78961 0.0181,0.0217 0.32724,0.61389 0.67786,1.31193 0.35115,0.69811 0.64545,1.28348 0.65882,1.29746 0.0254,0.0362 0.84238,-0.39598 2.98911,-1.57756 0.93454,-0.51434 2.51594,-1.38259 3.5127,-1.92813 0.99679,-0.54566 1.96804,-1.08261 2.16021,-1.19271 l 0.35043,-0.19895 0.49412,0.98846 c 0.27144,0.54395 0.49978,0.99802 0.51315,1.01201 0.0145,0.0145 0.16742,-0.0685 0.34681,-0.18264 0.17938,-0.11452 2.16703,-1.35643 4.41766,-2.75947 2.25059,-1.40296 4.09172,-2.57065 4.09172,-2.59859 0,-0.0254 -0.84394,-1.85233 -1.87596,-4.05513 -1.03209,-2.20283 -2.12397,-4.53518 -2.42729,-5.18458 -0.30332,-0.6493 -1.33523,-2.85535 -2.29372,-4.90076 -0.95867,-2.04545 -1.95398,-4.17004 -2.21066,-4.72199 -0.25621,-0.55185 -1.07166,-2.29249 -1.81181,-3.86712 -0.74018,-1.57466 -1.44377,-3.08253 -1.5639,-3.35034 -0.12068,-0.26781 -0.24643,-0.48615 -0.28085,-0.48615 -0.0362,0 -0.52464,0.2881 -1.09055,0.6397 -0.56598,0.35188 -2.55739,1.58299 -4.42646,2.7359 -2.95244,1.82153 -4.05998,2.46579 -7.15179,4.15812 -0.31927,0.17467 -0.84053,0.4606 -1.1599,0.63614 -3.29642,1.81293 -4.70525,2.5733 -4.76969,2.5733 -0.0435,0 -0.55735,-0.14387 -1.14425,-0.32035 -5.02299,-1.50759 -8.70242,-2.39613 -9.9156,-2.39436 -0.43668,5.5e-4 -1.39361,0.21273 -1.9505,0.43168 l -0.37808,0.14858 -0.52362,-0.23519 c -0.28774,-0.12937 -0.75359,-0.30042 -1.03676,-0.37942 -1.12015,-0.31274 -1.39974,-0.22178 -4.94472,1.61554 l -2.0494,1.06257 -4.43498,-2.43237 c -4.61704,-2.53308 -4.23566,-2.30753 -12.54402,-7.4524 -0.75323,-0.46639 -1.40611,-0.86075 -1.44946,-0.87822 z"
             style="fill:#ffffff;stroke-width:4.38962221" />
          <path
             style="fill:#1460bd;fill-opacity:1;stroke-width:16.59069633"
             d="m 2971.6914,2390.207 a 53.644266,55.514284 25.409273 0 0 -30.5059,10.3965 53.644266,55.514284 25.409273 0 0 -23.4179,50.7363 53.644266,55.514284 25.409273 0 0 30.3144,44.2774 c 0,0 -0.01,0.023 -0.01,0.023 0.011,0.2029 32.728,20.6795 33.2265,20.7891 0.1515,0.035 1.0485,-1.4754 2.084,-3.5117 0.9996,-1.9655 1.9043,-3.5758 1.9863,-3.5762 0.093,-4e-4 6.5952,3.526 14.4493,7.8379 7.8538,4.3114 15.4446,8.4791 16.8671,9.2598 1.4229,0.7807 2.6737,1.4194 2.7833,1.4179 0.1082,0 0.5759,-0.7597 1.0429,-1.6855 l 0.8477,-1.6817 0.6269,1.293 c 1.3879,2.8639 4.517,5.1657 8.1465,5.9902 2.1613,0.4918 6.6928,0.3436 9.1699,-0.2988 0.9113,-0.2357 1.6602,-0.4093 1.6602,-0.3828 0,0.025 -0.2099,0.6387 -0.4688,1.3633 -0.4068,1.1219 -0.4708,1.7827 -0.4746,4.4414 -0.01,2.8844 0.038,3.2423 0.5782,4.6582 1.498,3.9387 4.5746,6.7721 8.5195,7.8418 1.0717,0.308 1.9385,0.3359 3.9414,0.2539 1.4129,-0.069 2.8335,-0.205 3.1582,-0.2734 0.5342,-0.1439 0.5898,-0.1096 0.5898,0.6191 0,1.2465 0.7687,4.0187 1.5782,5.6953 1.4854,3.0741 4.0974,5.8387 6.8554,7.2578 2.3409,1.2052 3.6097,1.5447 6.4434,1.6543 2.5418,0.1109 2.9689,0.052 7.5059,-0.9844 0.374,-0.086 0.5287,0.133 1.0273,1.4629 0.7108,1.888 2.3102,4.323 3.6484,5.5489 1.3033,1.1954 3.5949,2.4287 5.2852,2.8437 3.8133,0.9365 9.0751,0.042 13.1953,-2.2461 0.9715,-0.5397 1.8438,-0.9806 1.9258,-0.9805 0.089,0 0.4356,0.4576 0.7754,1.0137 0.9442,1.558 3.7387,4.5446 5.1347,5.4883 1.484,1.0022 3.1841,1.6969 4.7071,1.9297 l -0.012,0.01 c 6.1808,0.9366 11.4654,-3.3303 13.0312,-10.5235 l 0.4492,-2.0586 1.7305,0.5215 c 7.6827,2.3213 14.5237,-1.346 16.3926,-8.791 l 0.3808,-1.5254 0.8282,0.1094 c 1.4531,0.1959 5.0765,0.075 6.0722,-0.2031 1.8639,-0.5203 3.8469,-1.4009 5.1699,-2.2911 2.6808,-1.806 5.1509,-4.9549 6.3164,-8.0488 0.5027,-1.3354 0.6298,-1.5059 1.1407,-1.5059 1.1687,0 3.9204,-0.9066 5.7675,-1.9023 4.3377,-2.3349 7.6695,-6.4149 8.6583,-10.6055 0.4384,-1.8083 0.4598,-4.8379 0.055,-6.4629 -0.1723,-0.6739 -0.294,-1.2366 -0.2675,-1.248 0.02,-0.014 1.8616,-1.4425 4.0937,-3.1758 2.2323,-1.7336 4.1386,-3.0707 4.207,-2.9883 0.082,0.091 1.2348,2.3247 2.5606,4.9629 1.3254,2.6385 2.4354,4.8437 2.4902,4.8985 0.1023,0.1297 3.1872,-1.4972 11.3008,-5.9629 3.5321,-1.9441 9.5042,-5.2211 13.2715,-7.2832 3.7675,-2.0619 7.444,-4.0909 8.1699,-4.5059 l 1.3203,-0.7578 1.8672,3.7383 c 1.0261,2.0556 1.8847,3.7714 1.9395,3.8261 0.041,0.049 0.6325,-0.2618 1.3105,-0.6933 0.6787,-0.4317 8.1929,-5.1231 16.6992,-10.4258 7.6171,-4.7485 13.7075,-8.6138 14.9571,-9.4766 17.5816,-7.8912 29.4181,-24.9288 31.0078,-44.6328 1.5909,-19.7455 -7.3531,-39.1233 -23.418,-50.7363 -8.9926,-6.5005 -19.6258,-10.1243 -30.5059,-10.3965 v 0 c -8.2215,-0.2059 -16.3306,1.5088 -23.7089,5.0136 l 0.01,0.012 c -0.1535,0.016 -1.9808,1.0864 -4.1035,2.4062 -2.139,1.3305 -9.6686,5.9841 -16.7324,10.3418 -11.1594,6.8842 -15.3397,9.3165 -27.0254,15.7129 -1.2067,0.6607 -3.182,1.7433 -4.3887,2.4062 -12.4585,6.8522 -17.7835,9.7266 -18.0273,9.7266 -0.1588,0 -2.104,-0.5472 -4.3223,-1.2129 -18.9841,-5.6983 -32.8933,-9.0583 -37.4785,-9.0508 -1.6508,0 -5.2645,0.8029 -7.3691,1.6328 l -1.4239,0.5626 -1.9804,-0.8887 c -1.0885,-0.4887 -2.8542,-1.135 -3.9239,-1.4336 -4.2338,-1.1822 -5.2868,-0.8378 -18.6855,6.1055 l -7.7481,4.0156 -16.7617,-9.1953 c -17.4501,-9.5739 -16.0085,-8.7168 -47.4101,-28.1621 -2.8114,-1.7416 -5.1876,-3.1809 -5.4063,-3.2832 l 0.016,-0.031 a 53.644266,55.514284 25.409273 0 0 -23.707,-5.0137 z m 57.6094,31.9278 c 0.069,-0.074 6.138,3.146 8.9844,4.7695 0.7067,0.4027 5.7151,3.1615 11.1308,6.1309 5.4157,2.9694 9.8476,5.3983 9.9024,5.4531 0.031,0.03 -1.109,2.3553 -2.5332,5.166 -1.4241,2.8104 -3.1706,6.2648 -3.8829,7.6758 -1.8819,3.7322 -3.2661,6.4785 -5.7363,11.3789 -1.206,2.3928 -2.504,4.9539 -2.8848,5.6894 -0.3808,0.7361 -3.2241,6.3588 -6.3183,12.4942 -7.8785,15.6213 -15.4856,30.6717 -18.1289,35.8652 -1.2342,2.4235 -2.3164,4.403 -2.3848,4.4004 -0.078,0 -1.78,-0.914 -3.7812,-2.0234 -2.0017,-1.1107 -5.1808,-2.8634 -7.0645,-3.8907 -13.1267,-7.1651 -18.8378,-10.3444 -18.8926,-10.539 -0.039,-0.1226 3.6534,-7.5892 8.2051,-16.5918 4.552,-9.003 9.8178,-19.4311 11.7031,-23.1738 1.8856,-3.7427 3.7429,-7.409 4.125,-8.1446 0.3822,-0.7362 2.3091,-4.55 4.2832,-8.4765 4.9158,-9.7774 13.1915,-26.1016 13.2735,-26.1836 z m 154.5781,0.1953 c 0.1004,0 0.7692,1.1805 1.4883,2.6211 0.7193,1.439 8.992,17.8272 18.3848,36.4179 9.3928,18.5907 18.1827,35.9918 19.5332,38.668 1.3513,2.6762 2.4337,4.8827 2.3789,4.9375 -0.042,0.04 -1.859,1.0518 -4.0371,2.2461 -2.1781,1.1945 -4.7282,2.5979 -5.6719,3.1211 -0.9418,0.5229 -5.6633,3.1166 -10.4903,5.7617 -4.8271,2.6454 -8.9318,4.8789 -9.125,4.9473 -0.2768,0.1105 -0.6836,-0.5253 -1.9492,-3.0528 -0.8792,-1.7563 -4.4669,-8.8654 -7.9726,-15.7988 -9.5076,-18.8014 -18.6773,-36.9548 -20.5137,-40.6074 -0.8947,-1.7791 -3.8892,-7.7007 -6.6523,-13.1602 -2.7628,-5.4596 -5.0109,-9.9457 -4.9844,-9.957 0.2943,-0.2342 29.4745,-16.1474 29.6113,-16.1445 z m -95.748,7.8691 v 0 c 0.4004,-0.028 0.7731,0.064 1.5156,0.248 5.4948,1.3647 15.9253,7.8892 23.2364,14.5332 2.617,2.3782 6.8049,6.7798 7.9472,8.3555 2.1682,2.9882 2.4882,5.6876 1.2637,10.6836 -0.5839,2.3828 -1.4033,4.7673 -3.6465,10.623 -1.0345,2.6998 -2.6068,7.1285 -3.4902,9.8418 -2.6406,8.0922 -3.6062,10.1275 -4.8047,10.127 -0.8099,0 -2.9343,-1.0914 -4.252,-2.1817 -1.1742,-0.972 -2.7248,-3.2471 -3.4589,-5.0781 -0.2493,-0.6189 -0.6574,-2.1742 -0.9122,-3.459 -0.4122,-2.0332 -0.4394,-2.835 -0.3574,-6.2383 0.1133,-4.2739 0.4906,-6.8434 1.7891,-12.2226 0.4246,-1.7528 0.7462,-3.1932 0.6914,-3.2481 -0.044,-0.031 -0.7801,-0.3735 -1.6348,-0.7597 -1.9904,-0.8974 -5.0698,-2.7949 -7.1035,-4.377 -0.9621,-0.7464 -1.6725,-1.1623 -1.8203,-1.0527 -0.1244,0.1023 -4.7048,3.7786 -10.1797,8.1699 -5.4744,4.391 -10.9643,8.8035 -12.2012,9.8047 -2.0775,1.6826 -5.7742,4.2402 -18.7304,12.957 -2.7077,1.822 -7.6685,5.2247 -11.0235,7.5625 -7.2352,5.0418 -6.6367,4.6282 -6.6367,4.4805 0,-0.1423 -0.534,0.9215 16.1543,-32.1348 6.6907,-13.2525 12.3005,-24.2625 12.4649,-24.4609 0.1644,-0.2027 0.7513,-0.5391 1.3046,-0.75 0.5536,-0.2113 5.3892,-2.6272 10.7461,-5.3691 5.3569,-2.7415 10.5095,-5.2512 11.4532,-5.5801 0.8556,-0.298 1.2832,-0.4482 1.6836,-0.4766 z m 17.9336,0.6446 c 1.4186,-0.037 3.2718,0.2636 7.1289,1.0761 6.2081,1.3055 22.4986,5.7729 34.6777,9.5098 l 2.7832,0.8555 1.6699,3.2285 c 0.9184,1.7754 2.398,4.6834 3.291,6.4629 0.8931,1.7793 2.0325,4.0361 2.5352,5.0195 1.0737,2.1018 9.6583,19.0936 15.8945,31.459 2.4137,4.7857 6.2135,12.3012 8.4434,16.7031 2.2299,4.4016 3.9729,8.0915 3.8769,8.1875 -0.098,0.1008 -1.9101,1.5422 -4.0293,3.2051 l -3.8535,3.0234 -0.5312,-0.7246 c -1.09,-1.4788 -3.5753,-4.0358 -4.8203,-4.959 -2.832,-2.1028 -5.4035,-3.0136 -8.5,-3.0136 -5.1033,0 -9.3796,3.4894 -10.8711,8.873 l -0.4825,1.748 -1.75,-0.914 c -2.1814,-1.1412 -3.7323,-1.5138 -6.33,-1.5176 -3.844,-0.01 -6.983,1.319 -9.6426,4.0781 -2.5894,2.6847 -3.8323,5.7103 -3.8399,9.3418 0,1.3317 -0.061,1.6156 -0.3086,1.5196 -0.8827,-0.3398 -2.9096,-0.3723 -4.3535,-0.055 -3.453,0.7593 -6.1552,3.1212 -7.8672,6.8789 -0.924,2.0308 -1.379,4.1903 -1.3828,6.5918 0,1.0121 -0.082,1.8377 -0.164,1.834 -0.088,-0.01 -0.7386,-0.1552 -1.4453,-0.3321 -1.488,-0.3639 -4.081,-0.4067 -5.4356,-0.082 -3.5465,0.8519 -6.7593,4.2088 -7.9961,8.3535 -0.3657,1.2268 -0.467,2.135 -0.4746,4.2383 0,1.4725 0.08,2.9836 0.1484,3.3574 0.1451,0.6713 0.1243,0.6913 -2.0351,1.8418 -1.1991,0.641 -2.8546,1.3705 -3.6777,1.6211 l -0.021,-0.023 c -1.6999,0.5079 -5.1488,0.7463 -6.3692,0.4257 -2.7198,-0.7185 -4.8941,-2.9677 -5.9433,-6.1445 -0.2328,-0.7081 -0.4239,-1.2997 -0.4239,-1.3262 0,-0.022 5.9595,-4.1798 13.2442,-9.2402 8.8035,-6.1157 13.3219,-9.3861 13.4863,-9.7519 0.4083,-0.9355 0.2905,-1.9954 -0.3066,-2.7364 -0.5736,-0.7203 -1.6486,-1.0738 -2.4239,-0.8164 -0.2413,0.08 -6.6687,4.4625 -14.2832,9.7403 -12.4797,8.6498 -14.0257,9.6594 -15.6894,10.2402 -4.7095,1.6451 -8.5384,1.3852 -11.6895,-0.7949 -3.0081,-2.0811 -5.1803,-6.5959 -4.7187,-9.8086 0.1096,-0.7675 0.3029,-1.1243 0.8262,-1.5352 0.3755,-0.2945 3.958,-2.6398 7.9609,-5.2109 6.3056,-4.0502 11.6201,-7.4821 20.8359,-13.457 1.317,-0.8538 2.3361,-1.6781 2.5157,-2.0372 0.8479,-1.6922 -0.2895,-3.6152 -2.1387,-3.6152 -0.7398,0 -0.6431,-0.059 -15.6485,9.6484 -14.1674,9.1663 -17.1492,11.0519 -18.4667,11.6778 -4.0303,1.9134 -7.9192,1.6425 -10.4043,-0.7246 -4.1677,-3.9703 -2.8761,-10.9585 2.8554,-15.4492 0.6986,-0.5474 6.645,-4.4385 13.2149,-8.6465 6.5701,-4.208 13.1793,-8.4455 14.6875,-9.418 2.0842,-1.3411 2.8234,-1.9418 3.0781,-2.502 0.7446,-1.627 -0.3745,-3.4609 -2.1113,-3.4609 -0.7263,0 -1.5015,0.4138 -4.961,2.6484 -8.2747,5.3455 -24.6825,15.825 -25.8261,16.4961 -1.7516,1.0277 -5.3587,2.6293 -7.627,3.3868 -7.4066,2.4728 -12.5318,1.4061 -14.459,-3.0098 -0.7096,-1.6531 -0.659,-4.4968 0.1367,-6.916 1.2867,-3.9153 3.3438,-6.7555 6.9766,-9.6309 3.9605,-3.1353 13.4078,-9.7371 25.9023,-18.1035 13.1813,-8.8257 16.4829,-11.2092 27.3907,-19.7656 4.0572,-3.1825 7.4628,-5.7837 7.5996,-5.7813 0.1223,0 1.0883,0.5426 2.1484,1.1973 1.0604,0.6574 1.9457,1.1975 1.957,1.2051 0.012,0.01 -0.2023,1.1143 -0.4804,2.4648 -1.4738,7.1267 -1.5976,13.8702 -0.3594,19.0762 1.1884,4.9913 4.3618,9.3975 8.3008,11.5273 3.3947,1.834 5.5949,2.0778 7.5312,0.8301 2.1951,-1.4143 3.6777,-4.3023 6.2832,-12.2461 0.9662,-2.9449 2.6634,-7.7443 3.7715,-10.666 2.265,-5.9738 3.0682,-8.4168 3.8242,-11.625 1.7214,-7.3164 0.4964,-11.353 -5.3906,-17.7676 -4.1114,-4.4793 -10.3748,-9.7954 -15.8379,-13.4394 -1.3278,-0.8855 -2.4181,-1.6894 -2.4219,-1.7578 0,-0.082 0.6626,-0.2761 1.4844,-0.4239 0.4342,-0.08 0.8592,-0.1305 1.3321,-0.1425 z m 98.871,60.041 c -1.4849,-0.01 -2.8611,0.6594 -3.9082,1.9336 -1.3299,1.6214 -1.6176,3.9514 -0.7246,5.9218 0.5765,1.2738 1.1904,1.9312 2.3926,2.5567 1.2763,0.6644 3.3451,0.6136 4.7422,-0.1133 4.2065,-2.1839 3.5689,-8.671 -0.9883,-10.0606 -0.5106,-0.1558 -1.0187,-0.2354 -1.5137,-0.2382 z m -196.2988,0.062 c -1.6611,0 -2.7219,0.4702 -3.8984,1.7343 -2.4124,2.5909 -1.5564,7.0869 1.6504,8.6641 0.6562,0.3038 1.2407,0.4142 2.498,0.3594 1.4287,-0.055 1.7626,-0.152 2.5625,-0.7383 1.5248,-1.1166 2.1931,-2.3124 2.2891,-4.1094 0.1013,-1.8789 -0.2052,-2.9217 -1.2051,-4.0722 -1.1416,-1.317 -2.2399,-1.8348 -3.8965,-1.836 z m 156.4141,24.9082 v 0 c 1.7339,0.096 3.619,0.8557 5.4824,2.3164 3.4573,2.7103 5.9277,7.0809 5.9277,10.4903 0,3.9057 -3.536,8.3617 -8.0097,10.0957 -0.5983,0.2327 -1.4908,0.5077 -1.9824,0.5761 -0.789,0.137 -0.9324,0.092 -1.209,-0.3652 -4.2272,-6.9789 -6.8042,-11.4864 -7.0098,-12.2617 -0.4218,-1.5926 -0.325,-4.574 0.1914,-5.9668 1.2496,-3.3608 3.7195,-5.0459 6.6094,-4.8867 z m -19.5996,8.2246 v 0 c 1.7116,0.051 3.4225,0.5561 4.8418,1.5078 1.8985,1.2727 2.9648,2.7222 7.0742,9.623 3.9286,6.6022 4.0415,6.8231 3.8457,7.586 -1.0175,3.9307 -4.5879,7.574 -8.2968,8.4629 -0.8686,0.1916 -4.0702,0.3079 -4.6016,0.1367 -2.1773,-0.6803 -1.7032,-0.1468 -6.334,-7.1035 -5.0359,-7.5651 -5.3994,-8.3474 -5.4258,-11.5352 -0.011,-1.8726 0.056,-2.2769 0.586,-3.459 0.6625,-1.4796 2.1538,-3.1965 3.4687,-4.0019 1.4203,-0.8678 3.1323,-1.2713 4.8438,-1.2207 z m -16.6641,14.6679 v 0 c 0.9058,-0.026 1.8583,0.1958 2.8262,0.6855 0.7069,0.3575 1.5462,0.8877 1.8652,1.1738 0.3196,0.2867 2.4193,3.2816 4.666,6.6563 l 4.086,6.1347 -0.1094,1.3692 c -0.283,3.6188 -2.0931,6.2388 -4.9121,7.1113 -1.3435,0.4091 -4.1621,0.4002 -5.6817,-0.025 -0.6344,-0.1767 -1.7462,-0.6183 -2.4707,-0.9785 l -1.3183,-0.6543 -1.9883,-3.4473 c -1.0941,-1.8964 -2.2327,-4.1355 -2.5312,-4.9765 -0.7163,-2.0236 -0.8878,-4.8008 -0.418,-6.711 0.9738,-3.9595 3.265,-6.2639 5.9824,-6.3418 z m -15.5312,14.8047 v 0 c 1.5052,-0.057 3.1338,0.4335 4.7207,1.5176 1.6577,1.1322 2.2873,1.8987 4.0801,4.9668 1.4747,2.5716 1.5316,2.6517 1.5293,4.127 -0.01,3.9664 -1.7824,7.6225 -4.3848,9.0351 -0.5823,0.3139 -1.3693,0.4862 -2.4609,0.541 -1.4131,0.066 -1.7593,0 -2.8906,-0.5605 -1.7318,-0.8604 -3.2932,-2.3848 -4.6895,-4.5762 -1.6349,-2.569 -2.1209,-4.1644 -2.1133,-6.9531 0.01,-1.7363 0.112,-2.5088 0.4707,-3.4922 1.0647,-2.9029 3.2316,-4.5148 5.7403,-4.6094 z"
             transform="matrix(0.26458333,0,0,0.26458333,0,26.066655)"
             id="path1480"
             inkscape:connector-curvature="0" />
          <path
             inkscape:connector-curvature="0"
             id="path1482"
             d="m 819.3413,705.58391 c 0.2178,-0.0663 0.65593,-0.25947 0.9732,-0.42907 0.57135,-0.30441 0.57639,-0.30984 0.53801,-0.48745 -0.0181,-0.0989 -0.0391,-0.4984 -0.0391,-0.888 0.002,-0.55649 0.029,-0.79694 0.12575,-1.12153 0.32724,-1.09663 1.17719,-1.98471 2.11553,-2.21012 0.35841,-0.0859 1.04423,-0.0746 1.43793,0.0217 0.187,0.0468 0.35913,0.0863 0.38247,0.0877 0.0217,10e-4 0.0435,-0.21708 0.0435,-0.48488 10e-4,-0.63538 0.1214,-1.2068 0.3659,-1.74412 0.45296,-0.99422 1.16803,-1.61952 2.08165,-1.82043 0.38203,-0.0841 0.91801,-0.0754 1.15161,0.0145 0.0656,0.0254 0.0815,-0.0493 0.0819,-0.40164 0.002,-0.96084 0.3305,-1.76165 1.0156,-2.47198 0.70369,-0.73003 1.53462,-1.08144 2.55167,-1.0792 0.68731,10e-4 1.09772,0.0997 1.6749,0.40164 l 0.46266,0.24208 0.12793,-0.46259 c 0.39464,-1.42442 1.52613,-2.34779 2.87637,-2.34779 0.81929,0 1.49968,0.24099 2.24896,0.79737 0.32941,0.24425 0.98661,0.92112 1.275,1.3124 l 0.14061,0.19134 1.01948,-0.79958 c 0.56069,-0.43998 1.04057,-0.82154 1.06637,-0.84821 0.0254,-0.0254 -0.43577,-1.00154 -1.02578,-2.16612 -0.58998,-1.16466 -1.59525,-3.15357 -2.23386,-4.4198 -1.65,-3.27166 -3.92157,-7.76734 -4.20565,-8.32343 -0.133,-0.2602 -0.43429,-0.85738 -0.67057,-1.32817 -0.23628,-0.47082 -0.62806,-1.24024 -0.87105,-1.70998 l -0.44175,-0.85401 -0.73627,-0.22613 c -3.22238,-0.98871 -7.53259,-2.17079 -9.17516,-2.51619 -1.36067,-0.28665 -1.77924,-0.33231 -2.23871,-0.24715 -0.21744,0.0391 -0.39421,0.0906 -0.39291,0.11234 10e-4,0.0181 0.28955,0.23084 0.64086,0.46513 1.44543,0.96414 3.10272,2.37033 4.19054,3.55549 1.5576,1.69719 1.88168,2.76526 1.42623,4.70105 -0.20004,0.84883 -0.41255,1.49515 -1.01183,3.07572 -0.29318,0.77302 -0.74233,2.04313 -0.99796,2.8223 -0.68937,2.1018 -1.08148,2.86601 -1.66225,3.24022 -0.51231,0.33013 -1.09471,0.26563 -1.9929,-0.21961 -1.0422,-0.56352 -1.88168,-1.72941 -2.19612,-3.05003 -0.3276,-1.37742 -0.29463,-3.16158 0.0953,-5.04717 0.0736,-0.35732 0.1301,-0.65075 0.12683,-0.65248 -0.003,-0.002 -0.237,-0.1446 -0.51756,-0.31855 -0.28049,-0.17322 -0.53623,-0.31564 -0.5686,-0.31673 -0.0362,-6.5e-4 -0.93717,0.68735 -2.01065,1.52937 -2.88601,2.26389 -3.7597,2.89434 -7.24724,5.22948 -3.30584,2.2136 -5.80515,3.96043 -6.85304,4.78998 -0.96117,0.76077 -1.50559,1.51233 -1.84602,2.54826 -0.21055,0.64009 -0.22396,1.3926 -0.0362,1.82997 0.50989,1.16838 1.86588,1.45065 3.82555,0.79639 0.60015,-0.2004 1.55455,-0.62411 2.01797,-0.89601 0.3026,-0.17757 4.64408,-2.95066 6.83343,-4.36497 0.91533,-0.59124 1.1203,-0.70061 1.31247,-0.70061 0.45955,0 0.75581,0.48542 0.55881,0.91591 -0.0674,0.14822 -0.26309,0.30694 -0.81454,0.66176 -0.39903,0.2573 -2.14782,1.37843 -3.88618,2.4918 -1.73828,1.11338 -3.31175,2.14279 -3.49657,2.2876 -1.51646,1.18817 -1.85819,3.03716 -0.75551,4.08762 0.65752,0.62629 1.68682,0.69797 2.75316,0.19171 0.34862,-0.16561 1.13758,-0.66441 4.88605,-3.08964 3.97017,-2.56852 3.94433,-2.55265 4.14006,-2.55265 0.48927,0 0.79027,0.50862 0.56591,0.95635 -0.0475,0.095 -0.31709,0.31311 -0.66553,0.53899 -2.43835,1.58086 -3.84461,2.48915 -5.51298,3.56075 -1.05909,0.68028 -2.00693,1.30076 -2.10629,1.37868 -0.13844,0.10871 -0.18953,0.20293 -0.21853,0.40598 -0.12212,0.85003 0.45231,2.04472 1.24822,2.59534 0.83372,0.57682 1.84715,0.64582 3.09319,0.21055 0.4402,-0.15366 0.84927,-0.42081 4.1512,-2.70942 2.01467,-1.3964 3.7153,-2.55616 3.77915,-2.57732 0.20512,-0.0681 0.48905,0.0254 0.64082,0.21598 0.158,0.19605 0.18953,0.47647 0.0815,0.72399 -0.0435,0.0968 -1.23887,0.96207 -3.56814,2.58018 -1.92741,1.33889 -3.5044,2.43922 -3.5044,2.44513 0,0.007 0.0504,0.16344 0.11198,0.35079 0.2776,0.84053 0.85293,1.43536 1.57256,1.62551 0.32289,0.0848 1.2354,0.0217 1.68516,-0.1127 z"
             style="fill:#ffffff;fill-opacity:1;stroke-width:4.38962221" />
          <path
             inkscape:connector-curvature="0"
             d="m 847.37976,687.86788 c -0.31854,-0.16561 -0.4805,-0.33884 -0.63313,-0.67611 -0.23628,-0.52134 -0.16018,-1.13773 0.1917,-1.56673 0.36939,-0.44951 0.89413,-0.61396 1.43456,-0.449 1.20575,0.36764 1.37462,2.08447 0.26165,2.6623 -0.36986,0.19243 -0.91776,0.20512 -1.2554,0.029 z m 0.73304,3.91759 c 1.27714,-0.69985 2.52602,-1.38578 2.7752,-1.52414 0.24968,-0.13844 0.92464,-0.51007 1.50091,-0.82611 0.57631,-0.316 1.05691,-0.58327 1.06797,-0.59385 0.0145,-0.0145 -0.2718,-0.59856 -0.62933,-1.30664 -0.35732,-0.70807 -2.68282,-5.31193 -5.16802,-10.2307 -2.48517,-4.91881 -4.67416,-9.25478 -4.86449,-9.63551 -0.19026,-0.38116 -0.36721,-0.69293 -0.39377,-0.69365 -0.0362,-7.6e-4 -7.75688,4.20961 -7.83476,4.27158 -0.007,0.003 0.58816,1.18976 1.31914,2.63429 0.73109,1.44449 1.52292,3.01158 1.75963,3.48229 0.48589,0.96642 2.91225,5.76919 5.42779,10.74374 0.92757,1.83446 1.87686,3.71549 2.10948,4.18018 0.33484,0.66872 0.44222,0.8372 0.51546,0.80795 0.0511,-0.0181 1.13744,-0.6095 2.41461,-1.30943 z"
             style="fill:#ffffff;fill-opacity:1;stroke-width:4.38962221"
             id="path1484" />
        </g>
      </g>
      <g
         id="text1590"
         style="font-style:normal;font-weight:normal;font-size:16.30068779px;line-height:10.1879282px;font-family:sans-serif;letter-spacing:0px;word-spacing:0px;fill:#ffffff;fill-opacity:1;stroke:none;stroke-width:0.27039504"
         aria-label="JUGAAD HUB">
        <path
           inkscape:connector-curvature="0"
           id="path841"
           style="font-style:normal;font-variant:normal;font-weight:bold;font-stretch:normal;font-family:'Futura New';-inkscape-font-specification:'Futura New Bold';fill:#ffffff;fill-opacity:1;stroke-width:0.27039504"
           d="m 19.911822,262.31863 v 7.41682 c 0,0.32601 -0.0489,0.86393 -0.293412,1.09214 -0.114105,0.0978 -0.309713,0.17931 -0.489021,0.17931 -0.163007,0 -0.391216,-0.0815 -0.537923,-0.19561 -0.195608,-0.163 -0.358615,-0.57052 -0.391216,-0.86393 l -1.841978,1.89088 c 0.309713,0.47272 0.684629,0.84763 1.075846,1.10844 0.603125,0.39122 1.108446,0.48902 1.711572,0.48902 1.092146,0 1.939782,-0.30971 2.657012,-1.02694 0.847636,-0.84764 0.929139,-1.59747 0.929139,-2.60811 v -7.48202 z" />
        <path
           inkscape:connector-curvature="0"
           id="path843"
           style="font-style:normal;font-variant:normal;font-weight:bold;font-stretch:normal;font-family:'Futura New';-inkscape-font-specification:'Futura New Bold';fill:#ffffff;fill-opacity:1;stroke-width:0.27039504"
           d="m 25.026163,262.31863 v 6.24317 c 0,1.15735 0.114105,2.5429 1.059545,3.56985 0.668328,0.71723 1.890879,1.30405 3.602452,1.30405 1.532264,0 2.673312,-0.42381 3.586151,-1.35295 1.173649,-1.18995 1.222551,-2.3799 1.222551,-3.52095 v -6.24317 h -2.820019 v 6.19427 c 0,0.60312 0.0163,1.40185 -0.635726,1.97238 -0.309713,0.27711 -0.815035,0.47272 -1.304055,0.47272 -0.489021,0 -1.010643,-0.21191 -1.336657,-0.52162 -0.537923,-0.52163 -0.554223,-1.22256 -0.554223,-1.67897 v -6.43878 z" />
        <path
           inkscape:connector-curvature="0"
           id="path845"
           style="font-style:normal;font-variant:normal;font-weight:bold;font-stretch:normal;font-family:'Futura New';-inkscape-font-specification:'Futura New Bold';fill:#ffffff;fill-opacity:1;stroke-width:0.27039504"
           d="m 41.99034,269.23013 h 2.314698 c -0.0978,0.60312 -0.407517,0.99434 -0.668328,1.20625 -0.505322,0.42381 -1.075846,0.50532 -1.564866,0.50532 -0.831336,0 -1.467062,-0.27711 -1.988684,-0.83134 -0.505322,-0.53792 -0.863937,-1.35295 -0.863937,-2.3473 0,-0.84763 0.309713,-1.85827 0.94544,-2.494 0.505321,-0.50532 1.18995,-0.74983 1.858279,-0.74983 0.537922,0 1.043244,0.1467 1.515963,0.53792 0.277112,0.22821 0.586825,0.58682 0.782433,1.09215 l 2.689614,-1.10845 c -0.391217,-0.84764 -1.092146,-1.71157 -1.939782,-2.2332 -0.831335,-0.50532 -1.923481,-0.73353 -2.934124,-0.73353 -1.923481,0 -3.32534,0.70093 -4.221878,1.59747 -0.94544,0.92914 -1.630069,2.3473 -1.630069,4.07517 0,1.79308 0.749832,3.11343 1.564866,3.92847 0.880238,0.89654 2.216894,1.61377 4.172977,1.61377 1.385558,0 2.689613,-0.30972 3.830661,-1.36926 1.304055,-1.20625 1.744174,-2.73852 1.744174,-4.89021 H 41.99034 Z" />
        <path
           inkscape:connector-curvature="0"
           id="path847"
           style="font-style:normal;font-variant:normal;font-weight:bold;font-stretch:normal;font-family:'Futura New';-inkscape-font-specification:'Futura New Bold';fill:#ffffff;fill-opacity:1;stroke-width:0.27039504"
           d="m 56.079483,273.19119 h 3.015627 l -4.091472,-10.87256 h -3.08083 l -4.172976,10.87256 h 2.983026 l 0.733531,-1.82567 h 3.944766 z m -3.830661,-3.97737 1.18995,-3.52094 1.222551,3.52094 z" />
        <path
           inkscape:connector-curvature="0"
           id="path849"
           style="font-style:normal;font-variant:normal;font-weight:bold;font-stretch:normal;font-family:'Futura New';-inkscape-font-specification:'Futura New Bold';fill:#ffffff;fill-opacity:1;stroke-width:0.27039504"
           d="m 67.668251,273.19119 h 3.015627 l -4.091472,-10.87256 h -3.08083 L 59.3386,273.19119 h 2.983026 l 0.733531,-1.82567 h 3.944766 z m -3.830661,-3.97737 1.18995,-3.52094 1.222551,3.52094 z" />
        <path
           inkscape:connector-curvature="0"
           id="path851"
           style="font-style:normal;font-variant:normal;font-weight:bold;font-stretch:normal;font-family:'Futura New';-inkscape-font-specification:'Futura New Bold';fill:#ffffff;fill-opacity:1;stroke-width:0.27039504"
           d="m 75.899081,273.19119 c 1.858279,0 3.30904,-0.78243 4.172976,-1.64637 1.059545,-1.05954 1.41816,-2.331 1.41816,-3.76546 0,-1.17365 -0.24451,-2.73851 -1.515964,-3.96106 -1.401859,-1.35296 -3.227536,-1.49967 -4.319682,-1.49967 h -3.700256 v 10.87256 z m -1.124747,-8.47636 h 0.684629 c 0.700929,0 1.581166,0.0652 2.249495,0.68463 0.537922,0.50533 0.847635,1.36926 0.847635,2.3799 0,1.20626 -0.472719,1.89088 -0.831335,2.2332 -0.733531,0.71723 -1.695271,0.78243 -2.3799,0.78243 h -0.570524 z" />
        <path
           inkscape:connector-curvature="0"
           id="path853"
           style="font-style:normal;font-variant:normal;font-weight:bold;font-stretch:normal;font-family:'Futura New';-inkscape-font-specification:'Futura New Bold';fill:#ffffff;fill-opacity:1;stroke-width:0.27039504"
           d="m 89.897045,262.31863 h -2.820019 v 10.87256 h 2.820019 v -4.40118 h 4.075172 v 4.40118 h 2.83632 v -10.87256 h -2.83632 v 4.05888 h -4.075172 z" />
        <path
           inkscape:connector-curvature="0"
           id="path855"
           style="font-style:normal;font-variant:normal;font-weight:bold;font-stretch:normal;font-family:'Futura New';-inkscape-font-specification:'Futura New Bold';fill:#ffffff;fill-opacity:1;stroke-width:0.27039504"
           d="m 99.079681,262.31863 v 6.24317 c 0,1.15735 0.114105,2.5429 1.059549,3.56985 0.66832,0.71723 1.89088,1.30405 3.60245,1.30405 1.53226,0 2.67331,-0.42381 3.58615,-1.35295 1.17365,-1.18995 1.22255,-2.3799 1.22255,-3.52095 v -6.24317 h -2.82002 v 6.19427 c 0,0.60312 0.0163,1.40185 -0.63573,1.97238 -0.30971,0.27711 -0.81503,0.47272 -1.30405,0.47272 -0.48902,0 -1.01064,-0.21191 -1.33666,-0.52162 -0.53792,-0.52163 -0.55422,-1.22256 -0.55422,-1.67897 v -6.43878 z" />
        <path
           inkscape:connector-curvature="0"
           id="path857"
           style="font-style:normal;font-variant:normal;font-weight:bold;font-stretch:normal;font-family:'Futura New';-inkscape-font-specification:'Futura New Bold';fill:#ffffff;fill-opacity:1;stroke-width:0.27039504"
           d="m 115.35923,273.19119 c 1.33665,0 2.3636,-0.42382 2.95042,-1.02694 0.40752,-0.40752 0.79874,-1.10845 0.79874,-2.13539 0,-0.86394 -0.29342,-1.56487 -0.73354,-1.98868 -0.34231,-0.32602 -0.91283,-0.58683 -1.48336,-0.65203 0.40752,-0.17931 0.65203,-0.42382 0.88024,-0.84764 0.22821,-0.45642 0.30971,-0.86393 0.30971,-1.33665 0,-0.96174 -0.29341,-1.63007 -0.66833,-2.03759 -0.66832,-0.73353 -1.59746,-0.84764 -2.3799,-0.84764 h -4.20557 v 10.87256 z m -1.71157,-8.70456 h 0.52162 c 0.55422,0 0.89654,0.1467 1.07584,0.32601 0.16301,0.17931 0.26081,0.45642 0.26081,0.73353 0,0.24451 -0.0815,0.53792 -0.26081,0.71723 -0.29341,0.30971 -0.78243,0.34231 -1.07584,0.34231 h -0.52162 z m 0,4.22187 h 0.58682 c 0.70093,0 1.40186,0.0163 1.74417,0.35862 0.16301,0.16301 0.27712,0.44012 0.27712,0.78243 0,0.30971 -0.0978,0.55423 -0.22821,0.70093 -0.30972,0.35862 -0.96174,0.44012 -1.74418,0.44012 h -0.63572 z" />
      </g>
    </g>
  </g>
</svg>
