<?xml version="1.0" encoding="UTF-8" standalone="no"?>
<!-- Created with Inkscape (http://www.inkscape.org/) -->

<svg
   xmlns:dc="http://purl.org/dc/elements/1.1/"
   xmlns:cc="http://creativecommons.org/ns#"
   xmlns:rdf="http://www.w3.org/1999/02/22-rdf-syntax-ns#"
   xmlns:svg="http://www.w3.org/2000/svg"
   xmlns="http://www.w3.org/2000/svg"
   xmlns:sodipodi="http://sodipodi.sourceforge.net/DTD/sodipodi-0.dtd"
   xmlns:inkscape="http://www.inkscape.org/namespaces/inkscape"
   width="512"
   height="512"
   viewBox="0 0 135.46666 135.46667"
   version="1.1"
   id="svg8"
   sodipodi:docname="logo-localhelper.svg"
   inkscape:export-filename="D:\Mingoo Food\Mobile App\app-icon.png"
   inkscape:export-xdpi="96"
   inkscape:export-ydpi="96"
   inkscape:version="0.92.3 (2405546, 2018-03-11)">
  <defs
     id="defs2">
    <clipPath
       id="clipPath842"
       clipPathUnits="userSpaceOnUse">
      <path
         inkscape:connector-curvature="0"
         id="path840"
         d="M 0,576 H 576 V 0 H 0 Z" />
    </clipPath>
  </defs>
  <sodipodi:namedview
     id="base"
     pagecolor="#ffffff"
     bordercolor="#666666"
     borderopacity="1.0"
     inkscape:pageopacity="0.0"
     inkscape:pageshadow="2"
     inkscape:zoom="0.99137202"
     inkscape:cx="228.0284"
     inkscape:cy="248.5715"
     inkscape:document-units="px"
     inkscape:current-layer="layer1"
     showgrid="false"
     units="px"
     inkscape:window-width="1600"
     inkscape:window-height="837"
     inkscape:window-x="-8"
     inkscape:window-y="-8"
     inkscape:window-maximized="1"
     showguides="true" />
  <metadata
     id="metadata5">
    <rdf:RDF>
      <cc:Work
         rdf:about="">
        <dc:format>image/svg+xml</dc:format>
        <dc:type
           rdf:resource="http://purl.org/dc/dcmitype/StillImage" />
        <dc:title />
      </cc:Work>
    </rdf:RDF>
  </metadata>
  <g
     inkscape:label="Layer 1"
     inkscape:groupmode="layer"
     id="layer1"
     transform="translate(0,-161.53332)">
    <path
       style="opacity:0;fill:#ed0302;fill-opacity:1;stroke:none;stroke-width:0.52916658;stroke-linecap:round;stroke-linejoin:miter;stroke-miterlimit:4;stroke-dasharray:none;stroke-opacity:1;paint-order:normal"
       d="m 26.458335,161.53333 h 82.549995 c 14.65792,0 26.45833,11.80041 26.45833,26.45833 v 82.54999 c 0,14.65792 -11.80041,26.45833 -26.45833,26.45833 H 26.458335 C 11.800419,296.99998 2.7270507e-6,285.19957 2.7270507e-6,270.54165 V 187.99166 C 2.7270507e-6,173.33374 11.800419,161.53333 26.458335,161.53333 Z"
       id="rect872" />
    <g
       id="g925"
       transform="matrix(0.6057549,0,0,0.6057549,-67.662692,14.334625)"
       style="fill:#ffffff;stroke-width:1.65083277">
      <path
         d="m 288.26677,384.0989 c -1.12943,-0.28358 -1.84497,-1.35615 -1.74001,-2.60818 0.077,-0.91893 0.58325,-1.66026 1.38028,-2.02138 0.5286,-0.23952 1.47293,-0.22525 2.0159,0.0305 0.59236,0.27896 0.85586,0.53357 1.13107,1.09287 0.218,0.44304 0.24392,0.56316 0.24356,1.12889 0,0.54035 -0.0305,0.69452 -0.20592,1.0524 -0.2418,0.49334 -0.74345,0.98181 -1.22878,1.1965 -0.39235,0.17355 -1.16788,0.23596 -1.5961,0.12844 z m 5.22382,12.41488 v -9.43942 h 1.40414 c 1.39498,0 1.40439,10e-4 1.44332,0.16724 0.0215,0.092 0.097,0.52678 0.16759,0.96624 0.0706,0.43945 0.15252,0.799 0.18198,0.799 0.0295,0 0.13675,-0.1257 0.23841,-0.27932 1.60204,-2.42085 5.59463,-2.82182 7.64471,-0.76775 0.91407,0.91584 1.47287,2.17683 1.7866,4.03167 0.0673,0.39778 0.0998,2.36588 0.11998,7.25382 l 0.0276,6.70793 h -2.08478 -2.08478 l -10e-4,-6.18764 c -0.002,-7.16064 -0.025,-7.4799 -0.61107,-8.34921 -0.35481,-0.52634 -0.80625,-0.73716 -1.57853,-0.73716 -0.99022,0 -1.62854,0.40987 -2.08562,1.33919 -0.39467,0.80246 -0.40585,1.0155 -0.40585,7.73513 v 6.19969 h -2.08113 -2.08113 v -9.43941 z m -6.61502,0 v -9.43942 h 2.08113 2.08113 v 9.43942 9.43941 h -2.08113 -2.08113 z m -16.35175,0 v -9.43942 h 1.4122 c 0.7767,0 1.41219,0.0101 1.41219,0.0224 0,0.0991 0.37412,2.08598 0.39711,2.10896 0.0163,0.0164 0.13631,-0.13637 0.26658,-0.33937 0.59437,-0.92624 1.75095,-1.74778 2.90397,-2.06272 0.7114,-0.19432 2.46957,-0.18374 3.08453,0.0186 l 0.44596,0.1467 0.0198,2.03078 c 0.0187,1.9152 0.0123,2.02792 -0.11149,1.98037 -0.43261,-0.16617 -1.22557,-0.33739 -1.75225,-0.37837 -1.62126,-0.12614 -2.83515,0.50255 -3.44343,1.78341 -0.46151,0.97182 -0.46742,1.06794 -0.4703,7.64059 l -0.003,5.9275 h -2.08113 -2.08113 z m -36.34547,-3.45617 v -12.89558 h 2.08113 2.08114 v 12.89558 12.89558 h -2.08114 -2.08113 z m -29.73044,0 v -12.89558 h 2.08113 2.08113 v 4.24327 4.24326 l 0.29827,-0.37734 c 1.27955,-1.61876 3.56156,-2.09579 5.49917,-1.14956 0.41177,0.20109 0.70348,0.41985 1.1163,0.83714 0.87295,0.88241 1.38663,2.00314 1.72382,3.76094 0.15082,0.78619 0.15798,1.07524 0.18636,7.52552 l 0.0295,6.70793 h -2.08543 -2.08544 v -6.12652 c 0,-3.94633 -0.0283,-6.33004 -0.0795,-6.69841 -0.24703,-1.77608 -0.82769,-2.44908 -2.11307,-2.44908 -0.98855,0 -1.62728,0.41043 -2.08408,1.33919 -0.39467,0.80246 -0.40585,1.0155 -0.40585,7.73513 v 6.19969 h -2.08113 -2.08113 z m -6.46637,0 v -12.89558 h 2.08113 2.08113 v 12.89558 12.89558 h -2.08113 -2.08113 z m -57.15679,0.44596 v -12.44962 h 2.15546 2.15546 v 10.36849 10.36849 h 3.86496 3.86495 v 2.08113 2.08113 h -6.02041 -6.02042 z m 141.34854,12.81957 c -0.68682,-0.1734 -1.26013,-0.65253 -1.55421,-1.29888 -0.24441,-0.53718 -0.24167,-1.61745 0.005,-2.17233 0.19448,-0.43658 0.6962,-0.94019 1.10838,-1.11254 0.66451,-0.27787 1.6657,-0.2418 2.30689,0.0831 0.42252,0.2141 0.78947,0.6083 1.00504,1.07968 0.22195,0.4853 0.22069,1.60605 -0.002,2.094 -0.37881,0.82874 -1.11001,1.31841 -2.04329,1.36838 -0.30035,0.0161 -0.67204,-0.003 -0.82597,-0.0414 z m -17.62304,-12.3509 c -0.0805,-1.68547 -0.30042,-2.35765 -0.95482,-2.9178 -0.43293,-0.37057 -0.95785,-0.51159 -1.76046,-0.47294 -0.53083,0.0256 -0.70787,0.0679 -1.04522,0.25011 -0.87829,0.47431 -1.19306,1.23735 -1.24799,3.02515 l -0.036,1.17064 h 2.54742 2.54741 z m -3.77697,12.35213 c -3.08697,-0.49085 -4.95,-2.55497 -5.33434,-5.9101 -0.10124,-0.88383 -0.0999,-6.97744 0.002,-7.8891 0.21068,-1.88939 1.02133,-3.53761 2.22465,-4.52319 0.58393,-0.47826 1.45151,-0.90681 2.28748,-1.12991 0.63893,-0.17052 0.86925,-0.19336 1.98627,-0.19696 1.06187,-0.003 1.36696,0.0219 1.91144,0.15852 2.51001,0.62989 4.01382,2.22336 4.61131,4.88625 0.13187,0.58772 0.15418,1.00962 0.18373,3.47475 l 0.0336,2.80581 h -4.58781 -4.5878 l 0.0398,1.13347 c 0.0439,1.24997 0.15045,1.73039 0.50922,2.29558 0.38941,0.61346 1.09673,0.95619 1.97335,0.95619 1.30127,0 2.04971,-0.58743 2.40568,-1.88817 l 0.124,-0.4531 2.09215,-0.0197 c 1.1781,-0.0111 2.09215,0.009 2.09215,0.046 0,0.26396 -0.25979,1.49266 -0.41875,1.98054 -0.73046,2.24187 -2.32854,3.66971 -4.66875,4.17137 -0.63356,0.13581 -2.29569,0.19458 -2.87922,0.10179 z m -32.27119,-12.35213 c -0.0805,-1.68547 -0.30043,-2.35765 -0.95482,-2.9178 -0.43294,-0.37057 -0.95785,-0.51159 -1.76046,-0.47294 -0.53083,0.0256 -0.70788,0.0679 -1.04523,0.25011 -0.87828,0.47431 -1.19306,1.23735 -1.24798,3.02515 l -0.036,1.17064 h 2.54741 2.54742 z m -3.77698,12.35213 c -3.08696,-0.49085 -4.94999,-2.55497 -5.33433,-5.9101 -0.10125,-0.88383 -0.0999,-6.97744 0.002,-7.8891 0.21068,-1.88939 1.02133,-3.53761 2.22466,-4.52319 0.58393,-0.47826 1.45151,-0.90681 2.28748,-1.12991 0.63892,-0.17052 0.86925,-0.19336 1.98627,-0.19696 1.06187,-0.003 1.36695,0.0219 1.91144,0.15852 2.51,0.62989 4.01382,2.22336 4.61131,4.88625 0.13187,0.58772 0.15417,1.00962 0.18373,3.47475 l 0.0336,2.80581 h -4.58771 -4.58781 l 0.0398,1.13347 c 0.0439,1.24997 0.15045,1.73039 0.50921,2.29558 0.38941,0.61346 1.09673,0.95619 1.97335,0.95619 1.30128,0 2.04971,-0.58743 2.40568,-1.88817 l 0.124,-0.4531 2.09215,-0.0197 c 1.17811,-0.0111 2.09215,0.009 2.09215,0.046 0,0.26396 -0.25979,1.49266 -0.41875,1.98054 -0.73045,2.24187 -2.32854,3.66971 -4.66875,4.17137 -0.63355,0.13581 -2.29569,0.19458 -2.87922,0.10179 z m -51.21069,0 c -0.78454,-0.125 -1.35808,-0.30424 -2.06494,-0.64531 -0.59955,-0.2893 -0.80408,-0.43993 -1.38154,-1.01754 -0.58803,-0.58817 -0.72877,-0.78134 -1.0625,-1.45839 -0.74734,-1.51617 -0.82819,-2.17284 -0.82847,-6.72846 -2.8e-4,-4.4941 0.0779,-5.12326 0.82627,-6.65024 0.33502,-0.68358 0.46735,-0.86479 1.06638,-1.46029 0.57751,-0.5741 0.79277,-0.73268 1.38375,-1.01942 0.86489,-0.41966 1.71587,-0.63093 2.78097,-0.69046 2.35948,-0.13186 4.42179,0.65826 5.60451,2.14721 0.87169,1.09738 1.49364,2.94924 1.49364,4.44734 v 0.36625 h -2.08114 -2.08113 l -0.001,-0.2044 c -0.002,-0.34607 -0.19994,-1.16316 -0.36811,-1.52091 -0.20596,-0.43817 -0.6203,-0.85563 -1.0428,-1.05064 -0.25802,-0.1191 -0.48735,-0.15502 -1.0034,-0.15716 -0.58619,-0.003 -0.72161,0.0231 -1.09479,0.20635 -0.76264,0.3745 -1.11778,1.01021 -1.24643,2.23115 -0.0917,0.87062 -0.0925,5.80727 -0.001,6.74702 0.12039,1.23714 0.47671,1.89492 1.22469,2.26087 0.48477,0.23717 1.1147,0.30791 1.68596,0.18931 1.05596,-0.2192 1.69165,-1.06951 1.82388,-2.43962 l 0.0448,-0.46453 h 2.10754 2.10755 v 0.16918 c 0,0.37546 -0.16539,1.46387 -0.30748,2.02344 -0.59651,2.3492 -2.17369,3.96507 -4.43378,4.54255 -0.80934,0.2068 -2.4018,0.29609 -3.15113,0.1767 z m -11.8351,-4.2308 c 0.73082,-0.32253 1.20337,-1.01965 1.36397,-2.01214 0.1035,-0.63964 0.1035,-6.49567 0,-7.1353 -0.16065,-0.99281 -0.62796,-1.6819 -1.37006,-2.02028 -0.3085,-0.14066 -0.49789,-0.16926 -1.11489,-0.16834 -0.62624,8.4e-4 -0.79898,0.0284 -1.09713,0.17436 -0.50919,0.24928 -0.96027,0.78496 -1.17504,1.39541 -0.17666,0.50212 -0.17874,0.54175 -0.20236,3.84305 -0.0156,2.17872 0.005,3.51927 0.058,3.86496 0.23872,1.54288 1.12227,2.31522 2.57125,2.24763 0.40404,-0.0188 0.72037,-0.0808 0.96624,-0.18935 z m -2.304,4.22865 c -2.39007,-0.37757 -3.97772,-1.54585 -4.85349,-3.57149 -0.63024,-1.45773 -0.70943,-2.25175 -0.67035,-6.7208 0.0285,-3.26089 0.0443,-3.62432 0.18353,-4.23586 0.56837,-2.49591 1.92763,-4.10641 4.0334,-4.77887 0.92228,-0.29453 1.34084,-0.34933 2.60142,-0.34067 1.06519,0.007 1.32215,0.0337 1.95504,0.20086 2.49802,0.65969 4.00552,2.33696 4.56297,5.07682 0.11927,0.58619 0.13417,1.09292 0.13417,4.56157 0,3.46865 -0.0149,3.97537 -0.13417,4.56157 -0.68697,3.37644 -2.85746,5.18864 -6.3322,5.28691 -0.57231,0.0162 -1.23845,-0.002 -1.48032,-0.04 z m 30.74827,-3.6824 c 0.50637,-0.17253 1.0275,-0.67323 1.28575,-1.23535 0.20883,-0.45452 0.21594,-0.50926 0.24178,-1.8619 l 0.0266,-1.39362 h -1.30401 c -0.71721,0 -1.48125,0.0376 -1.69788,0.0836 -1.16844,0.24813 -1.81004,0.96107 -1.89676,2.10765 -0.0949,1.25491 0.55098,2.17474 1.69591,2.4152 0.42642,0.0896 1.20711,0.0348 1.64859,-0.11563 z m -2.95825,3.76532 c -1.7805,-0.28598 -3.20333,-1.28832 -3.93312,-2.77077 -0.53463,-1.08602 -0.66085,-1.66526 -0.66085,-3.03266 0,-0.93985 0.0287,-1.25669 0.15592,-1.72016 0.42544,-1.55019 1.31792,-2.61095 2.80462,-3.33346 1.27462,-0.61945 2.41831,-0.81814 4.70928,-0.81814 h 1.44282 l -0.0402,-1.09631 c -0.0441,-1.20001 -0.14141,-1.63361 -0.49023,-2.18353 -0.16152,-0.25463 -0.32634,-0.39688 -0.63465,-0.54772 -0.3828,-0.18729 -0.47201,-0.20128 -1.10371,-0.17318 -0.58733,0.0262 -0.74582,0.0626 -1.09014,0.25043 -0.48974,0.26721 -0.84384,0.7293 -1.00854,1.31613 l -0.11994,0.42738 h -2.08263 -2.08264 l 0.0489,-0.42738 c 0.0753,-0.65833 0.30884,-1.59949 0.52512,-2.11583 0.98849,-2.35999 3.42547,-3.68898 6.46855,-3.52758 2.7701,0.14691 4.47852,1.33726 5.27753,3.67713 0.47236,1.38331 0.4741,1.41573 0.47443,8.87861 l 2.8e-4,6.74509 h -1.65949 -1.65949 l -0.0916,-0.72468 c -0.13123,-1.03856 -0.13297,-1.04203 -0.3557,-0.70813 -0.80451,1.20607 -2.07458,1.86369 -3.70352,1.91764 -0.44968,0.0149 -0.98561,0 -1.19096,-0.0329 z m -46.63789,3.85897 v -1.85815 h 48.90658 48.90659 v 1.85815 1.85815 h -48.90659 -48.90658 z m 107.58738,-8.00167 c 0.70922,-0.24165 1.21653,-0.96208 1.41764,-2.01322 0.12832,-0.67065 0.15146,-6.53121 0.0288,-7.28723 -0.16354,-1.00782 -0.63027,-1.77316 -1.28855,-2.11294 -0.43627,-0.22519 -1.37755,-0.27068 -1.91399,-0.0925 -0.54607,0.18138 -1.17104,0.80612 -1.3889,1.38841 -0.27398,0.73226 -0.31036,1.25436 -0.3096,4.44315 8.4e-4,3.33369 0.0381,3.74991 0.40322,4.49544 0.24062,0.49133 0.74269,0.97416 1.19774,1.15183 0.47128,0.18401 1.35522,0.19691 1.85368,0.0271 z m -7.47011,-2.55425 v -12.63704 l 1.43078,0.0202 1.43078,0.0202 0.1034,0.78042 c 0.0569,0.42923 0.1156,0.79457 0.13053,0.81185 0.0149,0.0173 0.14449,-0.10569 0.28793,-0.27326 0.62706,-0.73259 1.92356,-1.48302 2.9343,-1.6984 0.65,-0.13852 1.70678,-0.10289 2.4156,0.0814 2.47765,0.64432 4.09473,2.85084 4.42654,6.04005 0.0541,0.52002 0.0719,2.00421 0.051,4.25476 -0.0292,3.14686 -0.0457,3.51602 -0.18438,4.1251 -0.65443,2.87389 -2.24635,4.59174 -4.68994,5.06094 -1.42413,0.27345 -2.80997,-0.0153 -3.91416,-0.81553 l -0.37163,-0.26934 -0.0193,3.56784 -0.0193,3.56784 h -2.00609 -2.00609 z"
         style="fill:#ffffff;fill-opacity:1;stroke-width:1.65083277"
         id="path873"
         inkscape:connector-curvature="0" />
      <path
         d="m 285.33316,357.69683 c -6.00179,-6.00183 -12.00357,-12.00365 -18.00536,-18.00548 0,-12.64779 0,-25.29557 0,-37.94336 -4.16226,0 -8.32453,0 -12.48679,0 -0.01,9.14209 0.0277,18.28446 -0.0379,27.42633 -10.36381,-7.90205 -20.65345,-15.90133 -31.03172,-23.78435 -26.79572,22.96776 -53.48115,46.06401 -80.26572,69.04478 -6.37427,-3.90494 2.23512,-6.78289 4.8731,-10.03707 25.0687,-21.60814 50.16849,-43.18093 75.21992,-64.80863 8.91521,6.8558 17.83042,13.7116 26.74562,20.56741 0.0125,-7.62268 0.0251,-15.24536 0.0376,-22.86804 7.13515,0 14.27031,0 21.40546,0 0,13.5397 0,27.0794 0,40.6191 11.55761,11.5577 23.11523,23.1154 34.67285,34.67309 -1.65113,1.60374 -3.30225,4.44379 -4.95337,1.29001 -5.39123,-5.39126 -10.78246,-10.78253 -16.17369,-16.17379 z m -59.6817,-8.99865 c 6.58428,-1.37091 8.45,-10.99607 2.84696,-14.70156 -5.78949,-4.8147 -15.07496,1.50475 -12.99531,8.61096 1.00863,4.40534 5.7772,7.27481 10.14835,6.0906 z m -3.32812,2.80282 c -8.44157,-0.59035 -12.73949,-11.92687 -6.95145,-17.99665 4.97044,-6.23079 16.0669,-4.16457 18.44747,3.45151 2.87277,7.37357 -3.66754,15.59711 -11.49602,14.54514 z m 1.44046,18.35221 c 5.23964,-9.08281 11.39082,-18.09822 13.65833,-28.46933 0.944,-9.61753 -9.96693,-17.57092 -18.86192,-13.70317 -7.67621,2.71721 -11.2344,12.47459 -7.24055,19.56543 3.29782,8.01117 7.64838,15.54632 12.22952,22.88003 l 0.21408,-0.27296 z m 0.67623,6.88737 c 5.88536,1.21195 10.75007,-7.7115 3.5374,-8.82729 -2.12156,3.22159 -4.58243,10.29633 -6.83569,3.31229 -2.14765,-8.67232 -9.95609,3.4718 -2.19654,4.64335 1.71927,0.70113 3.64059,1.05634 5.49483,0.87165 z m -2.99497,2.49339 c -6.67868,0.21545 -12.51118,-9.01321 -5.33136,-12.98975 2.68783,-3.28502 -4.60591,-9.26427 -5.36816,-13.80167 -3.31446,-6.3322 -5.66615,-14.44077 -1.01277,-20.80327 5.60662,-9.36536 20.51899,-9.96612 26.86029,-1.08254 5.10089,5.96851 3.72026,14.36322 0.28018,20.74383 -1.29826,4.86949 -6.8199,10.38113 -6.52268,14.52723 7.73464,3.40145 2.85468,13.39004 -4.2001,13.33956 -1.55779,0.19045 -3.14258,0.20188 -4.7054,0.0666 z"
         style="fill:#ffffff;stroke-width:1.65083277"
         id="path847"
         inkscape:connector-curvature="0" />
    </g>
  </g>
</svg>
