<?xml version="1.0" encoding="UTF-8" standalone="no"?>
<!-- Created with Inkscape (http://www.inkscape.org/) -->

<svg
   xmlns:dc="http://purl.org/dc/elements/1.1/"
   xmlns:cc="http://creativecommons.org/ns#"
   xmlns:rdf="http://www.w3.org/1999/02/22-rdf-syntax-ns#"
   xmlns:svg="http://www.w3.org/2000/svg"
   xmlns="http://www.w3.org/2000/svg"
   xmlns:sodipodi="http://sodipodi.sourceforge.net/DTD/sodipodi-0.dtd"
   xmlns:inkscape="http://www.inkscape.org/namespaces/inkscape"
   width="512"
   height="512"
   viewBox="0 0 135.46666 135.46667"
   version="1.1"
   id="svg8"
   sodipodi:docname="logo-fitnyce.svg"
   inkscape:export-filename="D:\Mingoo Food\Mobile App\app-icon.png"
   inkscape:export-xdpi="96"
   inkscape:export-ydpi="96"
   inkscape:version="0.92.3 (2405546, 2018-03-11)">
  <defs
     id="defs2" />
  <sodipodi:namedview
     id="base"
     pagecolor="#ffffff"
     bordercolor="#666666"
     borderopacity="1.0"
     inkscape:pageopacity="0.0"
     inkscape:pageshadow="2"
     inkscape:zoom="1.0312227"
     inkscape:cx="281.30008"
     inkscape:cy="245.43712"
     inkscape:document-units="px"
     inkscape:current-layer="layer1"
     showgrid="false"
     units="px"
     inkscape:window-width="1600"
     inkscape:window-height="837"
     inkscape:window-x="-8"
     inkscape:window-y="-8"
     inkscape:window-maximized="1"
     showguides="true" />
  <metadata
     id="metadata5">
    <rdf:RDF>
      <cc:Work
         rdf:about="">
        <dc:format>image/svg+xml</dc:format>
        <dc:type
           rdf:resource="http://purl.org/dc/dcmitype/StillImage" />
        <dc:title />
      </cc:Work>
    </rdf:RDF>
  </metadata>
  <g
     inkscape:label="Layer 1"
     inkscape:groupmode="layer"
     id="layer1"
     transform="translate(0,-161.53332)">
    <rect
       rx="26.458332"
       style="opacity:0;fill:#ed0302;fill-opacity:1;stroke:none;stroke-width:0.52916658;stroke-linecap:round;stroke-linejoin:miter;stroke-miterlimit:4;stroke-dasharray:none;stroke-opacity:1;paint-order:normal"
       id="rect872"
       width="135.46666"
       height="135.46666"
       x="2.7270507e-006"
       y="161.53333"
       ry="26.458332"
       inkscape:export-xdpi="96"
       inkscape:export-ydpi="96" />
    <g
       id="g890"
       transform="matrix(1.0880782,0,0,1.0880782,-229.50753,54.61949)"
       style="fill:#ffffff;stroke-width:0.91905165">
      <path
         inkscape:connector-curvature="0"
         d="m 266.11419,155.12626 c 0,-0.0467 0.37068,-1.0475 0.82373,-2.22406 0.45305,-1.17657 0.82374,-2.2549 0.82374,-2.3963 0,-0.1426 -1.22284,-0.25709 -2.74578,-0.25709 h -2.7458 v -2.46346 -2.46346 l 3.77342,-0.0764 3.77342,-0.0764 0.60193,-1.51017 0.60193,-1.51019 -4.37535,-0.0754 -4.37535,-0.0754 v -2.5959 -2.59588 l 5.41443,-0.0744 5.41444,-0.0744 0.92862,-2.40256 0.92863,-2.40256 h 2.58075 c 1.49146,0 2.58074,0.11288 2.58074,0.26743 0,0.14709 -0.37068,1.20056 -0.82373,2.34107 -0.45306,1.1405 -0.82374,2.1322 -0.82374,2.20377 0,0.0716 1.2356,0.13014 2.74578,0.13014 h 2.74578 v 2.60849 2.60851 h -3.78985 -3.78985 l -0.46747,1.30425 c -0.25711,0.71733 -0.46686,1.4587 -0.46612,1.64747 0.001,0.25975 1.03634,0.34322 4.25733,0.34322 h 4.25596 v 2.47121 2.4712 h -5.32652 -5.32653 l -0.92821,2.40256 -0.9282,2.40257 -2.66906,0.0786 c -1.46799,0.0433 -2.66907,0.0404 -2.66907,-0.006 z m -2.33392,10.91552 c -8.94255,-12.24249 -10.11064,-14.14449 -11.1172,-18.10217 -0.76228,-2.99716 -0.76092,-7.77069 0.003,-10.758 1.07165,-4.19039 3.0946,-7.62136 6.22014,-10.54951 3.70057,-3.46685 7.68884,-5.16311 12.7195,-5.40974 9.57458,-0.4694 17.82405,5.81058 20.63612,15.70938 0.49963,1.75879 0.62347,2.88078 0.62124,5.62886 -0.005,6.66806 -0.99323,8.852 -8.88022,19.63237 -3.20408,4.37953 -5.92198,8.0616 -6.03976,8.18239 -0.17286,0.17724 -8.53401,-11.60461 -8.53401,-12.02543 0,-0.0666 0.95759,-0.0502 2.12798,0.0363 6.52066,0.48266 12.885,-3.8832 15.17556,-10.41022 0.83067,-2.36702 1.02659,-6.5496 0.42649,-9.10453 -1.18313,-5.0371 -4.91292,-9.42325 -9.49296,-11.16353 -8.4512,-3.2112 -17.9612,2.26085 -19.90928,11.45582 -0.79453,3.75019 -0.38704,6.58362 1.47573,10.26125 0.5737,1.13263 4.45273,7.1042 8.62005,13.27013 l 7.57695,11.2108 -1.38652,1.90032 c -0.76259,1.04519 -1.46402,1.89766 -1.55873,1.89439 -0.0947,-0.003 -4.00256,-5.24979 -8.68413,-11.65893 z"
         style="fill:#ffffff;fill-opacity:1;stroke-width:0.91905165"
         id="path850" />
      <g
         style="fill:#ffffff;stroke-width:2.11528897"
         transform="matrix(0.43448043,0,0,0.43448043,143.91728,83.146872)"
         id="g873">
        <path
           inkscape:connector-curvature="0"
           id="path852"
           style="fill:#ffffff;fill-opacity:1;stroke-width:2.11528897"
           d="m 372.70113,267.14222 c 0.0773,-0.40019 1.30814,-9.68706 2.73529,-20.6375 l 2.59482,-19.9099 h 12.9082 c 12.22745,0 12.9082,0.025 12.9082,0.47365 0,0.46817 -0.67054,5.73394 -0.942,7.3977 l -0.14031,0.8599 h -7.89508 -7.89506 l -0.29237,2.05052 c -0.16079,1.12779 -0.36946,2.73513 -0.46373,3.57188 l -0.1714,1.52135 h 6.51872 6.51873 v 0.6154 c 0,0.59507 -0.63183,5.50328 -0.93403,7.25595 l -0.14828,0.8599 h -6.60259 c -3.63144,0 -6.6026,0.0941 -6.6026,0.20906 0,0.27038 -0.76106,6.04879 -0.92206,7.00084 l -0.12305,0.7276 h 7.93089 c 4.362,0 7.93075,0.0893 7.93059,0.19844 -1.6e-4,0.10914 -0.23815,2.0439 -0.52887,4.29948 -0.29073,2.25557 -0.52872,4.1308 -0.52888,4.16718 -1.6e-4,0.0364 -5.84922,0.0661 -12.99794,0.0661 h -12.99766 z m -58.18605,0.26458 c 0.0727,-0.25466 0.45884,-3.14193 0.85799,-6.41615 l 0.72572,-5.95312 -3.88286,-13.95681 c -2.13558,-7.67625 -3.88287,-14.07586 -3.88287,-14.22136 0,-0.1677 1.97896,-0.26454 5.40613,-0.26454 4.92108,0 5.41819,0.0415 5.54059,0.46302 0.074,0.25466 0.88302,3.90741 1.79793,8.11722 l 1.66348,7.65419 3.95761,-8.11721 3.95762,-8.11722 h 5.40309 c 5.03705,0 5.39105,0.0314 5.22548,0.46302 -0.0977,0.25466 -3.55156,6.7138 -7.67529,14.35365 l -7.4977,13.89062 -0.69264,5.55625 c -0.38096,3.05594 -0.75927,5.88367 -0.8407,6.28386 l -0.14806,0.7276 h -5.02389 c -4.65866,0 -5.01428,-0.0337 -4.89163,-0.46302 z m -45.66775,-0.66146 c 0.0833,-0.61846 1.29679,-9.87557 2.69669,-20.57135 l 2.54529,-19.44688 5.28493,-0.0714 5.28493,-0.0714 4.0728,11.05163 c 2.24004,6.07839 4.154,11.14535 4.25323,11.25989 0.0992,0.11454 0.32734,-1.49401 0.5069,-3.57457 0.17957,-2.08055 0.76901,-7.11536 1.30988,-11.18847 l 0.98339,-7.40564 4.68635,-0.0722 c 4.66174,-0.0719 4.68634,-0.0692 4.68634,0.50483 0,0.63985 -4.95399,38.82537 -5.18712,39.98253 l -0.14659,0.7276 h -5.24477 -5.24476 l -0.25827,-0.7276 c -1.01749,-2.86638 -7.82939,-21.17293 -7.98486,-21.45878 -0.10717,-0.19704 -0.33764,1.11265 -0.51217,2.91042 -0.30461,3.13782 -1.97963,16.63605 -2.28529,18.41606 l -0.14765,0.8599 h -4.72533 -4.72534 z m 81.55448,1.66993 c -6.36756,-0.92129 -9.78477,-4.04677 -10.99594,-10.05722 -0.538,-2.66985 -0.42361,-7.96181 0.27195,-12.58094 1.73866,-11.54628 5.71243,-17.45 12.97294,-19.27354 3.93944,-0.98943 9.18711,-0.7584 12.64521,0.5567 2.55228,0.97062 4.85479,3.17654 5.72795,5.48767 0.69642,1.8433 0.96643,4.938 0.68908,7.89772 l -0.18968,2.02416 h -5.00451 -5.0045 v -2.52204 c 0,-4.13549 -0.97258,-5.41816 -4.10105,-5.40866 -4.90132,0.0149 -6.70499,3.36189 -7.97237,14.79402 -0.85112,7.67741 0.20426,10.29254 4.25788,10.55066 3.15719,0.20103 5.27494,-1.52972 5.97031,-4.87931 l 0.29524,-1.42217 h 5.02935 5.02935 l -0.13916,0.7276 c -0.0765,0.40019 -0.2195,1.26339 -0.3177,1.91823 -0.26109,1.74088 -1.38296,4.70024 -2.35709,6.21771 -1.73793,2.70729 -4.60954,4.66589 -8.07601,5.50831 -2.07799,0.50499 -6.7299,0.75066 -8.73125,0.4611 z" />
        <path
           inkscape:connector-curvature="0"
           id="path846"
           style="fill:#ffffff;stroke-width:2.11528897"
           d="m 226.32449,236.05367 c 0.007,-0.32742 0.27898,-2.55984 0.60496,-4.96093 l 0.5927,-4.36563 4.95129,-0.072 c 4.58796,-0.0667 4.95169,-0.0376 4.9568,0.39687 0.003,0.25787 -0.25739,2.52269 -0.57872,5.03292 l -0.58423,4.56407 h -4.97753 -4.97753 l 0.0123,-0.59532 z m 19.71135,31.08855 c 0.22309,-1.23704 4.08889,-30.89457 4.08889,-31.36905 0,-0.40221 -0.4516,-0.4471 -4.49792,-0.4471 h -4.49792 l 0.0223,-0.8599 c 0.0123,-0.47294 0.22126,-2.4077 0.46445,-4.29948 l 0.44216,-3.43958 14.21993,-0.0684 14.21993,-0.0685 -0.0223,0.8622 c -0.0122,0.4742 -0.22117,2.41 -0.46426,4.30177 l -0.44198,3.43959 -4.69511,0.0722 c -3.323,0.0511 -4.69512,0.16126 -4.69512,0.37684 0,0.46386 -3.9571,30.66698 -4.12692,31.49935 l -0.14846,0.7276 h -4.99944 -4.99945 z m -23.68064,0.39687 c 0.006,-0.1819 0.81306,-6.46245 1.79246,-13.95677 l 1.78072,-13.62604 4.82213,-0.0721 c 2.65217,-0.0397 4.82689,0.0199 4.83271,0.1323 0.006,0.11242 -0.79343,6.42542 -1.77611,14.02888 l -1.78669,13.82448 h -4.83847 c -3.70064,0 -4.83572,-0.0778 -4.82675,-0.33073 z m -31.03079,-0.52917 c 0.0833,-0.61846 1.29686,-9.87557 2.69684,-20.57135 l 2.54542,-19.44688 12.88841,-0.0687 12.8884,-0.0687 -0.0223,0.86241 c -0.0123,0.47433 -0.22123,2.41023 -0.46439,4.302 l -0.44211,3.43958 -7.9626,0.07 -7.96261,0.07 -0.43654,3.27355 c -0.24011,1.80045 -0.43656,3.40608 -0.43656,3.56806 0,0.20841 1.9288,0.2945 6.59795,0.2945 h 6.59795 l -0.13722,0.8599 c -0.0755,0.47294 -0.33897,2.40771 -0.58554,4.29948 l -0.44831,3.43958 -6.67387,0.0707 c -5.07451,0.0537 -6.67402,0.14886 -6.67447,0.39688 -7.9e-4,0.42692 -1.79037,14.35651 -1.98795,15.47358 l -0.1521,0.85989 h -4.98992 -4.98991 z" />
      </g>
    </g>
  </g>
</svg>
