<?xml version="1.0" encoding="UTF-8" standalone="no"?>
<svg
   xmlns:dc="http://purl.org/dc/elements/1.1/"
   xmlns:cc="http://creativecommons.org/ns#"
   xmlns:rdf="http://www.w3.org/1999/02/22-rdf-syntax-ns#"
   xmlns:svg="http://www.w3.org/2000/svg"
   xmlns="http://www.w3.org/2000/svg"
   xmlns:sodipodi="http://sodipodi.sourceforge.net/DTD/sodipodi-0.dtd"
   xmlns:inkscape="http://www.inkscape.org/namespaces/inkscape"
   version="1.0"
   width="400.000000pt"
   height="400.000000pt"
   viewBox="0 0 400.000000 400.000000"
   preserveAspectRatio="xMidYMid meet"
   id="svg110"
   sodipodi:docname="safari-pinned-tab.svg"
   inkscape:version="0.92.3 (2405546, 2018-03-11)">
  <defs
     id="defs114" />
  <sodipodi:namedview
     pagecolor="#ffffff"
     bordercolor="#666666"
     borderopacity="1"
     objecttolerance="10"
     gridtolerance="10"
     guidetolerance="10"
     inkscape:pageopacity="0"
     inkscape:pageshadow="2"
     inkscape:window-width="1600"
     inkscape:window-height="837"
     id="namedview112"
     showgrid="false"
     inkscape:zoom="1.284375"
     inkscape:cx="266.66667"
     inkscape:cy="266.66667"
     inkscape:window-x="-8"
     inkscape:window-y="-8"
     inkscape:window-maximized="1"
     inkscape:current-layer="svg110" />
  <metadata
     id="metadata2">
Created by potrace 1.11, written by Peter Selinger 2001-2013
<rdf:RDF>
  <cc:Work
     rdf:about="">
    <dc:format>image/svg+xml</dc:format>
    <dc:type
       rdf:resource="http://purl.org/dc/dcmitype/StillImage" />
    <dc:title />
  </cc:Work>
</rdf:RDF>
</metadata>
  <g
     id="g848"
     transform="matrix(5.3999994,0,0,5.3999994,1411.1372,-1065.9084)"
     style="stroke-width:0.18518521">
    <path
       inkscape:connector-curvature="0"
       style="opacity:1;fill:#000000;fill-opacity:1;stroke:none;stroke-width:0.05415717;stroke-linecap:butt;stroke-linejoin:round;stroke-miterlimit:4;stroke-dasharray:none;stroke-opacity:1;paint-order:markers fill stroke"
       d="m -224.28469,200.67751 c 18.69751,0 33.75001,15.0525 33.75001,33.75001 0,18.6975 -15.0525,33.75 -33.75001,33.75 -18.6975,0 -33.75,-15.0525 -33.75,-33.75 0,-18.69751 15.0525,-33.75001 33.75,-33.75001 z"
       id="rect1815" />
    <g
       transform="matrix(2.8346458,0,0,2.8346458,-324.48744,142.37863)"
       id="g911"
       style="stroke-width:0.18518521">
      <path
         style="fill:#ffffff;stroke-width:0.02336549"
         d="m 29.173408,33.80744 c -1.412904,-2.87377 -2.86244,-5.808772 -3.221185,-6.522226 l -0.652276,-1.297192 1.540357,0.03542 1.540352,0.03547 1.674561,3.453634 c 0.921012,1.899498 1.694047,3.473126 1.71786,3.496937 0.02381,0.02381 0.807044,-1.542769 1.740509,-3.481299 l 1.697214,-3.524591 1.54587,-0.0042 1.545869,-0.0042 -3.23157,6.466396 c -1.777363,3.556518 -3.253411,6.489762 -3.280099,6.518319 -0.02674,0.02861 -1.204557,-2.299347 -2.617462,-5.173115 z"
         id="path1817"
         inkscape:connector-curvature="0" />
      <path
         id="path1819"
         style="fill:#ffffff;stroke-width:0.0237839"
         d="m 42.78647,30.971781 c 1.277214,-0.590115 0.617715,-2.417296 -0.170548,-2.543657 H 41.06188 39.507841 v 1.348548 1.348544 h 1.470936 c 0.866884,0 1.609222,-0.06301 1.807693,-0.153435 z m 0.400068,5.337663 c 0.483994,-0.229675 0.816456,-0.745609 0.816456,-1.267015 0,-0.521411 -0.332462,-1.03734 -0.816456,-1.267009 -0.336783,-0.159816 -0.829003,-0.20997 -2.060587,-0.20997 h -1.61811 v 1.476979 1.476978 h 1.61811 c 1.231584,0 1.723804,-0.05014 2.060587,-0.209963 z m -6.504224,-3.825093 v -6.496454 h 3.076066 c 3.987678,0 4.858218,0.183269 5.762438,1.213117 1.142472,1.301203 0.94074,3.881516 -0.363696,4.652065 -0.210942,0.124604 -0.381977,0.257435 -0.380078,0.295185 0.002,0.03775 0.239455,0.213122 0.52789,0.389721 1.022452,0.625992 1.608077,1.85351 1.478004,3.097991 -0.155001,1.483001 -0.86238,2.409322 -2.266209,2.96765 -0.654247,0.260202 -0.969412,0.284494 -4.270402,0.329055 l -3.564013,0.04809 z"
         inkscape:connector-curvature="0"
         sodipodi:nodetypes="ccccccsccscscccscccsscccscccc" />
    </g>
  </g>
</svg>
